<svg width="37" height="37" viewBox="0 0 37 37" fill="none" xmlns="http://www.w3.org/2000/svg">
<g clip-path="url(#clip0)">
<path d="M35.2945 35.5548H33.7095V12.5408C33.7095 11.4696 32.838 10.5981 31.7668 10.5981H28.2241C27.1529 10.5981 26.2814 11.4697 26.2814 12.5408V35.5548H22.2568V22.9679C22.2568 21.8967 21.3854 21.0253 20.3142 21.0253H16.7714C15.7002 21.0253 14.8288 21.8968 14.8288 22.9679V35.5548H10.8042V29.0361C10.8042 27.9649 9.93265 27.0935 8.86153 27.0935H5.3187C4.24751 27.0935 3.37606 27.965 3.37606 29.0361V35.5548H1.70557C1.30644 35.5548 0.98291 35.8783 0.98291 36.2774C0.98291 36.6765 1.30644 37.0001 1.70557 37.0001H35.2945C35.6936 37.0001 36.0171 36.6765 36.0171 36.2774C36.0171 35.8783 35.6936 35.5548 35.2945 35.5548ZM9.35871 35.5548H4.8213V29.0361C4.8213 28.7619 5.04438 28.5388 5.31863 28.5388H8.86138C9.13563 28.5388 9.35871 28.7619 9.35871 29.0361V35.5548ZM20.8114 35.5548H16.274V22.9679C16.274 22.6937 16.4971 22.4706 16.7714 22.4706H20.3141C20.5883 22.4706 20.8114 22.6937 20.8114 22.9679V35.5548ZM32.2642 35.5548H27.7268V12.5408C27.7268 12.2665 27.9498 12.0435 28.2241 12.0435H31.7668C32.0411 12.0435 32.2642 12.2665 32.2642 12.5408V35.5548Z" fill="#D39C00"/>
<path d="M33.7076 0.759945C33.7177 0.562732 33.6483 0.362195 33.4977 0.211594C33.3471 0.0609922 33.1466 -0.00845508 32.9494 0.00173438C32.9378 0.00122852 32.9263 0 32.9144 0H28.5423C28.1432 0 27.8197 0.323533 27.8197 0.722656C27.8197 1.12178 28.1432 1.44531 28.5423 1.44531H31.242L24.098 8.58935L21.4039 5.89529C21.2684 5.75979 21.0846 5.68362 20.893 5.68362C20.7013 5.68362 20.5175 5.75979 20.382 5.89529L7.39085 18.8865C7.10865 19.1687 7.10865 19.6263 7.39085 19.9085C7.53198 20.0495 7.71691 20.1201 7.90184 20.1201C8.08676 20.1201 8.27176 20.0495 8.41283 19.9084L20.893 7.42818L23.587 10.1222C23.8692 10.4044 24.3268 10.4044 24.6091 10.1222L32.264 2.46737V4.91067C32.264 5.30979 32.5876 5.63332 32.9867 5.63332C33.3858 5.63332 33.7093 5.30979 33.7093 4.91067V0.794922C33.7093 0.783143 33.7081 0.771652 33.7076 0.759945Z" fill="#D39C00"/>
<path d="M5.46631 22.6416C5.86542 22.6416 6.18897 22.3181 6.18897 21.9189C6.18897 21.5198 5.86542 21.1963 5.46631 21.1963C5.0672 21.1963 4.74365 21.5198 4.74365 21.9189C4.74365 22.3181 5.0672 22.6416 5.46631 22.6416Z" fill="#D39C00"/>
</g>
<defs>
<clipPath id="clip0">
<rect width="37" height="37" fill="white"/>
</clipPath>
</defs>
</svg>
