<svg width="25" height="25" viewBox="0 0 25 25" fill="none" xmlns="http://www.w3.org/2000/svg">
<path d="M12.5 25C19.4036 25 25 19.4036 25 12.5C25 5.59644 19.4036 0 12.5 0C5.59644 0 0 5.59644 0 12.5C0 19.4036 5.59644 25 12.5 25Z" fill="#107BC3"/>
<path fill-rule="evenodd" clip-rule="evenodd" d="M7.24399 16.4593C7.40824 16.8289 7.07152 16.6482 7.58071 16.7468C7.84353 16.7961 8.10634 16.7222 8.41022 16.7879C8.87835 16.8946 8.96869 17.256 9.44504 17.2314L9.51074 17.0425C9.44504 16.1801 7.36718 15.983 7.24399 16.4593ZM15.5308 17.2231C16.0646 17.256 16.1057 16.9028 16.582 16.7879C16.8695 16.7222 17.0419 16.7796 17.3048 16.755C17.8632 16.6975 17.6004 16.7961 17.7483 16.4593C17.4115 16.0323 16.3849 16.2047 15.9086 16.5168C15.5472 16.755 15.3665 16.7632 15.539 17.2314L15.5308 17.2231ZM11.6132 17.0178C11.063 17.0178 10.4059 16.8536 10.1513 17.2971C10.3895 17.6584 10.5374 17.5599 11.1287 17.5517H13.7322C14.3317 17.5599 14.5945 17.6748 14.8327 17.2971C14.5781 16.8536 13.9211 17.0178 13.3708 17.0178C13.9293 15.8187 18.356 11.5891 17.6333 8.07399C17.4937 7.3759 16.7381 5.34732 15.8675 5.37196C15.7033 6.20146 16.8202 6.3575 17.1487 8.31217C17.3787 9.68372 16.8448 10.8664 16.2864 11.8355C15.6293 12.9853 13.264 16.5825 12.492 16.985C11.9828 16.7222 11.4654 15.868 11.0794 15.3752C8.68945 12.3036 5.77388 8.32038 9.7407 5.28162C10.7098 4.53425 12.1635 4.21394 13.4529 4.48497C13.9785 4.59995 14.266 4.89561 14.6766 4.58352C14.2742 3.27768 7.85995 3.31053 7.28505 8.5257C7.08794 10.3243 8.21311 12.1394 8.95226 13.3138C9.55181 14.2747 11.4079 16.5415 11.6214 17.0178H11.6132ZM15.8347 15.0303C16.081 15.9666 17.3869 15.1535 18.0439 15.4656C18.4546 15.8927 19.7933 18.1512 19.8179 18.8164L5.16613 18.8575C5.19077 18.1512 6.52947 15.9009 6.94011 15.4656C7.56429 15.1617 8.9112 15.9501 9.14937 15.0303C8.7223 14.825 7.7614 14.8578 7.17007 14.9153C6.46376 14.981 6.25023 15.3999 6.00384 15.8762C5.71639 16.4265 4.55838 18.2251 4.63229 18.7507C4.78012 19.7691 7.16186 19.3913 8.17204 19.3913H16.6888C17.7072 19.3913 20.1957 19.7773 20.3517 18.7507C20.4257 18.2333 19.2923 16.4758 19.0213 15.9666C18.7749 15.5149 18.5942 15.0303 17.9289 14.9317C17.3294 14.8496 16.2699 14.825 15.8347 15.0385V15.0303ZM13.995 6.95704C13.88 7.72084 15.1612 8.32038 14.3235 9.8644C13.1655 11.9998 9.78998 10.7268 10.4799 8.24647C10.6031 7.81118 11.0465 7.33484 11.3258 7.12951C11.8432 6.75172 12.3278 6.90777 12.722 6.56283C12.3688 5.57728 10.4388 6.85028 10.0446 7.93438C9.47789 9.48661 10.3649 10.7103 11.3258 11.1949C13.264 12.1722 15.4979 10.5132 15.0626 8.31217C14.9312 7.66335 14.5863 6.97347 14.0032 6.95704H13.995ZM15.9578 18.1594C16.3603 18.4551 18.1014 18.4633 18.5038 18.1594C18.3724 17.6256 18.2 17.8063 16.5656 17.8063C16.1303 17.8063 15.9661 17.7488 15.9578 18.1594ZM6.48019 18.1594C6.88262 18.4633 8.63196 18.4469 9.03439 18.1594C8.9112 17.6256 8.79622 17.8063 7.0633 17.8063C6.69372 17.8063 6.4884 17.798 6.48019 18.1594Z" fill="white"/>
</svg>
