<svg width="116" height="125" viewBox="0 0 116 125" fill="none" xmlns="http://www.w3.org/2000/svg">
<path d="M58 124.515L48.1846 114.7H67.8153L58 124.515Z" fill="#EBEBEB"/>
<circle cx="58" cy="58.4846" r="58" fill="#EBEBEB"/>
<circle cx="58.0002" cy="58.4846" r="50.8615" fill="white"/>
<path d="M116 58.4846C116 66.7406 114.237 74.9015 110.83 82.4216C107.423 89.9417 102.449 96.6478 96.2421 102.091C90.0349 107.535 82.737 111.591 74.8365 113.987C66.936 116.384 58.6149 117.066 50.4295 115.988C42.2441 114.911 34.3831 112.098 27.3721 107.738C20.361 103.379 14.3616 97.5723 9.77476 90.7077C5.18796 83.8431 2.11955 76.0783 0.774686 67.9326C-0.570181 59.7868 -0.160512 51.4478 1.9763 43.4731L58 58.4846H116Z" fill="#D39C00"/>
<path d="M58 124.515L48.1846 114.7H67.8153L58 124.515Z" fill="#D39C00"/>
<circle cx="58.0002" cy="58.4846" r="50.8615" fill="white"/>
<path d="M44.376 69.72H47.112C48.136 69.72 48.856 69.512 49.272 69.096C49.72 68.648 49.944 67.912 49.944 66.888V63.576C49.944 62.552 49.72 61.832 49.272 61.416C48.856 60.968 48.136 60.744 47.112 60.744H41.592V66.888C41.592 67.912 41.8 68.648 42.216 69.096C42.632 69.512 43.352 69.72 44.376 69.72ZM48.12 75H43.416C40.888 75 38.936 74.328 37.56 72.984C36.184 71.64 35.496 69.704 35.496 67.176V51.96C35.496 49.432 36.184 47.496 37.56 46.152C38.936 44.808 40.888 44.136 43.416 44.136H53.208C53.88 44.136 54.216 44.472 54.216 45.144V48.456C54.216 49.096 53.88 49.416 53.208 49.416H44.376C43.384 49.416 42.664 49.64 42.216 50.088C41.8 50.504 41.592 51.224 41.592 52.248V55.464H48.12C50.648 55.464 52.6 56.136 53.976 57.48C55.352 58.824 56.04 60.76 56.04 63.288V67.176C56.04 69.704 55.352 71.64 53.976 72.984C52.6 74.328 50.648 75 48.12 75ZM71.3228 59.304H69.0668C68.2348 59.304 67.5948 59.64 67.1468 60.312C66.7308 60.984 66.2828 61.32 65.8028 61.32H61.8188C61.1468 61.32 60.8108 61 60.8108 60.36V45.144C60.8108 44.472 61.1468 44.136 61.8188 44.136H78.5228C79.1948 44.136 79.5308 44.472 79.5308 45.144V48.792C79.5308 49.464 79.1948 49.8 78.5228 49.8H66.9068V56.856C67.4508 55.256 68.7948 54.456 70.9388 54.456H72.9548C77.9148 54.456 80.3948 56.936 80.3948 61.896V67.176C80.3948 69.672 79.7068 71.608 78.3308 72.984C76.9548 74.328 75.0188 75 72.5228 75H68.2988C65.7708 75 63.8188 74.328 62.4428 72.984C61.0668 71.64 60.3788 69.704 60.3788 67.176V66.216C60.3788 65.512 60.7148 65.16 61.3867 65.16H65.4668C66.1388 65.16 66.4748 65.512 66.4748 66.216V67.128C66.4748 68.12 66.6828 68.84 67.0988 69.288C67.5468 69.704 68.2668 69.912 69.2588 69.912H71.5148C72.5388 69.912 73.2908 69.704 73.7708 69.288C74.2508 68.84 74.4908 68.12 74.4908 67.128V62.808C74.4908 61.464 74.2668 60.552 73.8188 60.072C73.3708 59.56 72.5388 59.304 71.3228 59.304Z" fill="#D39C00"/>
</svg>
