<svg width="15" height="27" viewBox="0 0 15 27" fill="none" xmlns="http://www.w3.org/2000/svg">
<path d="M9.66288 1.31323H5.27074C5.02832 1.31323 4.83154 1.50931 4.83154 1.75089C4.83154 1.99246 5.02832 2.18855 5.27074 2.18855H9.66288C9.90531 2.18855 10.1021 1.99246 10.1021 1.75089C10.1021 1.50931 9.90531 1.31323 9.66288 1.31323Z" fill="white"/>
<path d="M12.7373 1.31323H12.2981C12.0557 1.31323 11.8589 1.50931 11.8589 1.75089C11.8589 1.99246 12.0557 2.18855 12.2981 2.18855H12.7373C12.9797 2.18855 13.1765 1.99246 13.1765 1.75089C13.1765 1.50931 12.9797 1.31323 12.7373 1.31323Z" fill="white"/>
<path d="M8.01228 22.3218H6.92173C6.25369 22.3218 5.70996 22.8636 5.70996 23.5293V23.7407C5.70996 24.4064 6.25369 24.9478 6.92131 24.9478H8.01187C8.6799 24.9478 9.22363 24.4064 9.22363 23.7407V23.5293C9.22363 22.8636 8.6799 22.3218 8.01228 22.3218ZM8.34524 23.7407C8.34524 23.9237 8.19593 24.0725 8.01233 24.0725H6.92173C6.73772 24.0725 6.58835 23.9237 6.58835 23.7407V23.5293C6.58835 23.3459 6.73767 23.1971 6.92173 23.1971H8.01187C8.19593 23.1971 8.34524 23.3459 8.34524 23.5293V23.7407Z" fill="white"/>
<path d="M13.346 0H1.58776C0.712403 0 0 0.709904 0 1.58219V24.6783C0 25.5505 0.712403 26.2605 1.58776 26.2605H13.3455C14.2209 26.2605 14.9333 25.5505 14.9333 24.6787V1.58219C14.9333 0.709904 14.2209 0 13.346 0ZM14.0549 24.6783C14.0549 25.0678 13.7369 25.3851 13.346 25.3851H1.58776C1.19643 25.3851 0.878447 25.0678 0.878447 24.6787V1.58219C0.878447 1.19265 1.19643 0.875365 1.58776 0.875365H13.3455C13.7369 0.875365 14.0548 1.1927 14.0548 1.58219V24.6783H14.0549Z" fill="white"/>
<path d="M14.494 2.62646H0.439198C0.196772 2.62646 0 2.82255 0 3.06412V21.4464C0 21.688 0.196772 21.8841 0.439198 21.8841H14.4941C14.7365 21.8841 14.9333 21.688 14.9333 21.4464V3.06412C14.9333 2.82255 14.7365 2.62646 14.494 2.62646ZM14.0548 21.0088H0.878395V3.50183H14.0548V21.0088Z" fill="white"/>
</svg>
