<svg width="27" height="29" viewBox="0 0 27 29" fill="none" xmlns="http://www.w3.org/2000/svg">
<path d="M27 14.3611C27 6.80486 20.9566 0.680786 13.5 0.680786C6.04336 0.680786 0 6.80486 0 14.3611C0 21.9173 6.04336 28.0414 13.5 28.0414C13.5791 28.0414 13.6582 28.0414 13.7373 28.036V17.3911H10.8369V13.9656H13.7373V11.4433C13.7373 8.52024 15.4986 6.92777 18.0721 6.92777C19.3061 6.92777 20.366 7.01861 20.6719 7.06136V10.1181H18.9C17.5025 10.1181 17.2283 10.7914 17.2283 11.78V13.9603H20.577L20.1393 17.3857H17.2283V27.5123C22.8709 25.8718 27 20.6081 27 14.3611Z" fill="#9C9C9C"/>
</svg>
