<svg width="61" height="64" viewBox="0 0 61 64" fill="none" xmlns="http://www.w3.org/2000/svg">
<rect x="14" y="16" width="47" height="48" rx="10" fill="#0E4F7B" fill-opacity="0.1"/>
<path d="M15.1406 20.4844V18.7031H17.8125V16.0312C17.8125 14.5582 16.6137 13.3594 15.1406 13.3594H13.3594C12.8677 13.3594 12.4688 12.9604 12.4688 12.4688V11.5781H15.1406C15.6322 11.5781 16.0312 11.9771 16.0312 12.4688H17.8125C17.8125 10.9957 16.6137 9.79688 15.1406 9.79688V8.01562H13.3594V9.79688H10.6875V12.4688C10.6875 13.9418 11.8863 15.1406 13.3594 15.1406H15.1406C15.6322 15.1406 16.0312 15.5396 16.0312 16.0312V16.9219H13.3594C12.8677 16.9219 12.4688 16.5229 12.4688 16.0312H10.6875C10.6875 17.5043 11.8863 18.7031 13.3594 18.7031V20.4844H15.1406Z" fill="white"/>
<path d="M24.0469 14.25C24.0469 8.84836 19.6516 4.45312 14.25 4.45312C8.84836 4.45312 4.45312 8.84836 4.45312 14.25C4.45312 19.6516 8.84836 24.0469 14.25 24.0469C19.6516 24.0469 24.0469 19.6516 24.0469 14.25ZM6.23438 14.25C6.23438 9.82983 9.82983 6.23438 14.25 6.23438C18.6702 6.23438 22.2656 9.82983 22.2656 14.25C22.2656 18.6702 18.6702 22.2656 14.25 22.2656C9.82983 22.2656 6.23438 18.6702 6.23438 14.25Z" fill="white"/>
<path d="M51.6562 20.4844H44.0102L54.557 9.9367C55.5581 8.93564 56.1094 7.60505 56.1094 6.18984C56.1094 3.2677 53.7323 0.890625 50.8102 0.890625C49.395 0.890625 48.0644 1.44192 47.0633 2.44298L29.0219 20.4844H26.057C27.0447 18.6212 27.6094 16.5015 27.6094 14.25C27.6094 6.88364 21.6164 0.890625 14.25 0.890625C6.88364 0.890625 0.890625 6.88364 0.890625 14.25C0.890625 19.3657 3.78338 23.8126 8.01562 26.057V44.5312C8.01562 46.9867 10.0133 48.9844 12.4688 48.9844H21.0624L29.3639 55.6258C29.754 55.9384 30.2447 56.1094 30.7444 56.1094C31.9627 56.1094 32.9531 55.119 32.9531 53.9006V48.9844H51.6562C54.1117 48.9844 56.1094 46.9867 56.1094 44.5312V24.9375C56.1094 22.482 54.1117 20.4844 51.6562 20.4844ZM43.1187 8.90625L44.5312 7.49372L49.5063 12.4688L48.0938 13.8813L43.1187 8.90625ZM43.7172 12.0234L29.8359 25.9047L27.979 24.0469L41.8594 10.1656L43.7172 12.0234ZM27.0064 25.5939L31.4061 29.9936L24.8609 32.9024C24.4949 33.0689 24.0469 32.7759 24.0469 32.3751C24.0469 32.2932 24.0638 32.2139 24.0976 32.1391L27.0064 25.5939ZM29.3906 32.8391L33.4661 31.0276L38.6665 25.8281H50.7656V43.6406H29.3906V32.8391ZM32.9531 29.021L31.0953 27.1641L44.9766 13.2828L46.8344 15.1406L32.9531 29.021ZM48.3226 3.70233C48.987 3.03792 49.8705 2.67188 50.8102 2.67188C52.7499 2.67188 54.3281 4.25006 54.3281 6.18984C54.3281 7.12945 53.9621 8.01295 53.2977 8.67736L50.7656 11.2094L45.7906 6.23438L48.3226 3.70233ZM2.67188 14.25C2.67188 7.866 7.866 2.67188 14.25 2.67188C20.634 2.67188 25.8281 7.866 25.8281 14.25C25.8281 20.634 20.634 25.8281 14.25 25.8281C7.866 25.8281 2.67188 20.634 2.67188 14.25ZM54.3281 44.5312C54.3281 46.0043 53.1293 47.2031 51.6562 47.2031H31.1719V53.9006C31.1719 54.2328 30.7346 54.4439 30.4772 54.2346L21.6876 47.2031H12.4688C10.9957 47.2031 9.79688 46.0043 9.79688 44.5312V26.8301C11.1925 27.3253 12.687 27.6094 14.25 27.6094C18.6078 27.6094 22.4722 25.503 24.9126 22.2656H27.2407L26.0891 23.4172L25.9715 23.5339L22.4687 31.4159C22.3342 31.7196 22.2656 32.0429 22.2656 32.3751C22.2656 33.6763 23.3237 34.7344 24.6249 34.7344C24.9571 34.7344 25.2795 34.6658 25.5841 34.5304L27.6094 33.6309V43.6406C27.6094 44.623 28.4083 45.4219 29.3906 45.4219H50.7656C51.748 45.4219 52.5469 44.623 52.5469 43.6406V25.8281C52.5469 24.8458 51.748 24.0469 50.7656 24.0469H40.4477L42.229 22.2656H51.6562C53.1293 22.2656 54.3281 23.4644 54.3281 24.9375V44.5312Z" fill="white"/>
<path d="M24.0469 43.6406H25.8281V45.4219H24.0469V43.6406Z" fill="white"/>
<path d="M11.5781 43.6406H22.2656V45.4219H11.5781V43.6406Z" fill="white"/>
<path d="M11.5781 40.0781H25.8281V41.8594H11.5781V40.0781Z" fill="white"/>
<path d="M11.5781 36.5156H25.8281V38.2969H11.5781V36.5156Z" fill="white"/>
<path d="M11.5781 32.9531H20.4844V34.7344H11.5781V32.9531Z" fill="white"/>
<path d="M11.5781 29.3906H20.4844V31.1719H11.5781V29.3906Z" fill="white"/>
<path d="M40.0781 27.6094C36.1496 27.6094 32.9531 30.8058 32.9531 34.7344C32.9531 38.6629 36.1496 41.8594 40.0781 41.8594C44.0067 41.8594 47.2031 38.6629 47.2031 34.7344C47.2031 30.8058 44.0067 27.6094 40.0781 27.6094ZM45.3417 33.8438H40.9688V29.4708C43.2015 29.8484 44.9641 31.611 45.3417 33.8438ZM40.0781 40.0781C37.131 40.0781 34.7344 37.6815 34.7344 34.7344C34.7344 32.0919 36.6644 29.8974 39.1875 29.4708V35.625H45.3417C44.9151 38.1481 42.7206 40.0781 40.0781 40.0781Z" fill="white"/>
</svg>
