<svg class="myColor" width="151" height="32" viewBox="0 0 151 32" fill="none" xmlns="http://www.w3.org/2000/svg">
<path fill-rule="evenodd" clip-rule="evenodd" d="M131.529 6.1462C131.893 6.11315 132.223 6.11315 132.554 6.1462H137.18C140.253 5.98098 141.839 6.80708 141.839 4.42791H144.384C144.384 5.58445 144.945 6.54273 146.201 6.04707C147.258 5.65054 147.027 4.26269 147.027 3.13919C147.027 2.61048 147.06 2.01569 147.027 1.52003C147.027 1.45394 147.06 1.38785 147.06 1.32176C147.06 0.594793 146.465 0 145.738 0C145.606 0 145.507 0 145.375 0.0330441C145.21 0.0660881 145.044 0.132176 144.912 0.264353C144.615 0.495661 144.417 0.89219 144.417 1.28872V1.32176C144.384 1.48698 144.351 1.61916 144.351 1.78438H141.872L141.806 1.32176C141.806 0.594793 141.211 0 140.484 0C139.823 0 139.262 0.495661 139.196 1.1235V3.46963H11.9429V1.48698C11.9429 1.4209 11.9429 1.68525 11.9429 1.32176C11.9429 0.925234 11.3481 0 10.6212 0C9.89418 0 9.29939 0.925234 9.29939 1.32176C9.29939 1.68525 9.29939 1.38785 9.29939 1.4209L9.2333 1.81742H6.755C6.755 1.75134 6.72195 1.68525 6.72195 1.58612C6.755 1.48698 6.755 1.71829 6.755 1.32176C6.755 0.925234 5.96194 0 5.43323 0C4.93757 0 4.87148 0.0991322 4.67322 0.231309C3.88016 0.693926 4.07843 2.01569 4.07843 3.10614C4.07843 4.22964 3.84712 5.58445 4.90453 6.01402C6.1602 6.50968 6.72195 5.51836 6.72195 4.39486H9.26635C9.26635 6.08011 10.0594 6.17924 11.6125 6.11315C12.2403 6.08011 13.0334 6.04707 13.9256 6.11315H95.7757H116.263H120.922C121.22 6.08011 121.55 6.08011 121.881 6.11315H131.496L131.529 6.1462Z" fill="#4A4A4A"/>
<path fill-rule="evenodd" clip-rule="evenodd" d="M143.161 25.9064L149.902 25.9394C151.257 26.1707 151.422 28.0873 150.035 28.4838C149.374 28.649 146.664 28.5499 145.805 28.5499C145.805 30.0699 146.168 31.9534 144.516 31.9865C142.831 32.0195 143.194 30.0038 143.161 28.583H137.18C137.18 29.7395 137.61 32.0195 135.859 31.9865C134.173 31.9534 134.504 29.9378 134.537 28.5499L128.523 28.583C128.523 29.9708 128.853 32.0195 127.168 31.9534C125.516 31.8874 125.945 30.0038 125.912 28.5169H119.931C119.898 30.0038 120.295 31.9204 118.643 31.9534C116.957 31.9865 117.288 29.9708 117.288 28.5169L102.649 28.5499C102.682 29.9378 102.98 31.9865 101.295 31.9534C99.6423 31.9204 100.039 30.0038 100.006 28.5169H94.0248C93.9918 29.9708 94.4214 31.8874 92.7692 31.9534C91.0839 32.0195 91.4144 29.9708 91.4144 28.5169H85.4003C85.4334 29.8717 85.7638 31.9204 84.0786 31.9204C82.3603 31.9534 82.7899 29.6734 82.7568 28.4838L76.7758 28.5169C76.7428 29.9047 77.1063 31.9204 75.421 31.8874C73.7688 31.8543 74.1323 29.9708 74.1323 28.4508C73.2732 28.4508 70.3983 28.5499 69.7705 28.3516C68.5479 27.9551 68.68 26.0716 70.0348 25.8403L76.5776 25.8073H143.062L143.161 25.9064Z" fill="#4A4A4A"/>
<path fill-rule="evenodd" clip-rule="evenodd" d="M108.63 25.9064L115.371 25.9394C116.725 26.1707 116.891 28.0873 115.503 28.4838C114.842 28.649 112.132 28.5499 111.273 28.5499C111.273 30.0699 111.637 31.9534 109.984 31.9865C108.299 32.0195 108.663 30.0038 108.63 28.583H102.649C102.649 29.7395 103.078 32.0195 101.327 31.9865C99.6417 31.9534 99.9721 29.9378 100.005 28.5499L93.9911 28.583C93.9911 29.9708 94.3216 32.0195 92.6363 31.9534C90.9841 31.8874 91.4137 30.0038 91.3806 28.5169H85.3997C85.3666 30.0038 85.7631 31.9204 84.1109 31.9534C82.4257 31.9865 82.7561 29.9708 82.7561 28.5169L68.1176 28.5499C68.1507 29.9378 68.4481 31.9865 66.7628 31.9534C65.1106 31.9204 65.5071 30.0038 65.4741 28.5169H59.4931C59.4601 29.9708 59.8896 31.8874 58.2374 31.9534C56.5522 32.0195 56.8826 29.9708 56.8826 28.5169H50.8686C50.9016 29.8717 51.2321 31.9204 49.5468 31.9204C47.8285 31.9534 48.2581 29.6734 48.2251 28.4838L42.2441 28.5169C42.2111 29.9047 42.5745 31.9204 40.8893 31.8874C39.2371 31.8543 39.6006 29.9708 39.6006 28.4508C38.7414 28.4508 35.8666 28.5499 35.2388 28.3516C34.0161 27.9551 34.1483 26.0716 35.5031 25.8403L42.0458 25.8073H108.531L108.63 25.9064Z" fill="#4A4A4A"/>
<path fill-rule="evenodd" clip-rule="evenodd" d="M74.231 25.9064L80.972 25.9394C82.3268 26.1707 82.492 28.0873 81.1041 28.4838C80.4432 28.649 77.7336 28.5499 76.8745 28.5499C76.8745 30.0699 77.238 31.9534 75.5858 31.9865C73.9005 32.0195 74.264 30.0038 74.231 28.583H68.25C68.25 29.7395 68.6796 32.0195 66.9282 31.9865C65.243 31.9534 65.5734 29.9378 65.6065 28.5499L59.5924 28.583C59.5924 29.9708 59.9229 32.0195 58.2376 31.9534C56.5854 31.8874 57.015 30.0038 56.982 28.5169H51.001C50.9679 30.0038 51.3645 31.9204 49.7123 31.9534C48.027 31.9865 48.3575 29.9708 48.3575 28.5169L33.7189 28.5499C33.752 29.9378 34.0494 31.9865 32.3641 31.9534C30.7119 31.9204 31.1084 30.0038 31.0754 28.5169H25.0944C25.0614 29.9708 25.491 31.8874 23.8388 31.9534C22.1535 32.0195 22.4839 29.9708 22.4839 28.5169H16.4699C16.503 29.8717 16.8334 31.9204 15.1482 31.9204C13.4299 31.9534 13.8594 29.6734 13.8264 28.4838L7.84542 28.5169C7.81237 29.9047 8.17586 31.9204 6.49061 31.8874C4.83841 31.8543 5.20189 29.9708 5.20189 28.4508C4.34275 28.4508 1.46791 28.5499 0.840075 28.3516C-0.382556 27.9551 -0.25038 26.0716 1.10443 25.8403L7.64715 25.8073H74.1318L74.231 25.9064Z" fill="#4A4A4A"/>
<path fill-rule="evenodd" clip-rule="evenodd" d="M134.867 15.9272C134.867 18.4055 133.876 19.9586 131.86 20.9499C129.679 22.0074 126.97 21.2143 125.549 19.2647C125.152 18.736 124.723 17.7777 124.657 16.9516C124.591 16.0264 124.558 15.002 126.011 15.002C126.474 15.002 126.937 15.4316 127.069 15.8281C127.201 16.2246 127.003 16.5551 127.432 17.4142C127.664 17.9099 127.895 18.1742 128.358 18.4386C130.638 19.7934 132.389 17.7447 132.389 16.522C132.389 14.6716 131.497 13.8124 129.779 13.6142C128.093 13.4489 127.994 11.0698 130.01 11.0698C130.638 11.0698 131.464 11.3011 131.926 11.5324C132.554 11.8298 132.918 12.0941 133.38 12.5567C133.876 13.0524 134.107 13.3168 134.405 13.9776C134.636 14.4403 134.9 15.2333 134.9 15.9272H134.867Z" fill="#4A4A4A"/>
<path fill-rule="evenodd" clip-rule="evenodd" d="M129.745 5.94812C135.462 5.94812 140.088 10.5743 140.088 16.2909C140.088 22.0075 135.462 26.6337 129.745 26.6337C124.029 26.6337 119.402 22.0075 119.402 16.2909C119.402 10.5743 124.029 5.94812 129.745 5.94812ZM129.745 8.29425C134.14 8.29425 137.742 11.863 137.742 16.2909C137.742 20.6858 134.173 24.2876 129.745 24.2876C125.35 24.2876 121.748 20.7188 121.748 16.2909C121.748 11.8961 125.317 8.29425 129.745 8.29425Z" fill="#4A4A4A"/>
<path fill-rule="evenodd" clip-rule="evenodd" d="M114.347 15.9272C114.347 18.4055 113.356 19.9586 111.34 20.9499C109.159 22.0074 106.45 21.2143 105.029 19.2647C104.632 18.736 104.203 17.7777 104.136 16.9516C104.07 16.0264 104.037 15.002 105.491 15.002C105.954 15.002 106.416 15.4316 106.549 15.8281C106.681 16.2246 106.483 16.5551 106.912 17.4142C107.143 17.9099 107.375 18.1742 107.837 18.4386C110.117 19.7934 111.869 17.7447 111.869 16.522C111.869 14.6716 110.977 13.8124 109.258 13.6142C107.573 13.4489 107.474 11.0698 109.49 11.0698C110.117 11.0698 110.944 11.3011 111.406 11.5324C112.034 11.8298 112.397 12.0941 112.86 12.5567C113.356 13.0524 113.587 13.3168 113.884 13.9776C114.116 14.4403 114.38 15.2333 114.38 15.9272H114.347Z" fill="#4A4A4A"/>
<path fill-rule="evenodd" clip-rule="evenodd" d="M109.192 5.94812C114.908 5.94812 119.534 10.5743 119.534 16.2909C119.534 22.0075 114.908 26.6337 109.192 26.6337C103.475 26.6337 98.8489 22.0075 98.8489 16.2909C98.8489 10.5743 103.475 5.94812 109.192 5.94812ZM109.192 8.29425C113.587 8.29425 117.188 11.863 117.188 16.2909C117.188 20.6858 113.62 24.2876 109.192 24.2876C104.797 24.2876 101.195 20.7188 101.195 16.2909C101.195 11.8961 104.764 8.29425 109.192 8.29425Z" fill="#4A4A4A"/>
<path fill-rule="evenodd" clip-rule="evenodd" d="M47.036 15.9272C47.036 18.4055 46.0447 19.9586 44.029 20.9499C41.8481 22.0074 39.1385 21.2143 37.7176 19.2647C37.3211 18.736 36.8915 17.7777 36.8254 16.9516C36.7593 16.0264 36.7263 15.002 38.1802 15.002C38.6428 15.002 39.1054 15.4316 39.2376 15.8281C39.3698 16.2246 39.1715 16.5551 39.6011 17.4142C39.8324 17.9099 40.0637 18.1742 40.5263 18.4386C42.8064 19.7934 44.5577 17.7447 44.5577 16.522C44.5577 14.6716 43.6655 13.8124 41.9472 13.6142C40.262 13.4489 40.1628 11.0698 42.1785 11.0698C42.8064 11.0698 43.6325 11.3011 44.0951 11.5324C44.7229 11.8298 45.0864 12.0941 45.549 12.5567C46.0447 13.0524 46.276 13.3168 46.5734 13.9776C46.8047 14.4403 47.0691 15.2333 47.0691 15.9272H47.036Z" fill="#4A4A4A"/>
<path fill-rule="evenodd" clip-rule="evenodd" d="M41.8806 5.94812C47.5973 5.94812 52.2234 10.5743 52.2234 16.2909C52.2234 22.0075 47.5973 26.6337 41.8806 26.6337C36.164 26.6337 31.5378 22.0075 31.5378 16.2909C31.5378 10.5743 36.164 5.94812 41.8806 5.94812ZM41.8806 8.29425C46.2755 8.29425 49.8773 11.863 49.8773 16.2909C49.8773 20.6858 46.3085 24.2876 41.8806 24.2876C37.4858 24.2876 33.884 20.7188 33.884 16.2909C33.884 11.8961 37.4527 8.29425 41.8806 8.29425Z" fill="#4A4A4A"/>
<path fill-rule="evenodd" clip-rule="evenodd" d="M26.4823 15.9272C26.4823 18.4055 25.491 19.9586 23.4753 20.9499C21.2944 22.0074 18.5848 21.2143 17.1639 19.2647C16.7673 18.736 16.3378 17.7777 16.2717 16.9516C16.2056 16.0264 16.1725 15.002 17.6265 15.002C18.0891 15.002 18.5517 15.4316 18.6839 15.8281C18.8161 16.2246 18.6178 16.5551 19.0474 17.4142C19.2787 17.9099 19.51 18.1742 19.9726 18.4386C22.2527 19.7934 24.004 17.7447 24.004 16.522C24.004 14.6716 23.1118 13.8124 21.3935 13.6142C19.7083 13.4489 19.6091 11.0698 21.6248 11.0698C22.2527 11.0698 23.0788 11.3011 23.5414 11.5324C24.1692 11.8298 24.5327 12.0941 24.9953 12.5567C25.491 13.0524 25.7223 13.3168 26.0197 13.9776C26.251 14.4403 26.5153 15.2333 26.5153 15.9272H26.4823Z" fill="#4A4A4A"/>
<path fill-rule="evenodd" clip-rule="evenodd" d="M21.3604 5.94812C27.077 5.94812 31.7032 10.5743 31.7032 16.2909C31.7032 22.0075 27.077 26.6337 21.3604 26.6337C15.6437 26.6337 11.0176 22.0075 11.0176 16.2909C11.0176 10.5743 15.6437 5.94812 21.3604 5.94812ZM21.3604 8.29425C25.7552 8.29425 29.357 11.863 29.357 16.2909C29.357 20.6858 25.7883 24.2876 21.3604 24.2876C16.9655 24.2876 13.3637 20.7188 13.3637 16.2909C13.3637 11.8961 16.9325 8.29425 21.3604 8.29425Z" fill="#4A4A4A"/>
</svg>
