<svg width="52" height="57" viewBox="0 0 52 57" fill="none" xmlns="http://www.w3.org/2000/svg">
<path d="M34.7897 15.3416H7.49331C7.03018 15.3416 6.65479 15.717 6.65479 16.1801C6.65479 16.6432 7.03018 17.0186 7.49331 17.0186H34.7899C35.253 17.0186 35.6284 16.6432 35.6284 16.1801C35.6284 15.717 35.2529 15.3416 34.7897 15.3416Z" fill="white"/>
<path d="M7.49331 11.2022H21.1415C21.6046 11.2022 21.98 10.8268 21.98 10.3637C21.98 9.90054 21.6046 9.52515 21.1415 9.52515H7.49331C7.03018 9.52515 6.65479 9.90054 6.65479 10.3637C6.65479 10.8269 7.03018 11.2022 7.49331 11.2022Z" fill="white"/>
<path d="M34.7897 20.4951H7.49331C7.03018 20.4951 6.65479 20.8705 6.65479 21.3336C6.65479 21.7968 7.03018 22.1722 7.49331 22.1722H34.7899C35.253 22.1722 35.6284 21.7968 35.6284 21.3336C35.6283 20.8705 35.2529 20.4951 34.7897 20.4951Z" fill="white"/>
<path d="M13.7117 51.174H4.97607C3.54227 51.174 2.37567 50.0075 2.37567 48.5737V4.27734C2.37567 2.84354 3.54227 1.67694 4.97607 1.67694H30.1425C30.2237 1.67694 30.3038 1.68439 30.3829 1.69508V6.92461C30.3829 9.28321 32.3018 11.2019 34.6603 11.2019H39.8897C39.9005 11.2812 39.9078 11.3613 39.9078 11.4425V25.7216C39.9078 26.1847 40.2832 26.5601 40.7464 26.5601C41.2095 26.5601 41.5849 26.1847 41.5849 25.7216V11.4426C41.5849 10.5228 41.2266 9.65805 40.5762 9.00756L32.5773 1.00863C31.9269 0.358254 31.0623 0 30.1425 0H4.97607C2.61747 0 0.69873 1.91885 0.69873 4.27734V48.5737C0.69873 50.9322 2.61758 52.8509 4.97607 52.8509H13.7117C14.1748 52.8509 14.5502 52.4755 14.5502 52.0124C14.5502 51.5493 14.1748 51.174 13.7117 51.174ZM38.7221 9.52501H34.6604C33.2266 9.52501 32.06 8.35841 32.06 6.92461V2.86291L38.7221 9.52501Z" fill="white"/>
<path d="M51.0444 41.0498L43.9397 29.0576C43.4219 28.1832 42.295 27.8942 41.4202 28.4124L39.6921 29.4363C38.3507 30.231 37.7837 31.8391 38.2442 33.2642C37.662 33.4752 37.0236 33.4718 36.4358 33.2446C35.0714 32.8153 34.034 31.9518 32.3208 32.3851C29.4118 33.1257 29.5002 33.0887 29.237 33.1788C27.5337 32.209 26.5098 31.9205 24.7016 32.62L23.0898 33.2431C22.3436 33.5314 21.5213 33.463 20.8318 33.0545L20.3919 32.7952C20.6065 31.5091 20.0362 30.1519 18.8285 29.4365C18.8285 29.4365 18.8285 29.4365 18.8284 29.4364L17.1004 28.4126C16.228 27.896 15.0978 28.1852 14.581 29.0576L7.47605 41.0499C6.95827 41.9241 7.24638 43.0513 8.12098 43.5693L9.84901 44.5931C10.3719 44.9029 10.9466 45.0502 11.5144 45.0502C12.1475 45.0502 12.7717 44.8667 13.3054 44.5212L13.6656 44.7337L12.9052 45.7927C11.9991 47.055 12.287 48.8102 13.5494 49.7164C14.1333 50.1354 14.8667 50.3268 15.6252 50.2077C15.7455 50.9112 16.1309 51.5696 16.755 52.0178C17.3412 52.4386 18.0713 52.6302 18.8311 52.5105C18.9518 53.2134 19.337 53.8713 19.9607 54.3192C20.799 54.9209 21.8413 54.9905 22.7097 54.6195C22.8998 55.1131 23.2301 55.5589 23.6909 55.8898C24.8941 56.7533 26.5516 56.5281 27.4865 55.4093L29.5071 56.6063C30.8434 57.3982 32.5675 56.9581 33.3598 55.6202C33.5625 55.2782 33.6881 54.9055 33.7341 54.5224L33.7387 54.5252C35.073 55.3154 36.801 54.873 37.5914 53.5391C37.8203 53.1527 37.9458 52.7335 37.9763 52.3135C39.1524 52.6091 40.4341 52.1152 41.0831 51.0197C41.2961 50.6603 41.4196 50.2721 41.4602 49.8815C42.7206 50.3761 44.1938 49.8981 44.9057 48.6966C45.2885 48.0504 45.3969 47.2938 45.2106 46.566C45.1041 46.1497 44.9081 45.7717 44.6392 45.4525L45.7529 44.8018C46.6951 45.1886 47.7703 45.1267 48.6714 44.593L50.3992 43.5692C51.2738 43.0515 51.5627 41.9245 51.0444 41.0498ZM10.7038 43.1504L8.97575 42.1265C8.89894 42.081 8.87344 41.9814 8.91887 41.9046L16.0238 29.912C16.0696 29.8349 16.1694 29.8098 16.2458 29.8552L17.9737 30.8789C18.7416 31.3339 18.9818 32.3187 18.5352 33.0725L12.8974 42.5888C12.4474 43.3485 11.4635 43.6003 10.7038 43.1504ZM14.5274 48.3541C14.0181 47.9885 13.9017 47.2802 14.2675 46.7708L15.3851 45.214C15.7412 44.718 16.4507 44.5823 16.9684 44.954C17.4767 45.3188 17.5932 46.029 17.2285 46.5372L16.1108 48.094C15.746 48.6024 15.0353 48.7187 14.5274 48.3541ZM17.733 50.6556C17.2248 50.2906 17.1083 49.5802 17.4731 49.0721L18.5907 47.5154C18.5907 47.5154 18.5907 47.5154 18.5907 47.5153C18.5907 47.5153 18.5907 47.5152 18.5908 47.5152L19.8242 45.7972C20.001 45.5511 20.263 45.3883 20.562 45.3393C20.6241 45.3291 20.6864 45.3241 20.7481 45.3241C20.9835 45.3241 21.2125 45.3973 21.4075 45.5373C21.6536 45.714 21.8163 45.9759 21.8653 46.2749C21.9144 46.5741 21.8442 46.8743 21.6674 47.1204L19.3162 50.3955C18.9509 50.9048 18.2425 51.0214 17.733 50.6556ZM20.9387 52.9568C20.4307 52.5921 20.3141 51.8823 20.6782 51.3742C20.6783 51.374 20.6786 51.3737 20.6787 51.3735L23.0298 48.0986C23.3944 47.5905 24.1051 47.4738 24.6131 47.8385C25.1213 48.2033 25.2379 48.9136 24.8731 49.4218L23.8285 50.877C23.8285 50.877 23.8285 50.877 23.8284 50.8771L22.5219 52.6969C22.1571 53.2051 21.4471 53.3219 20.9387 52.9568ZM24.6689 54.5274C24.161 54.1627 24.0442 53.4532 24.4082 52.945L25.1907 51.8551C25.5554 51.3468 26.266 51.2306 26.774 51.5952C27.2821 51.9599 27.3988 52.6703 27.034 53.1785L26.2521 54.2674C25.8874 54.7757 25.1769 54.8924 24.6689 54.5274ZM43.4632 47.842C43.1441 48.3805 42.4468 48.559 41.9082 48.2401C40.9962 47.6998 35.1131 44.2144 34.4859 43.8428C34.0874 43.6068 33.5731 43.7383 33.3371 44.1367C33.1011 44.5352 33.2326 45.0495 33.631 45.2855L39.2423 48.6099L39.2424 48.61C39.7811 48.9291 39.9608 49.6243 39.6405 50.1652C39.3214 50.7039 38.6237 50.8821 38.0853 50.5634C36.0099 49.3339 34.3247 48.3355 32.471 47.2372C32.0723 47.0012 31.5582 47.1327 31.3222 47.5311C31.0862 47.9296 31.2177 48.4439 31.6161 48.6799L35.7506 51.1294L35.7515 51.1299C36.2906 51.45 36.4685 52.1449 36.1488 52.6846C35.8297 53.2233 35.1322 53.4018 34.5935 53.0827L32.3746 51.7683C32.3744 51.7682 32.374 51.7681 32.3738 51.7678C32.3736 51.7677 32.3734 51.7676 32.3731 51.7675L30.7539 50.8081C30.3553 50.572 29.8411 50.7034 29.6051 51.102C29.3691 51.5004 29.5005 52.0148 29.899 52.2508L31.5186 53.2103C31.5188 53.2104 31.519 53.2107 31.5193 53.2108C32.058 53.5298 32.2377 54.225 31.9174 54.7658C31.5982 55.3045 30.9007 55.483 30.362 55.1639L28.4726 54.0447C29.2826 52.795 28.9745 51.1108 27.752 50.2333C27.393 49.9757 26.9932 49.8153 26.5843 49.7463C27.018 48.5866 26.6441 47.2327 25.591 46.4768C24.9676 46.029 24.2211 45.8744 23.5167 45.9848C23.3913 45.2517 22.9904 44.6096 22.3856 44.1755C21.248 43.3591 19.7021 43.516 18.7472 44.482C18.5532 44.1412 18.2853 43.8355 17.9465 43.5922C17.0012 42.9138 15.7739 42.9075 14.8381 43.4789L14.4539 43.2521L19.7275 34.3504L19.9785 34.4985C21.0874 35.1553 22.4404 35.2923 23.6944 34.8073L25.3063 34.1842C26.2286 33.8278 26.7373 33.8045 27.6496 34.235C27.0527 34.9056 26.6983 35.7861 26.6983 36.7351V40.4529C26.6983 41.4404 27.5011 42.2443 28.4878 42.2449H28.4902C29.4799 42.2449 30.4106 41.8596 31.1108 41.1599C31.5189 40.752 31.8202 40.2658 32.0007 39.7349C33.0834 40.3761 42.0283 45.673 43.0653 46.2874C43.3262 46.4419 43.5112 46.6887 43.5863 46.9824C43.6615 47.2758 43.6177 47.5811 43.4632 47.842ZM49.5448 42.1265L47.8167 43.1504C47.057 43.6001 46.0731 43.3482 45.6233 42.5889L42.9808 38.1286C42.7447 37.7301 42.2301 37.5987 41.832 37.8345C41.4336 38.0705 41.302 38.5848 41.5379 38.9833L44.1804 43.4437C44.2301 43.5277 44.2841 43.6075 44.34 43.6853L43.6054 44.1145C43.4569 44.2024 43.314 44.2993 43.1774 44.4045L31.786 37.6586C31.2279 37.3282 30.5203 37.7309 30.5203 38.38C30.5115 38.4301 30.6069 39.292 29.9253 39.9734C29.5418 40.3565 29.0322 40.5676 28.4901 40.5676C28.4897 40.5676 28.4892 40.5676 28.4888 40.5676C28.4261 40.5676 28.3751 40.5159 28.3751 40.4524V36.7346C28.3751 35.7634 29.0433 34.944 29.947 34.7153L32.732 34.0104C33.7425 33.7551 34.3137 34.2947 35.8268 34.8068C36.8771 35.2131 38.0193 35.1881 39.033 34.7551L39.5391 35.6095C39.7752 36.0081 40.2896 36.1395 40.6879 35.9036C41.0863 35.6676 41.2179 35.1532 40.982 34.7548L39.9852 33.0723C39.5342 32.311 39.7855 31.33 40.5466 30.8788L42.2747 29.8551C42.3501 29.8103 42.45 29.8332 42.4968 29.912L49.6015 41.9044C49.6474 41.9818 49.6221 42.0807 49.5448 42.1265Z" fill="white"/>
</svg>
