<svg width="53" height="63" viewBox="0 0 53 63" fill="none" xmlns="http://www.w3.org/2000/svg">
<path d="M34.7897 15.3418H7.49331C7.03018 15.3418 6.65479 15.7172 6.65479 16.1803C6.65479 16.6434 7.03018 17.0188 7.49331 17.0188H34.7899C35.253 17.0188 35.6284 16.6434 35.6284 16.1803C35.6284 15.7172 35.2529 15.3418 34.7897 15.3418Z" fill="white"/>
<path d="M7.49331 11.2024H21.1415C21.6046 11.2024 21.98 10.827 21.98 10.3639C21.98 9.90079 21.6046 9.52539 21.1415 9.52539H7.49331C7.03018 9.52539 6.65479 9.90079 6.65479 10.3639C6.65479 10.8271 7.03018 11.2024 7.49331 11.2024Z" fill="white"/>
<path d="M34.7897 20.4941H7.49331C7.03018 20.4941 6.65479 20.8695 6.65479 21.3327C6.65479 21.7958 7.03018 22.1712 7.49331 22.1712H34.7899C35.253 22.1712 35.6284 21.7958 35.6284 21.3327C35.6283 20.8695 35.2529 20.4941 34.7897 20.4941Z" fill="white"/>
<path d="M13.7117 51.174H4.97607C3.54227 51.174 2.37567 50.0075 2.37567 48.5737V4.27734C2.37567 2.84354 3.54227 1.67694 4.97607 1.67694H30.1425C30.2237 1.67694 30.3038 1.68439 30.3829 1.69508V6.92461C30.3829 9.28321 32.3018 11.2019 34.6603 11.2019H39.8897C39.9005 11.2812 39.9078 11.3613 39.9078 11.4425V25.7216C39.9078 26.1847 40.2832 26.5601 40.7464 26.5601C41.2095 26.5601 41.5849 26.1847 41.5849 25.7216V11.4426C41.5849 10.5228 41.2266 9.65805 40.5762 9.00756L32.5773 1.00863C31.9269 0.358254 31.0623 0 30.1425 0H4.97607C2.61747 0 0.69873 1.91885 0.69873 4.27734V48.5737C0.69873 50.9322 2.61758 52.8509 4.97607 52.8509H13.7117C14.1748 52.8509 14.5502 52.4755 14.5502 52.0124C14.5502 51.5493 14.1748 51.174 13.7117 51.174ZM38.7221 9.52501H34.6604C33.2266 9.52501 32.06 8.35841 32.06 6.92461V2.86291L38.7221 9.52501Z" fill="white"/>
<path d="M51.0444 41.0491L43.9397 29.0568C43.4219 28.1825 42.295 27.8935 41.4202 28.4117L39.6921 29.4356C38.3507 30.2302 37.7837 31.8384 38.2442 33.2635C37.662 33.4744 37.0236 33.4711 36.4358 33.2439C35.0714 32.8146 34.034 31.951 32.3208 32.3843C29.4118 33.125 29.5002 33.0879 29.237 33.1781C27.5337 32.2083 26.5098 31.9197 24.7016 32.6192L23.0898 33.2423C22.3436 33.5307 21.5213 33.4623 20.8318 33.0537L20.3919 32.7945C20.6065 31.5084 20.0362 30.1512 18.8285 29.4358C18.8285 29.4358 18.8285 29.4358 18.8284 29.4357L17.1004 28.4119C16.228 27.8952 15.0978 28.1845 14.581 29.0568L7.47605 41.0492C6.95827 41.9234 7.24638 43.0506 8.12098 43.5686L9.84901 44.5923C10.3719 44.9022 10.9466 45.0495 11.5144 45.0495C12.1475 45.0495 12.7717 44.866 13.3054 44.5204L13.6656 44.733L12.9052 45.792C11.9991 47.0543 12.287 48.8095 13.5494 49.7157C14.1333 50.1347 14.8667 50.3261 15.6252 50.207C15.7455 50.9104 16.1309 51.5688 16.755 52.017C17.3412 52.4379 18.0713 52.6295 18.8311 52.5098C18.9518 53.2127 19.337 53.8705 19.9607 54.3184C20.799 54.9201 21.8413 54.9897 22.7097 54.6188C22.8998 55.1124 23.2301 55.5582 23.6909 55.889C24.8941 56.7526 26.5516 56.5274 27.4865 55.4085L29.5071 56.6055C30.8434 57.3974 32.5675 56.9573 33.3598 55.6195C33.5625 55.2775 33.6881 54.9048 33.7341 54.5217L33.7387 54.5245C35.073 55.3147 36.801 54.8723 37.5914 53.5383C37.8203 53.1519 37.9458 52.7328 37.9763 52.3127C39.1524 52.6084 40.4341 52.1145 41.0831 51.019C41.2961 50.6596 41.4196 50.2714 41.4602 49.8808C42.7206 50.3754 44.1938 49.8974 44.9057 48.6959C45.2885 48.0496 45.3969 47.2931 45.2106 46.5653C45.1041 46.1489 44.9081 45.771 44.6392 45.4518L45.7529 44.8011C46.6951 45.1878 47.7703 45.1259 48.6714 44.5922L50.3992 43.5685C51.2738 43.0508 51.5627 41.9238 51.0444 41.0491ZM10.7038 43.1496L8.97575 42.1258C8.89894 42.0802 8.87344 41.9807 8.91887 41.9039L16.0238 29.9113C16.0696 29.8341 16.1694 29.8091 16.2458 29.8545L17.9737 30.8782C18.7416 31.3332 18.9818 32.318 18.5352 33.0718L12.8974 42.5881C12.4474 43.3478 11.4635 43.5995 10.7038 43.1496ZM14.5274 48.3533C14.0181 47.9877 13.9017 47.2795 14.2675 46.77L15.3851 45.2132C15.7412 44.7173 16.4507 44.5815 16.9684 44.9533C17.4767 45.3181 17.5932 46.0283 17.2285 46.5365L16.1108 48.0933C15.746 48.6017 15.0353 48.7179 14.5274 48.3533ZM17.733 50.6548C17.2248 50.2899 17.1083 49.5795 17.4731 49.0714L18.5907 47.5147C18.5907 47.5147 18.5907 47.5147 18.5907 47.5146C18.5907 47.5146 18.5907 47.5145 18.5908 47.5145L19.8242 45.7965C20.001 45.5503 20.263 45.3876 20.562 45.3386C20.6241 45.3283 20.6864 45.3233 20.7481 45.3233C20.9835 45.3233 21.2125 45.3966 21.4075 45.5365C21.6536 45.7133 21.8163 45.9752 21.8653 46.2742C21.9144 46.5733 21.8442 46.8736 21.6674 47.1197L19.3162 50.3948C18.9509 50.9041 18.2425 51.0207 17.733 50.6548ZM20.9387 52.9561C20.4307 52.5914 20.3141 51.8816 20.6782 51.3735C20.6783 51.3732 20.6786 51.373 20.6787 51.3728L23.0298 48.0978C23.3944 47.5897 24.1051 47.4731 24.6131 47.8378C25.1213 48.2026 25.2379 48.9129 24.8731 49.4211L23.8285 50.8763C23.8285 50.8763 23.8285 50.8763 23.8284 50.8764L22.5219 52.6961C22.1571 53.2044 21.4471 53.3211 20.9387 52.9561ZM24.6689 54.5267C24.161 54.162 24.0442 53.4525 24.4082 52.9443L25.1907 51.8544C25.5554 51.3461 26.266 51.2298 26.774 51.5944C27.2821 51.9592 27.3988 52.6695 27.034 53.1778L26.2521 54.2666C25.8874 54.775 25.1769 54.8916 24.6689 54.5267ZM43.4632 47.8412C43.1441 48.3797 42.4468 48.5583 41.9082 48.2393C40.9962 47.6991 35.1131 44.2137 34.4859 43.8421C34.0874 43.6061 33.5731 43.7376 33.3371 44.136C33.1011 44.5345 33.2326 45.0488 33.631 45.2848L39.2423 48.6092L39.2424 48.6093C39.7811 48.9284 39.9608 49.6236 39.6405 50.1644C39.3214 50.7031 38.6237 50.8814 38.0853 50.5627C36.0099 49.3331 34.3247 48.3348 32.471 47.2365C32.0723 47.0005 31.5582 47.132 31.3222 47.5304C31.0862 47.9288 31.2177 48.4432 31.6161 48.6792L35.7506 51.1286L35.7515 51.1292C36.2906 51.4493 36.4685 52.1442 36.1488 52.6839C35.8297 53.2226 35.1322 53.4011 34.5935 53.082L32.3746 51.7676C32.3744 51.7674 32.374 51.7673 32.3738 51.7671C32.3736 51.767 32.3734 51.7669 32.3731 51.7668L30.7539 50.8074C30.3553 50.5712 29.8411 50.7027 29.6051 51.1013C29.3691 51.4997 29.5005 52.014 29.899 52.2501L31.5186 53.2096C31.5188 53.2097 31.519 53.2099 31.5193 53.21C32.058 53.5291 32.2377 54.2242 31.9174 54.7651C31.5982 55.3038 30.9007 55.4822 30.362 55.1632L28.4726 54.044C29.2826 52.7942 28.9745 51.1101 27.752 50.2326C27.393 49.9749 26.9932 49.8145 26.5843 49.7456C27.018 48.5859 26.6441 47.2319 25.591 46.476C24.9676 46.0283 24.2211 45.8736 23.5167 45.9841C23.3913 45.251 22.9904 44.6088 22.3856 44.1748C21.248 43.3584 19.7021 43.5152 18.7472 44.4812C18.5532 44.1405 18.2853 43.8348 17.9465 43.5915C17.0012 42.9131 15.7739 42.9067 14.8381 43.4782L14.4539 43.2514L19.7275 34.3497L19.9785 34.4978C21.0874 35.1546 22.4404 35.2915 23.6944 34.8066L25.3063 34.1835C26.2286 33.827 26.7373 33.8038 27.6496 34.2343C27.0527 34.9049 26.6983 35.7854 26.6983 36.7344V40.4522C26.6983 41.4396 27.5011 42.2435 28.4878 42.2442H28.4902C29.4799 42.2442 30.4106 41.8589 31.1108 41.1592C31.5189 40.7513 31.8202 40.265 32.0007 39.7342C33.0834 40.3753 42.0283 45.6722 43.0653 46.2866C43.3262 46.4412 43.5112 46.688 43.5863 46.9817C43.6615 47.275 43.6177 47.5804 43.4632 47.8412ZM49.5448 42.1258L47.8167 43.1496C47.057 43.5994 46.0731 43.3475 45.6233 42.5882L42.9808 38.1279C42.7447 37.7294 42.2301 37.5979 41.832 37.8337C41.4336 38.0697 41.302 38.5841 41.5379 38.9825L44.1804 43.443C44.2301 43.5269 44.2841 43.6068 44.34 43.6846L43.6054 44.1137C43.4569 44.2017 43.314 44.2986 43.1774 44.4038L31.786 37.6578C31.2279 37.3275 30.5203 37.7302 30.5203 38.3792C30.5115 38.4293 30.6069 39.2912 29.9253 39.9727C29.5418 40.3558 29.0322 40.5668 28.4901 40.5668C28.4897 40.5668 28.4892 40.5668 28.4888 40.5668C28.4261 40.5668 28.3751 40.5152 28.3751 40.4517V36.7339C28.3751 35.7627 29.0433 34.9433 29.947 34.7145L32.732 34.0097C33.7425 33.7543 34.3137 34.2939 35.8268 34.806C36.8771 35.2124 38.0193 35.1873 39.033 34.7544L39.5391 35.6087C39.7752 36.0074 40.2896 36.1388 40.6879 35.9028C41.0863 35.6668 41.2179 35.1525 40.982 34.7541L39.9852 33.0716C39.5342 32.3103 39.7855 31.3293 40.5466 30.8781L42.2747 29.8544C42.3501 29.8095 42.45 29.8325 42.4968 29.9113L49.6015 41.9037C49.6474 41.981 49.6221 42.08 49.5448 42.1258Z" fill="white"/>
<rect x="6" y="13" width="47" height="50" rx="8" fill="white" fill-opacity="0.2"/>
</svg>
