<svg width="151" height="90" viewBox="0 0 151 90" fill="none" xmlns="http://www.w3.org/2000/svg">
<path fill-rule="evenodd" clip-rule="evenodd" d="M131.529 64.3213C131.893 64.2893 132.223 64.2893 132.554 64.3213H137.18C140.253 64.1612 141.839 64.9616 141.839 62.6564H144.383C144.383 63.777 144.945 64.7055 146.201 64.2252C147.258 63.8411 147.027 62.4964 147.027 61.4078C147.027 60.8955 147.06 60.3192 147.027 59.839C147.027 59.7749 147.06 59.7109 147.06 59.6469C147.06 58.9425 146.465 58.3662 145.738 58.3662C145.606 58.3662 145.507 58.3662 145.375 58.3982C145.209 58.4302 145.044 58.4943 144.912 58.6223C144.615 58.8465 144.416 59.2307 144.416 59.6149V59.6469C144.383 59.807 144.35 59.935 144.35 60.0951H141.872L141.806 59.6469C141.806 58.9425 141.211 58.3662 140.484 58.3662C139.823 58.3662 139.261 58.8465 139.195 59.4548V61.728H11.9427V59.807C11.9427 59.7429 11.9427 59.9991 11.9427 59.6469C11.9427 59.2627 11.3479 58.3662 10.6209 58.3662C9.89394 58.3662 9.29915 59.2627 9.29915 59.6469C9.29915 59.9991 9.29915 59.7109 9.29915 59.7429L9.23306 60.1271H6.75475C6.75475 60.0631 6.72171 59.9991 6.72171 59.903C6.75475 59.807 6.75475 60.0311 6.75475 59.6469C6.75475 59.2627 5.96169 58.3662 5.43299 58.3662C4.93733 58.3662 4.87124 58.4623 4.67298 58.5903C3.87992 59.0386 4.07818 60.3192 4.07818 61.3758C4.07818 62.4643 3.84687 63.777 4.90428 64.1932C6.15996 64.6735 6.72171 63.713 6.72171 62.6244H9.2661C9.2661 64.2573 10.0592 64.3533 11.6122 64.2893C12.2401 64.2573 13.0331 64.2252 13.9253 64.2893H95.7755H116.263H120.922C121.219 64.2573 121.55 64.2573 121.88 64.2893H131.496L131.529 64.3213Z" fill="#4A4A4A"/>
<path fill-rule="evenodd" clip-rule="evenodd" d="M143.162 83.4674L149.903 83.4994C151.257 83.7235 151.423 85.5805 150.035 85.9647C149.374 86.1248 146.664 86.0287 145.805 86.0287C145.805 87.5015 146.169 89.3264 144.516 89.3584C142.831 89.3905 143.195 87.4374 143.162 86.0607H137.181C137.181 87.1813 137.61 89.3905 135.859 89.3584C134.174 89.3264 134.504 87.3734 134.537 86.0287L128.523 86.0607C128.523 87.4054 128.854 89.3905 127.168 89.3264C125.516 89.2624 125.946 87.4374 125.913 85.9967H119.932C119.899 87.4374 120.295 89.2944 118.643 89.3264C116.958 89.3584 117.288 87.4054 117.288 85.9967L102.65 86.0287C102.683 87.3734 102.98 89.3584 101.295 89.3264C99.6426 89.2944 100.039 87.4374 100.006 85.9967H94.0251C93.992 87.4054 94.4216 89.2624 92.7694 89.3264C91.0842 89.3905 91.4146 87.4054 91.4146 85.9967H85.4006C85.4336 87.3094 85.7641 89.2944 84.0788 89.2944C82.3605 89.3264 82.7901 87.1173 82.7571 85.9647L76.7761 85.9967C76.743 87.3414 77.1065 89.2944 75.4213 89.2624C73.7691 89.2304 74.1326 87.4054 74.1326 85.9327C73.2734 85.9327 70.3986 86.0287 69.7707 85.8366C68.5481 85.4524 68.6803 83.6275 70.0351 83.4034L76.5778 83.3713H143.062L143.162 83.4674Z" fill="#4A4A4A"/>
<path fill-rule="evenodd" clip-rule="evenodd" d="M108.63 83.4674L115.371 83.4994C116.726 83.7235 116.891 85.5805 115.503 85.9647C114.842 86.1248 112.133 86.0287 111.273 86.0287C111.273 87.5015 111.637 89.3264 109.985 89.3584C108.299 89.3905 108.663 87.4374 108.63 86.0607H102.649C102.649 87.1813 103.078 89.3905 101.327 89.3584C99.6419 89.3264 99.9723 87.3734 100.005 86.0287L93.9914 86.0607C93.9914 87.4054 94.3218 89.3905 92.6366 89.3264C90.9844 89.2624 91.4139 87.4374 91.3809 85.9967H85.3999C85.3669 87.4374 85.7634 89.2944 84.1112 89.3264C82.4259 89.3584 82.7564 87.4054 82.7564 85.9967L68.1179 86.0287C68.1509 87.3734 68.4483 89.3584 66.763 89.3264C65.1108 89.2944 65.5074 87.4374 65.4743 85.9967H59.4934C59.4603 87.4054 59.8899 89.2624 58.2377 89.3264C56.5524 89.3905 56.8829 87.4054 56.8829 85.9967H50.8688C50.9019 87.3094 51.2323 89.2944 49.5471 89.2944C47.8288 89.3264 48.2584 87.1173 48.2253 85.9647L42.2443 85.9967C42.2113 87.3414 42.5748 89.2944 40.8895 89.2624C39.2373 89.2304 39.6008 87.4054 39.6008 85.9327C38.7417 85.9327 35.8668 86.0287 35.239 85.8366C34.0164 85.4524 34.1485 83.6275 35.5034 83.4034L42.0461 83.3713H108.531L108.63 83.4674Z" fill="#4A4A4A"/>
<path fill-rule="evenodd" clip-rule="evenodd" d="M74.231 83.4674L80.972 83.4994C82.3268 83.7235 82.492 85.5805 81.1041 85.9647C80.4432 86.1248 77.7336 86.0287 76.8745 86.0287C76.8745 87.5015 77.238 89.3264 75.5858 89.3584C73.9005 89.3905 74.264 87.4374 74.231 86.0607H68.25C68.25 87.1813 68.6796 89.3905 66.9282 89.3584C65.243 89.3264 65.5734 87.3734 65.6065 86.0287L59.5924 86.0607C59.5924 87.4054 59.9229 89.3905 58.2376 89.3264C56.5854 89.2624 57.015 87.4374 56.982 85.9967H51.001C50.9679 87.4374 51.3645 89.2944 49.7123 89.3264C48.027 89.3584 48.3575 87.4054 48.3575 85.9967L33.7189 86.0287C33.752 87.3734 34.0494 89.3584 32.3641 89.3264C30.7119 89.2944 31.1084 87.4374 31.0754 85.9967H25.0944C25.0614 87.4054 25.491 89.2624 23.8388 89.3264C22.1535 89.3905 22.4839 87.4054 22.4839 85.9967H16.4699C16.503 87.3094 16.8334 89.2944 15.1482 89.2944C13.4299 89.3264 13.8594 87.1173 13.8264 85.9647L7.84542 85.9967C7.81237 87.3414 8.17586 89.2944 6.49061 89.2624C4.83841 89.2304 5.20189 87.4054 5.20189 85.9327C4.34275 85.9327 1.46791 86.0287 0.840075 85.8366C-0.382556 85.4524 -0.25038 83.6275 1.10443 83.4034L7.64715 83.3713H74.1318L74.231 83.4674Z" fill="#4A4A4A"/>
<path fill-rule="evenodd" clip-rule="evenodd" d="M134.868 73.7984C134.868 76.1996 133.877 77.7044 131.861 78.6649C129.68 79.6894 126.971 78.921 125.55 77.032C125.153 76.5198 124.724 75.5913 124.657 74.7909C124.591 73.8944 124.558 72.9019 126.012 72.9019C126.475 72.9019 126.937 73.3181 127.07 73.7023C127.202 74.0865 127.004 74.4067 127.433 75.2391C127.664 75.7194 127.896 75.9755 128.358 76.2316C130.638 77.5443 132.39 75.5593 132.39 74.3747C132.39 72.5817 131.498 71.7493 129.779 71.5572C128.094 71.3971 127.995 69.0919 130.011 69.0919C130.638 69.0919 131.465 69.316 131.927 69.5402C132.555 69.8283 132.918 70.0844 133.381 70.5327C133.877 71.0129 134.108 71.269 134.405 71.9094C134.637 72.3576 134.901 73.126 134.901 73.7984H134.868Z" fill="#4A4A4A"/>
<path fill-rule="evenodd" clip-rule="evenodd" d="M129.746 64.0972C135.462 64.0972 140.088 68.5795 140.088 74.1184C140.088 79.6572 135.462 84.1396 129.746 84.1396C124.029 84.1396 119.403 79.6572 119.403 74.1184C119.403 68.5795 124.029 64.0972 129.746 64.0972ZM129.746 66.3703C134.14 66.3703 137.742 69.8281 137.742 74.1184C137.742 78.3766 134.174 81.8664 129.746 81.8664C125.351 81.8664 121.749 78.4086 121.749 74.1184C121.749 69.8602 125.318 66.3703 129.746 66.3703Z" fill="#4A4A4A"/>
<path fill-rule="evenodd" clip-rule="evenodd" d="M114.347 73.7984C114.347 76.1996 113.356 77.7044 111.34 78.6649C109.159 79.6894 106.45 78.921 105.029 77.032C104.632 76.5198 104.203 75.5913 104.136 74.7909C104.07 73.8944 104.037 72.9019 105.491 72.9019C105.954 72.9019 106.416 73.3181 106.549 73.7023C106.681 74.0865 106.483 74.4067 106.912 75.2391C107.143 75.7194 107.375 75.9755 107.837 76.2316C110.117 77.5443 111.869 75.5593 111.869 74.3747C111.869 72.5817 110.977 71.7493 109.258 71.5572C107.573 71.3971 107.474 69.0919 109.49 69.0919C110.117 69.0919 110.944 69.316 111.406 69.5402C112.034 69.8283 112.397 70.0844 112.86 70.5327C113.356 71.0129 113.587 71.269 113.884 71.9094C114.116 72.3576 114.38 73.126 114.38 73.7984H114.347Z" fill="#4A4A4A"/>
<path fill-rule="evenodd" clip-rule="evenodd" d="M109.192 64.0972C114.909 64.0972 119.535 68.5795 119.535 74.1184C119.535 79.6572 114.909 84.1396 109.192 84.1396C103.475 84.1396 98.8491 79.6572 98.8491 74.1184C98.8491 68.5795 103.475 64.0972 109.192 64.0972ZM109.192 66.3703C113.587 66.3703 117.189 69.8281 117.189 74.1184C117.189 78.3766 113.62 81.8664 109.192 81.8664C104.797 81.8664 101.195 78.4086 101.195 74.1184C101.195 69.8602 104.764 66.3703 109.192 66.3703Z" fill="#4A4A4A"/>
<path fill-rule="evenodd" clip-rule="evenodd" d="M47.0355 73.7984C47.0355 76.1996 46.0442 77.7044 44.0285 78.6649C41.8476 79.6894 39.138 78.921 37.7171 77.032C37.3206 76.5198 36.891 75.5913 36.8249 74.7909C36.7588 73.8944 36.7258 72.9019 38.1797 72.9019C38.6423 72.9019 39.1049 73.3181 39.2371 73.7023C39.3693 74.0865 39.171 74.4067 39.6006 75.2391C39.8319 75.7194 40.0632 75.9755 40.5258 76.2316C42.8059 77.5443 44.5572 75.5593 44.5572 74.3747C44.5572 72.5817 43.665 71.7493 41.9467 71.5572C40.2615 71.3971 40.1624 69.0919 42.178 69.0919C42.8059 69.0919 43.632 69.316 44.0946 69.5402C44.7224 69.8283 45.0859 70.0844 45.5485 70.5327C46.0442 71.0129 46.2755 71.269 46.5729 71.9094C46.8042 72.3576 47.0686 73.126 47.0686 73.7984H47.0355Z" fill="#4A4A4A"/>
<path fill-rule="evenodd" clip-rule="evenodd" d="M41.8804 64.0972C47.597 64.0972 52.2232 68.5795 52.2232 74.1184C52.2232 79.6572 47.597 84.1396 41.8804 84.1396C36.1638 84.1396 31.5376 79.6572 31.5376 74.1184C31.5376 68.5795 36.1638 64.0972 41.8804 64.0972ZM41.8804 66.3703C46.2753 66.3703 49.8771 69.8281 49.8771 74.1184C49.8771 78.3766 46.3083 81.8664 41.8804 81.8664C37.4855 81.8664 33.8837 78.4086 33.8837 74.1184C33.8837 69.8602 37.4525 66.3703 41.8804 66.3703Z" fill="#4A4A4A"/>
<path fill-rule="evenodd" clip-rule="evenodd" d="M26.4823 73.7984C26.4823 76.1996 25.491 77.7044 23.4753 78.6649C21.2944 79.6894 18.5848 78.921 17.1639 77.032C16.7673 76.5198 16.3378 75.5913 16.2717 74.7909C16.2056 73.8944 16.1725 72.9019 17.6265 72.9019C18.0891 72.9019 18.5517 73.3181 18.6839 73.7023C18.8161 74.0865 18.6178 74.4067 19.0474 75.2391C19.2787 75.7194 19.51 75.9755 19.9726 76.2316C22.2527 77.5443 24.004 75.5593 24.004 74.3747C24.004 72.5817 23.1118 71.7493 21.3935 71.5572C19.7083 71.3971 19.6091 69.0919 21.6248 69.0919C22.2527 69.0919 23.0788 69.316 23.5414 69.5402C24.1692 69.8283 24.5327 70.0844 24.9953 70.5327C25.491 71.0129 25.7223 71.269 26.0197 71.9094C26.251 72.3576 26.5153 73.126 26.5153 73.7984H26.4823Z" fill="#4A4A4A"/>
<path fill-rule="evenodd" clip-rule="evenodd" d="M21.3604 64.0972C27.077 64.0972 31.7032 68.5795 31.7032 74.1184C31.7032 79.6572 27.077 84.1396 21.3604 84.1396C15.6437 84.1396 11.0176 79.6572 11.0176 74.1184C11.0176 68.5795 15.6437 64.0972 21.3604 64.0972ZM21.3604 66.3703C25.7552 66.3703 29.357 69.8281 29.357 74.1184C29.357 78.3766 25.7883 81.8664 21.3604 81.8664C16.9655 81.8664 13.3637 78.4086 13.3637 74.1184C13.3637 69.8602 16.9325 66.3703 21.3604 66.3703Z" fill="#4A4A4A"/>
<path fill-rule="evenodd" clip-rule="evenodd" d="M15.0488 58.3983V1.28066C15.0488 1.24865 15.0488 1.24865 15.0488 1.21663C15.0488 1.05655 15.0819 0.896465 15.148 0.736382C15.3462 0.320166 15.7758 0 16.2715 0C16.3045 0 16.3375 0 16.3375 0H72.7768C72.8099 0 72.8429 0 72.8429 0C73.4047 0 73.8673 0.352183 74.0325 0.864448C74.0656 0.960498 74.0656 1.08856 74.0656 1.18461V1.21663V58.3663V58.3983C74.0656 59.0386 73.5038 59.5829 72.8429 59.5829H16.2715C15.6106 59.5829 15.0488 59.0386 15.0488 58.3983C15.0488 58.3663 15.0488 58.3663 15.0488 58.3343V58.3983ZM17.4941 57.2457H71.6203V2.40125H17.4941V57.2457Z" fill="#4A4A4A"/>
<path fill-rule="evenodd" clip-rule="evenodd" d="M24.8964 7.23582V52.4433C24.8964 53.0836 24.3347 53.6279 23.6738 53.6279C23.0129 53.6279 22.4512 53.0836 22.4512 52.4433V7.23582C22.4512 6.59549 23.0129 6.05121 23.6738 6.05121C24.3347 6.05121 24.8964 6.59549 24.8964 7.23582Z" fill="#4A4A4A"/>
<path fill-rule="evenodd" clip-rule="evenodd" d="M33.2563 7.23576V52.4432C33.2563 53.0835 32.6945 53.6278 32.0337 53.6278C31.3728 53.6278 30.811 53.0835 30.811 52.4432V7.23576C30.811 6.59543 31.3728 6.05115 32.0337 6.05115C32.6945 6.05115 33.2563 6.59543 33.2563 7.23576Z" fill="#4A4A4A"/>
<path fill-rule="evenodd" clip-rule="evenodd" d="M41.5834 7.23576V52.4432C41.5834 53.0835 41.0217 53.6278 40.3608 53.6278C39.6999 53.6278 39.1382 53.0835 39.1382 52.4432V7.23576C39.1382 6.59543 39.6999 6.05115 40.3608 6.05115C41.0217 6.05115 41.5834 6.59543 41.5834 7.23576Z" fill="#4A4A4A"/>
<path fill-rule="evenodd" clip-rule="evenodd" d="M49.9443 7.23576V52.4432C49.9443 53.0835 49.3825 53.6278 48.7217 53.6278C48.0608 53.6278 47.499 53.0835 47.499 52.4432V7.23576C47.499 6.59543 48.0608 6.05115 48.7217 6.05115C49.3825 6.05115 49.9443 6.59543 49.9443 7.23576Z" fill="#4A4A4A"/>
<path fill-rule="evenodd" clip-rule="evenodd" d="M58.2709 7.23576V52.4432C58.2709 53.0835 57.7092 53.6278 57.0483 53.6278C56.3874 53.6278 55.8257 53.0835 55.8257 52.4432V7.23576C55.8257 6.59543 56.3874 6.05115 57.0483 6.05115C57.7092 6.05115 58.2709 6.59543 58.2709 7.23576Z" fill="#4A4A4A"/>
<path fill-rule="evenodd" clip-rule="evenodd" d="M66.6303 7.23576V52.4432C66.6303 53.0835 66.0686 53.6278 65.4077 53.6278C64.7468 53.6278 64.1851 53.0835 64.1851 52.4432V7.23576C64.1851 6.59543 64.7468 6.05115 65.4077 6.05115C66.0686 6.05115 66.6303 6.59543 66.6303 7.23576Z" fill="#4A4A4A"/>
<path fill-rule="evenodd" clip-rule="evenodd" d="M77.04 58.3983V1.28066C77.04 1.24865 77.04 1.24865 77.04 1.21663C77.04 1.05655 77.0731 0.896465 77.1392 0.736382C77.3374 0.320166 77.767 0 78.2627 0C78.2957 0 78.3288 0 78.3288 0H134.768C134.801 0 134.834 0 134.834 0C135.396 0 135.858 0.352183 136.024 0.864448C136.057 0.960498 136.057 1.08856 136.057 1.18461V1.21663V58.3663V58.3983C136.057 59.0386 135.495 59.5829 134.834 59.5829H78.2627C77.6018 59.5829 77.04 59.0386 77.04 58.3983C77.04 58.3663 77.04 58.3663 77.04 58.3343V58.3983ZM79.4853 57.2457H133.611V2.40125H79.4853V57.2457Z" fill="#4A4A4A"/>
<path fill-rule="evenodd" clip-rule="evenodd" d="M86.9204 7.23582V52.4433C86.9204 53.0836 86.3586 53.6279 85.6977 53.6279C85.0368 53.6279 84.4751 53.0836 84.4751 52.4433V7.23582C84.4751 6.59549 85.0368 6.05121 85.6977 6.05121C86.3586 6.05121 86.9204 6.59549 86.9204 7.23582Z" fill="#4A4A4A"/>
<path fill-rule="evenodd" clip-rule="evenodd" d="M95.248 7.23576V52.4432C95.248 53.0835 94.6862 53.6278 94.0254 53.6278C93.3645 53.6278 92.8027 53.0835 92.8027 52.4432V7.23576C92.8027 6.59543 93.3645 6.05115 94.0254 6.05115C94.6862 6.05115 95.248 6.59543 95.248 7.23576Z" fill="#4A4A4A"/>
<path fill-rule="evenodd" clip-rule="evenodd" d="M103.608 7.23576V52.4432C103.608 53.0835 103.046 53.6278 102.385 53.6278C101.724 53.6278 101.163 53.0835 101.163 52.4432V7.23576C101.163 6.59543 101.724 6.05115 102.385 6.05115C103.046 6.05115 103.608 6.59543 103.608 7.23576Z" fill="#4A4A4A"/>
<path fill-rule="evenodd" clip-rule="evenodd" d="M111.935 7.23576V52.4432C111.935 53.0835 111.373 53.6278 110.712 53.6278C110.051 53.6278 109.489 53.0835 109.489 52.4432V7.23576C109.489 6.59543 110.051 6.05115 110.712 6.05115C111.373 6.05115 111.935 6.59543 111.935 7.23576Z" fill="#4A4A4A"/>
<path fill-rule="evenodd" clip-rule="evenodd" d="M120.295 7.23576V52.4432C120.295 53.0835 119.734 53.6278 119.073 53.6278C118.412 53.6278 117.85 53.0835 117.85 52.4432V7.23576C117.85 6.59543 118.412 6.05115 119.073 6.05115C119.734 6.05115 120.295 6.59543 120.295 7.23576Z" fill="#4A4A4A"/>
<path fill-rule="evenodd" clip-rule="evenodd" d="M128.623 7.23576V52.4432C128.623 53.0835 128.061 53.6278 127.4 53.6278C126.739 53.6278 126.177 53.0835 126.177 52.4432V7.23576C126.177 6.59543 126.739 6.05115 127.4 6.05115C128.061 6.05115 128.623 6.59543 128.623 7.23576Z" fill="#4A4A4A"/>
</svg>
