<svg width="200" height="174" viewBox="0 0 200 174" fill="none" xmlns="http://www.w3.org/2000/svg">
<path d="M0 138.159V106.039H200V138.017C200 144.024 195.884 149.249 190.044 150.656L112.527 169.323C102.393 171.763 91.816 171.692 81.7161 169.114L9.78518 150.756C4.02821 149.286 0 144.101 0 138.159Z" fill="white"/>
<path d="M127.266 122.082C113.887 129.861 98.6625 131.447 84.856 127.713C71.03 123.978 58.6216 114.922 50.9124 101.416C43.1839 87.909 41.611 72.5448 45.3199 58.5932C49.0288 44.6416 58.0002 32.1219 71.3601 24.3237H71.3795C84.7395 16.5255 99.9636 14.9388 113.79 18.6927C127.596 22.4274 140.005 31.4833 147.733 44.9705V44.9899C155.442 58.4771 157.015 73.8606 153.326 87.8122C149.617 101.764 140.645 114.284 127.266 122.082ZM86.0988 123.03C98.7208 126.436 112.644 125.004 124.858 117.883C137.092 110.762 145.286 99.3064 148.665 86.5545C152.063 73.8026 150.626 59.7349 143.578 47.4087C136.509 35.0631 125.169 26.7812 112.547 23.3755C99.9053 19.9505 85.9822 21.4018 73.768 28.5227C61.5538 35.6437 53.3397 47.0991 49.9609 59.851C46.5821 72.6029 47.9997 86.6512 55.068 98.9968C62.1169 111.323 73.4573 119.605 86.0988 123.03Z" fill="#B59028"/>
<path d="M54.5066 32.4506L55.8077 30.9606L48.9724 28.4837L46.6422 22.8141L45.3799 24.2847L47.7102 29.7415L43.71 26.181L42.4478 27.6517L51.5939 35.7788L52.8755 34.3276L50.0598 31.8314L49.6132 30.6316L54.5066 32.4506ZM50.72 21.2661L53.1474 18.9827L51.9628 17.6862L48.118 21.3048L56.4291 30.322L60.2739 26.7229L59.0894 25.4264L56.6427 27.7097L54.2154 25.0781L56.1572 23.2591L54.9727 21.9627L53.0308 23.7816L50.72 21.2661ZM68.1967 22.9302L66.2937 20.1631L65.614 20.6275L59.6331 11.9392L55.2057 15.0352L59.905 22.6786C60.2934 23.2785 60.4681 23.7236 60.4293 24.2654L59.8079 24.6911L61.7109 27.4582L63.245 26.3939L62.3129 25.0394L65.6917 22.6593L66.6238 24.0332L68.1967 22.9302ZM57.6719 15.4416L59.0117 14.5128L64.0023 21.7692L61.9245 23.2204C62.0216 22.7754 61.9245 22.3497 61.4391 21.5563L57.6719 15.4416ZM64.7985 10.8556L67.7112 9.23013L66.8568 7.6821L62.274 10.2557L68.1773 21.0145L72.7795 18.4603L71.925 16.9122L69.0317 18.5377L67.3034 15.3835L69.6142 14.0871L68.7598 12.5584L66.449 13.8549L64.7985 10.8556ZM73.6145 12.3455L75.634 11.4941L77.6535 16.3511L79.4594 15.5964L74.7602 4.23773L72.9348 5.01175L74.9738 9.86869L72.9542 10.7201L70.9347 5.86316L69.1482 6.61783L73.8669 17.9571L75.634 17.2218L73.6145 12.3455ZM77.2846 5.28265L79.207 4.70214L82.2169 14.803L84.0616 14.2612L81.0517 4.14098L82.9936 3.56047L82.4887 1.87699L76.7797 3.59917L77.2846 5.28265ZM87.8288 0.909467L85.0131 1.33518L86.819 13.5259L88.7221 13.2357L88.0424 8.64961L88.9551 8.51416C90.8581 8.22391 91.6348 7.02418 91.3436 5.08915L91.1105 3.50242C90.8193 1.54803 89.7318 0.619212 87.8288 0.909467ZM88.0812 2.651C88.6832 2.5736 89.0522 2.78645 89.1881 3.65722L89.46 5.4955C89.5765 6.36627 89.3046 6.69523 88.6832 6.77263L87.79 6.90808L87.188 2.78645L88.0812 2.651ZM96.9555 0.0193504L94.1592 0.174153L92.8388 12.5777L94.6059 12.481L94.8195 10.2363L97.1885 10.1009L97.6352 12.3068L99.577 12.2101L96.9555 0.0193504ZM95.5768 2.28334L96.839 8.43676L94.9748 8.55286L95.5768 2.28334ZM102.645 7.12094L104.839 7.23704L104.568 12.5003L106.529 12.5971L107.15 0.309606L105.189 0.212854L104.917 5.47615L102.742 5.36005L102.995 0.0967518L101.072 0L100.47 12.2875L102.393 12.3842L102.645 7.12094ZM112.451 9.07532L112.121 10.8169C111.966 11.6683 111.539 11.9198 110.937 11.8037C110.335 11.6876 110.005 11.3006 110.18 10.4298L111.403 3.90877C111.558 3.03801 112.005 2.78645 112.607 2.90256C113.209 3.01866 113.519 3.40566 113.364 4.27643L113.112 5.57291L114.898 5.92121L115.131 4.74084C115.481 2.8058 114.723 1.50933 112.879 1.16102C111.015 0.812715 109.849 1.72218 109.48 3.65722L108.296 9.94609C107.946 11.8811 108.704 13.1776 110.548 13.5259C112.413 13.8936 113.578 12.9647 113.947 11.0297L114.238 9.42363L112.451 9.07532ZM119.403 10.9136L118.918 12.5971C118.665 13.4485 118.219 13.642 117.636 13.4679C117.034 13.2937 116.762 12.8873 116.995 12.0359L118.821 5.65031C119.073 4.79889 119.539 4.58604 120.122 4.76019C120.704 4.93434 120.976 5.36005 120.743 6.21147L120.374 7.46924L122.122 7.9917L122.452 6.83068C122.996 4.93434 122.374 3.57982 120.549 3.05736C118.743 2.5349 117.481 3.32826 116.937 5.2246L115.189 11.378C114.646 13.2744 115.267 14.6289 117.092 15.1513C118.898 15.6931 120.161 14.8804 120.704 12.9841L121.151 11.4167L119.403 10.9136ZM127.132 7.48859L130.142 8.90117L130.88 7.29509L126.122 5.0698L120.996 16.2543L125.753 18.4796L126.491 16.8735L123.481 15.4609L124.976 12.1907L127.365 13.3131L128.103 11.7263L125.695 10.604L127.132 7.48859ZM135.404 9.71389L132.938 8.28196L126.86 18.944L128.53 19.9115L130.802 15.906L131.598 16.3704C133.268 17.3379 134.608 16.8929 135.579 15.1707L136.375 13.7968C137.346 12.0746 137.055 10.6814 135.404 9.71389ZM134.53 11.2232C135.055 11.5328 135.21 11.9585 134.763 12.7132L133.851 14.3193C133.423 15.0739 132.996 15.1513 132.472 14.8417L131.676 14.3773L133.734 10.7782L134.53 11.2232ZM142.065 14.0871L139.715 12.3649L132.55 22.3303L134.996 24.1299C136.55 25.2716 137.948 25.0394 139.055 23.4913L139.637 22.6786C140.395 21.6337 140.608 20.6275 140.006 19.6987C140.938 19.8728 141.715 19.4471 142.453 18.4216L142.725 18.0732C143.832 16.5446 143.676 15.2674 142.065 14.0871ZM138.026 19.4858C138.725 20.0083 138.822 20.5114 138.142 21.4402L137.521 22.311C136.996 23.0463 136.53 23.085 136.006 22.698L135.113 22.0401L137.327 18.9827L138.026 19.4858ZM140.997 15.4803C141.54 15.8867 141.56 16.3704 141.055 17.0864L140.647 17.6475C140.084 18.4409 139.54 18.4409 138.958 18.0152L138.356 17.5701L140.239 14.9385L140.997 15.4803ZM144.744 25.0007L147.385 23.3752L141.443 29.6254L142.686 30.8251L151.133 21.9627L149.618 20.4727L144.997 23.0269L142.628 24.4976L147.968 18.886L146.745 17.6862L138.278 26.5487L139.715 27.9419L144.744 25.0007ZM149.541 31.754L148.22 32.8763C147.541 33.4568 147.055 33.36 146.667 32.8956C146.259 32.4119 146.259 31.9088 146.919 31.3476L151.949 27.0518C152.609 26.4713 153.114 26.5681 153.502 27.0325C153.91 27.4969 153.891 28.0193 153.23 28.5805L152.24 29.4319L153.425 30.8445L154.318 30.0705C155.813 28.7933 156.027 27.3034 154.803 25.8521C153.58 24.4008 152.104 24.3621 150.609 25.6392L145.774 29.7802C144.278 31.0573 144.065 32.5473 145.288 33.9986C146.512 35.4499 147.987 35.4692 149.483 34.2115L150.725 33.1472L149.541 31.754Z" fill="#2C529E"/>
<path d="M44.7398 121.097L46.0214 122.606L49.4196 116.124L55.3034 114.615L54.0412 113.144L48.371 114.692L52.4101 111.209L51.1673 109.738L41.8853 117.73L43.128 119.201L45.9826 116.743L47.2253 116.472L44.7398 121.097ZM56.119 117.982L58.5269 120.304L59.7309 119.026L55.9248 115.369L47.5166 124.29L51.3226 127.947L52.5072 126.67L50.0993 124.367L52.5654 121.755L54.4879 123.593L55.6918 122.316L53.7694 120.478L56.119 117.982ZM53.2451 129.63L55.653 131.507C57.1676 132.688 58.5657 132.417 59.7697 130.869L63.5369 125.935C64.7214 124.367 64.6243 122.935 63.0903 121.755L60.6824 119.878L53.2451 129.63ZM62.0028 123.129C62.4883 123.496 62.5854 123.98 62.0611 124.677L58.1774 129.747C57.6531 130.443 57.1676 130.463 56.6822 130.095L55.8277 129.418L61.1484 122.451L62.0028 123.129ZM66.8574 126.631L69.7314 128.295L70.6052 126.767L66.0419 124.135L60.0027 134.836L64.5661 137.467L65.4205 135.939L62.5271 134.275L64.3136 131.14L66.605 132.456L67.4594 130.927L65.168 129.611L66.8574 126.631ZM70.5275 140.447L72.314 141.299L77.4794 130.153L75.9259 129.418L72.8383 136.074L74.1394 128.566L71.9645 127.521L66.7798 138.667L68.3527 139.422L72.1004 131.353L70.5275 140.447ZM77.6153 132.011L79.5377 132.649L76.2754 142.673L78.1008 143.272L81.3631 133.249L83.2661 133.888L83.8098 132.223L78.159 130.346L77.6153 132.011ZM88.0042 145.633C87.9071 145.149 87.9654 144.724 88.0819 144.124L88.412 142.266C88.645 141.008 88.5091 140.022 87.6352 139.46C88.5479 139.209 89.0916 138.474 89.3247 137.235L89.4994 136.287C89.849 134.41 89.1693 133.326 87.208 132.959L84.3535 132.436L82.1204 144.53L84.0234 144.898L84.9361 139.964L85.5769 140.08C86.4313 140.254 86.742 140.738 86.5284 141.86L86.1789 143.756C86.0041 144.743 86.0429 144.956 86.0818 145.285L88.0042 145.633ZM86.8391 134.681C87.5187 134.816 87.7323 135.242 87.577 136.113L87.3634 137.313C87.1692 138.28 86.6837 138.512 85.9847 138.377L85.2468 138.241L85.9264 134.507L86.8391 134.681ZM96.0046 134.178L93.2084 133.868L89.8878 145.865L91.6549 146.078L92.2374 143.892L94.5676 144.163L94.6647 146.407L96.5872 146.639L96.0046 134.178ZM94.2764 136.171L94.5094 142.46L92.6646 142.266L94.2764 136.171ZM102.956 146.427L104.937 146.349L104.471 134.042L102.762 134.12L103.034 141.473L100.782 134.178L98.3737 134.275L98.8203 146.581L100.549 146.523L100.238 137.603L102.956 146.427ZM106.044 136.887C106.549 140.37 110.335 140.273 110.724 142.769C110.84 143.64 110.51 144.008 109.908 144.105C109.306 144.201 108.879 143.95 108.743 143.079L108.607 142.208L106.821 142.479L106.918 143.234C107.209 145.169 108.355 146.136 110.219 145.846C112.083 145.575 112.899 144.317 112.607 142.363C112.083 138.88 108.297 138.977 107.928 136.48C107.792 135.61 108.083 135.223 108.685 135.126C109.306 135.029 109.695 135.319 109.831 136.19L109.889 136.693L111.695 136.422L111.637 136.035C111.345 134.081 110.238 133.114 108.374 133.404C106.529 133.675 105.753 134.932 106.044 136.887ZM112.957 135.648C113.792 139.054 117.559 138.609 118.161 141.067C118.375 141.937 118.083 142.324 117.481 142.479C116.88 142.634 116.433 142.402 116.219 141.55L116.025 140.699L114.258 141.144L114.433 141.879C114.899 143.795 116.122 144.646 117.948 144.182C119.792 143.737 120.472 142.402 120.006 140.486C119.171 137.08 115.404 137.525 114.802 135.068C114.588 134.216 114.86 133.81 115.462 133.655C116.045 133.501 116.472 133.752 116.666 134.603L116.802 135.087L118.569 134.662L118.472 134.275C118.006 132.359 116.802 131.507 114.976 131.952C113.171 132.417 112.491 133.733 112.957 135.648ZM120.783 132.088L123.851 130.791L123.171 129.166L118.336 131.217L123.055 142.576L127.89 140.525L127.21 138.919L124.142 140.215L122.763 136.887L125.21 135.842L124.53 134.236L122.103 135.261L120.783 132.088ZM135.482 136.635C135.094 136.345 134.861 135.958 134.57 135.455L133.638 133.791C133.016 132.668 132.298 132.03 131.249 132.146C131.812 131.372 131.754 130.443 131.133 129.36L130.667 128.508C129.735 126.863 128.531 126.476 126.802 127.463L124.259 128.914L130.278 139.615L131.948 138.667L129.502 134.294L130.084 133.965C130.841 133.539 131.385 133.713 131.948 134.7L132.9 136.384C133.385 137.254 133.541 137.39 133.774 137.622L135.482 136.635ZM127.599 129.011C128.2 128.682 128.647 128.876 129.074 129.63L129.676 130.695C130.162 131.546 129.929 132.049 129.307 132.398L128.647 132.765L126.802 129.476L127.599 129.011ZM131.696 124.561L130.104 125.683L138.686 134.662L141.017 132.978L135.541 121.813L134.104 122.858L138.628 131.914L131.696 124.561ZM144.357 130.521L145.813 129.263L137.89 119.917L136.415 121.174L144.357 130.521ZM147.289 121.6L148.551 122.819C149.172 123.419 149.134 123.922 148.726 124.367C148.299 124.812 147.813 124.89 147.172 124.27L142.395 119.704C141.774 119.085 141.793 118.581 142.221 118.136C142.628 117.672 143.133 117.633 143.774 118.233L144.726 119.143L145.968 117.807L145.114 116.995C143.696 115.64 142.221 115.582 140.92 116.956C139.619 118.33 139.755 119.839 141.153 121.194L145.755 125.606C147.172 126.96 148.648 127.018 149.949 125.625C151.25 124.251 151.134 122.761 149.716 121.407L148.532 120.265L147.289 121.6ZM146.57 113.473L148.648 110.841L147.289 109.758L144.007 113.899L153.561 121.561L156.823 117.42L155.464 116.317L153.386 118.949L150.59 116.704L152.241 114.615L150.881 113.512L149.231 115.601L146.57 113.473Z" fill="#2C529E"/>
<path fill-rule="evenodd" clip-rule="evenodd" d="M88.1195 55.4006L86.5855 53.8526L87.6147 52.8077L85.5563 50.7178L84.5077 51.7627L82.294 49.5181L83.3426 48.4732L81.2648 46.3833L80.2356 47.4283L78.0219 45.203L79.0511 44.158L76.9928 42.0682C78.4686 40.9846 80.022 40.0364 81.5949 39.1656C81.7309 39.0882 81.8474 39.0302 81.9639 38.9141C82.2552 38.6238 82.2552 38.1207 81.9639 37.8111C81.6726 37.5402 81.2648 37.5789 80.8959 37.5789H66.1378C65.6135 37.5789 64.9921 37.4628 64.5649 37.8885C64.1572 38.3142 64.2542 38.9334 64.2542 39.4753V54.375C64.2737 54.7427 64.2154 55.1684 64.5067 55.4587C64.798 55.7489 65.2834 55.7489 65.5941 55.4587C65.6912 55.3426 65.7495 55.2071 65.8271 55.091C66.6816 53.4849 67.6331 51.9175 68.7011 50.4276L70.7788 52.5174L71.808 51.4725L74.0217 53.6978L72.9926 54.7427L75.0509 56.8325L76.0995 55.7876L78.3132 58.0323L77.2646 59.0772L79.3424 61.167L80.3716 60.1221L81.9056 61.6701C82.3134 61.0316 82.7406 60.4317 83.2067 59.8512L81.925 58.5547L85.032 55.42L86.3136 56.7164C86.8962 56.2327 87.4981 55.807 88.1195 55.4006ZM76.4685 46.7703L78.6822 48.9956L75.5752 52.1304L73.3615 49.9051L76.4685 46.7703ZM80.7599 51.0855L82.9542 53.3301L79.8473 56.4649L77.653 54.2202L80.7599 51.0855Z" fill="#B59028"/>
<path fill-rule="evenodd" clip-rule="evenodd" d="M79.0921 68.5402H76.4512V67.0695H73.5384V68.5402H70.4121V67.0695H67.4799V68.5402H64.3535V67.0695H61.4213C61.7126 65.2313 62.1398 63.451 62.6446 61.7095C62.6835 61.574 62.7417 61.4386 62.7417 61.2838C62.7417 60.8581 62.3922 60.5098 61.965 60.5098C61.5572 60.5098 61.3048 60.8387 61.0329 61.0903L50.6052 71.6169C50.2168 72.0039 49.7119 72.3715 49.7119 72.9714C49.7119 73.5713 50.2168 73.9389 50.6052 74.3259L61.0329 84.8525C61.3048 85.1041 61.5572 85.433 61.965 85.433C62.3922 85.433 62.7417 85.0847 62.7417 84.659C62.7417 84.5042 62.6835 84.3881 62.6446 84.2333C62.1398 82.4918 61.7126 80.7115 61.4213 78.8926H64.3535V77.4026H67.4799V78.8926H70.4121V77.4026H73.5384V78.8926H76.4512V77.4026H79.0921C78.9368 76.6867 78.8203 75.932 78.7426 75.1967H76.4512V70.7655H78.7426C78.8203 70.0108 78.9368 69.2755 79.0921 68.5402ZM64.3535 70.7655H67.4799V75.1967H64.3535V70.7655ZM70.4121 70.7655H73.5384V75.1967H70.4121V70.7655Z" fill="#B59028"/>
<path fill-rule="evenodd" clip-rule="evenodd" d="M88.1172 90.5586L86.2336 92.4356L87.2822 93.4805L85.2044 95.5703L84.1752 94.5254L81.9615 96.7507L82.9907 97.7956L80.9323 99.8855L79.8837 98.8405L77.6894 101.085L78.7186 102.13L76.6408 104.22C78.1361 105.304 79.6896 106.252 81.2624 107.123C81.3984 107.2 81.5149 107.258 81.6314 107.355C81.9227 107.664 81.9227 108.167 81.6314 108.458C81.3401 108.748 80.9323 108.709 80.5634 108.709H65.8053C65.2616 108.709 64.6402 108.806 64.2324 108.4C63.8052 107.974 63.9217 107.355 63.9217 106.813V91.9131C63.9217 91.5455 63.8829 91.1197 64.1548 90.8295C64.4655 90.5392 64.9509 90.5392 65.2422 90.8295C65.3587 90.9456 65.417 91.0617 65.4752 91.1971C66.3491 92.7839 67.2811 94.3706 68.3686 95.8606L70.4464 93.7707L71.4755 94.8157L73.6892 92.5904L72.6406 91.5455L74.7184 89.4556L75.7476 90.5005L77.9613 88.2559L76.9321 87.211L78.9905 85.1211L80.0391 86.166L81.9033 84.2891C82.311 84.9083 82.7383 85.5275 83.2043 86.108L81.5926 87.7334L84.6995 90.8682L86.3113 89.2428C86.8938 89.7072 87.4958 90.1522 88.1172 90.5586ZM76.136 99.5178L78.3497 97.2732L75.2427 94.1578L73.029 96.383L76.136 99.5178ZM80.408 95.1833L82.6217 92.958L79.5148 89.8233L77.3011 92.0679L80.408 95.1833Z" fill="#B59028"/>
<path fill-rule="evenodd" clip-rule="evenodd" d="M90.0407 85.9758C86.0405 83.0539 83.4385 78.3324 83.4385 72.9724C83.4385 67.6317 86.0405 62.8908 90.0407 59.9883V85.9758Z" fill="#B59028"/>
<path fill-rule="evenodd" clip-rule="evenodd" d="M93.4623 35.159C91.6564 35.4493 89.8893 35.8943 88.1611 36.3974C88.0252 36.4361 87.8892 36.4942 87.7533 36.4942C87.3261 36.4942 86.9766 36.1459 86.9766 35.7008C86.9766 35.3138 87.3067 35.0429 87.5591 34.772L97.9869 24.2454C98.3558 23.8584 98.7248 23.3359 99.3267 23.3359C99.9093 23.3359 100.278 23.8584 100.667 24.2454L111.094 34.772C111.347 35.0429 111.677 35.3138 111.677 35.7008C111.677 36.1459 111.327 36.4942 110.9 36.4942C110.745 36.4942 110.628 36.4361 110.473 36.3974C108.745 35.8943 106.997 35.4493 105.172 35.159C105.172 60.5273 105.172 85.8763 105.172 111.225C106.997 110.954 108.745 110.509 110.473 110.006C110.628 109.968 110.745 109.909 110.9 109.909C111.327 109.909 111.677 110.258 111.677 110.683C111.677 111.09 111.347 111.361 111.094 111.632L100.667 122.158C100.278 122.545 99.9093 123.048 99.3267 123.048C98.7248 123.048 98.3558 122.545 97.9869 122.158L87.5591 111.632C87.3067 111.361 86.9766 111.09 86.9766 110.683C86.9766 110.258 87.3261 109.909 87.7533 109.909C87.8892 109.909 88.0252 109.968 88.1611 110.006C89.8893 110.509 91.6564 110.954 93.4623 111.225C93.4623 85.8763 93.4623 60.5273 93.4623 35.159Z" fill="#124F82"/>
<path fill-rule="evenodd" clip-rule="evenodd" d="M97.52 66.4497L121.657 42.0682C120.162 40.9846 118.609 40.0364 117.036 39.1656C116.919 39.0882 116.783 39.0302 116.686 38.9141C116.375 38.6238 116.375 38.1207 116.686 37.8111C116.958 37.5402 117.385 37.5789 117.735 37.5789H132.493C133.036 37.5789 133.658 37.4628 134.066 37.8885C134.493 38.3142 134.396 38.9334 134.396 39.4753V54.375C134.376 54.7427 134.415 55.1684 134.143 55.4587C133.833 55.7489 133.347 55.7489 133.056 55.4587C132.939 55.3426 132.881 55.2071 132.823 55.091C131.949 53.4849 131.017 51.9175 129.929 50.4276L105.792 74.809L97.52 66.4497Z" fill="#124F82"/>
<path fill-rule="evenodd" clip-rule="evenodd" d="M97.52 79.5078L121.657 103.87C120.162 104.973 118.609 105.921 117.036 106.792C116.919 106.85 116.783 106.908 116.686 107.024C116.375 107.334 116.375 107.817 116.686 108.127C116.958 108.417 117.385 108.359 117.735 108.379H132.493C133.036 108.379 133.658 108.475 134.066 108.05C134.493 107.624 134.396 107.005 134.396 106.463V91.5631C134.376 91.1954 134.415 90.7697 134.143 90.4988C133.833 90.1892 133.347 90.1892 133.056 90.4988C132.939 90.5956 132.881 90.731 132.823 90.8665C131.949 92.4532 131.017 94.0206 129.929 95.5106L105.792 71.1484L97.52 79.5078Z" fill="#124F82"/>
<path fill-rule="evenodd" clip-rule="evenodd" d="M119.637 67.0695H137.211C136.939 65.2313 136.512 63.451 136.007 61.7095C135.949 61.574 135.91 61.4386 135.91 61.2838C135.91 60.8581 136.259 60.5098 136.687 60.5098C137.075 60.5098 137.327 60.8387 137.599 61.0903L148.027 71.6169C148.415 72.0039 148.92 72.3715 148.92 72.9714C148.92 73.5713 148.415 73.9389 148.027 74.3259L137.599 84.8525C137.327 85.1041 137.075 85.433 136.687 85.433C136.259 85.433 135.91 85.0847 135.91 84.659C135.91 84.5042 135.949 84.3881 136.007 84.2333C136.512 82.4918 136.939 80.7115 137.211 78.8926H119.637C120.181 77.0156 120.453 75.0225 120.453 72.9714C120.453 70.9203 120.181 68.9465 119.637 67.0695Z" fill="#B59028"/>
<path fill-rule="evenodd" clip-rule="evenodd" d="M32.9518 50.8315C37.1462 46.8453 40.5833 42.6656 43.6126 38.4085C44.933 36.7444 45.7874 37.8667 45.2437 39.4147C43.3795 44.1169 41.0493 48.4127 37.2239 51.4313C37.7288 52.8632 37.2239 54.1984 35.5927 54.5274C36.486 57.5654 37.0491 60.1196 35.049 62.1901C33.4179 63.893 32.4858 62.2675 32.7188 61.0098C32.7771 60.6614 35.6704 56.3657 32.9907 55.8239C29.4759 60.2938 28.8157 64.2413 30.8546 70.5301L32.311 69.5046C33.5732 70.0077 34.5441 70.9558 35.2626 72.3297C34.5441 73.6842 33.5538 74.6131 32.2916 75.0968L30.8546 74.0519C28.7768 80.3021 29.4371 84.2689 32.9324 88.7969C35.6121 88.2938 32.7382 83.9399 32.6605 83.5916C32.4469 82.3339 33.3984 80.7278 35.0102 82.45C37.0103 84.5591 36.4277 87.1134 35.5345 90.132C37.1462 90.4804 37.6511 91.8155 37.1462 93.2475C40.9522 96.3242 43.263 100.659 45.1272 105.399C45.6709 106.948 44.7971 108.05 43.4766 106.367C40.4668 102.071 37.0491 97.8335 32.8741 93.7699C30.5439 93.3055 30.1944 92.5702 30.6216 90.7319C27.2234 84.8881 26.8738 81.8307 27.9224 75.2516C25.3592 73.6842 25.3592 70.801 27.9224 69.2917C26.9127 62.6932 27.2622 59.6552 30.6993 53.8501C30.2721 52.0118 30.6216 51.2765 32.9518 50.8315Z" fill="#B59028"/>
<path fill-rule="evenodd" clip-rule="evenodd" d="M165.832 50.8315C161.637 46.8453 158.181 42.6656 155.171 38.4085C153.831 36.7444 152.977 37.8667 153.521 39.4147C155.404 44.1169 157.734 48.4127 161.56 51.4313C161.055 52.8632 161.56 54.1984 163.172 54.5274C162.298 57.5654 161.735 60.1196 163.715 62.1901C165.346 63.893 166.298 62.2675 166.065 61.0098C166.007 60.6614 163.094 56.3657 165.774 55.8239C169.308 60.2938 169.968 64.2413 167.91 70.5301L166.473 69.5046C165.21 70.0077 164.24 70.9558 163.502 72.3297C164.24 73.6842 165.21 74.6131 166.473 75.0968L167.929 74.0519C169.987 80.3021 169.347 84.2689 165.832 88.7969C163.152 88.2938 166.045 83.9399 166.104 83.5916C166.337 82.3339 165.385 80.7278 163.754 82.45C161.773 84.5591 162.337 87.1134 163.249 90.132C161.618 90.4804 161.133 91.8155 161.637 93.2475C157.831 96.3242 155.521 100.659 153.656 105.399C153.113 106.948 153.967 108.05 155.288 106.367C158.297 102.071 161.735 97.8335 165.91 93.7699C168.22 93.3055 168.589 92.5702 168.143 90.7319C171.56 84.8881 171.91 81.8307 170.861 75.2516C173.424 73.6842 173.424 70.801 170.842 69.2917C171.871 62.6932 171.502 59.6552 168.084 53.8501C168.512 52.0118 168.143 51.2765 165.832 50.8315Z" fill="#B59028"/>
</svg>
