<svg width="27" height="28" viewBox="0 0 27 28" fill="none" xmlns="http://www.w3.org/2000/svg">
<path d="M27 13.5666C27 6.07317 20.9566 0 13.5 0C6.04336 0 0 6.07317 0 13.5666C0 21.06 6.04336 27.1332 13.5 27.1332C13.5791 27.1332 13.6582 27.1332 13.7373 27.1279V16.5714H10.8369V13.1744H13.7373V10.6731C13.7373 7.7743 15.4986 6.19506 18.0721 6.19506C19.3061 6.19506 20.366 6.28515 20.6719 6.32755V9.35883H18.9C17.5025 9.35883 17.2283 10.0266 17.2283 11.007V13.1691H20.577L20.1393 16.5661H17.2283V26.6085C22.8709 24.9816 27 19.7617 27 13.5666Z" fill="white"/>
</svg>
