<svg width="99" height="98" viewBox="0 0 99 98" fill="none" xmlns="http://www.w3.org/2000/svg">
<path d="M68.2186 81.4595C59.2137 86.6609 48.9494 87.7188 39.6549 85.2252C30.3352 82.7315 21.9852 76.6863 16.7838 67.6814V67.6688C11.5824 58.6639 10.5244 48.4122 13.0181 39.1051C15.5118 29.7854 21.557 21.4354 30.5619 16.234H30.5745C39.5793 11.0325 49.831 9.97463 59.1382 12.4683C68.4579 14.9619 76.8079 21.0072 82.0093 30.0121V30.0246C87.2107 39.0295 88.2686 49.2938 85.775 58.601C83.2813 67.9081 77.2361 76.2581 68.2312 81.4595H68.2186ZM40.4861 82.1018C48.9998 84.3813 58.3825 83.4116 66.6065 78.6636C74.8432 73.9155 80.372 66.2708 82.6516 57.7571C84.9312 49.2434 83.9614 39.8607 79.2134 31.6367C74.4528 23.4001 66.8206 17.8712 58.3069 15.5917C49.7932 13.3121 40.4105 14.2819 32.1865 19.0299C23.9499 23.7905 18.421 31.4226 16.1415 39.9363C13.8619 48.45 14.8317 57.8327 19.5797 66.0567C24.3277 74.2934 31.9724 79.8222 40.4861 82.1018Z" fill="white"/>
<path d="M19.2038 21.6621L20.0854 20.6545L15.476 19.0047L13.9143 15.2264L13.0579 16.2088L14.6195 19.8359L11.937 17.4808L11.0806 18.4505L17.2517 23.8787L18.1081 22.9089L16.2064 21.2339L15.9168 20.4404L19.2038 21.6621ZM16.6598 14.1937L18.2971 12.6698L17.491 11.8134L14.9092 14.2189L20.501 20.2389L23.0829 17.8334L22.2894 16.9644L20.6522 18.4883L19.0149 16.7251L20.3121 15.5161L19.5187 14.6597L18.2089 15.8687L16.6598 14.1937ZM28.4354 15.302L27.1508 13.4506L26.6848 13.7655L22.6547 7.95955L19.6698 10.025L22.8436 15.1257C23.1081 15.5413 23.2214 15.8309 23.1962 16.1836L22.7806 16.4733L24.0652 18.3246L25.0979 17.6067L24.4682 16.6999L26.7478 15.1257L27.3775 16.0325L28.4354 15.302ZM21.3449 10.3021L22.2391 9.67237L25.6017 14.5211L24.2038 15.4909C24.2667 15.2012 24.2038 14.9116 23.8763 14.3826L21.3449 10.3021ZM26.1433 7.24168L28.108 6.15858L27.5286 5.12585L24.443 6.83867L28.4228 14.03L31.521 12.3172L30.9417 11.2844L28.9896 12.3675L27.8183 10.2643L29.38 9.40789L28.8132 8.37516L27.2516 9.24417L26.1433 7.24168ZM32.0877 8.23663L33.4479 7.66989L34.8081 10.9192L36.0171 10.4028L32.8434 2.8337L31.6218 3.33747L32.9945 6.58678L31.6343 7.15352L30.2742 3.90421L29.0777 4.40798L32.2515 11.9897L33.4479 11.4859L32.0877 8.23663ZM34.5562 3.52638L35.8534 3.13596L37.8685 9.88647L39.1153 9.50864L37.1002 2.75814L38.3974 2.38031L38.0574 1.24683L34.2162 2.4055L34.5562 3.52638ZM41.6468 0.604523L39.7576 0.89419L40.9793 9.01747L42.2639 8.82856L41.8105 5.76816L42.415 5.68C43.687 5.49108 44.216 4.68505 44.0271 3.38785L43.8633 2.32993C43.6744 1.03273 42.9314 0.41561 41.6468 0.604523ZM41.8231 1.77579C42.2387 1.71282 42.478 1.86395 42.5661 2.44328L42.7551 3.66492C42.8432 4.24426 42.6417 4.45836 42.2387 4.52133L41.6342 4.60949L41.2186 1.86395L41.8231 1.77579ZM47.8053 0.0125942L45.9162 0.113348L45.0346 8.38776L46.2185 8.32479L46.3696 6.82607L47.9565 6.73791L48.2587 8.21144L49.5685 8.14847L47.8053 0.0125942ZM46.8734 1.5239L47.7172 5.62962L46.4704 5.70519L46.8734 1.5239ZM51.6466 4.74802L53.1075 4.82359L52.9312 8.34997L54.2536 8.41295L54.6692 0.201508L53.3468 0.138537L53.1705 3.65233L51.697 3.57676L51.8859 0.0629712L50.5887 0L50.1731 8.19884L51.4703 8.27441L51.6466 4.74802ZM58.246 6.05783L58.0319 7.21649C57.9185 7.79583 57.6288 7.94696 57.2258 7.87139C56.8102 7.79583 56.5961 7.54394 56.7095 6.96461L57.5407 2.60701C57.6414 2.02767 57.9437 1.85135 58.3467 1.92692C58.7497 2.01508 58.9638 2.27956 58.8505 2.85889L58.6868 3.7153L59.8958 3.94199L60.0469 3.16115C60.2862 1.87654 59.7825 1.00754 58.5356 0.768248C57.2762 0.541552 56.4954 1.14608 56.2435 2.44328L55.45 6.63716C55.2107 7.93437 55.7145 8.79077 56.9613 9.03006C58.2208 9.26935 59.0016 8.65224 59.2535 7.35503L59.455 6.28452L58.246 6.05783ZM62.931 7.27947L62.6036 8.40035C62.4398 8.96709 62.125 9.10563 61.7346 8.97969C61.3315 8.86634 61.1426 8.60186 61.3064 8.03512L62.5406 3.76567C62.7043 3.21153 63.0192 3.0604 63.4096 3.17375C63.8126 3.28709 63.9889 3.57676 63.8252 4.1435L63.5859 4.98732L64.7698 5.32736L64.9839 4.55911C65.3491 3.29969 64.9209 2.3929 63.6993 2.04027C62.4776 1.68763 61.6338 2.22918 61.2686 3.4886L60.0847 7.59432C59.7195 8.85374 60.1477 9.76053 61.3693 10.1132C62.591 10.4658 63.4348 9.92425 63.8 8.66483L64.1023 7.61951L62.931 7.27947ZM68.1324 4.99991L70.1727 5.93188L70.6639 4.87397L67.4523 3.38785L64.0015 10.8436L67.213 12.3298L67.7042 11.2592L65.664 10.3273L66.6841 8.13587L68.2962 8.87893L68.7873 7.82102L67.1753 7.07796L68.1324 4.99991ZM73.6991 6.47343L72.0492 5.52887L67.9435 12.6446L69.077 13.2869L70.6135 10.6169L71.1424 10.9192C72.2633 11.5741 73.1701 11.2718 73.8376 10.1258L74.3666 9.20638C75.0215 8.06031 74.8326 7.12833 73.6991 6.47343ZM73.1197 7.49357C73.4724 7.69508 73.5731 7.97215 73.2835 8.48851L72.6663 9.54643C72.3767 10.0628 72.087 10.1132 71.7344 9.89907L71.1928 9.5968L72.5908 7.19131L73.1197 7.49357ZM78.1952 9.3953L76.6083 8.24922L71.7848 14.899L73.4346 16.0954C74.4799 16.8637 75.4245 16.6999 76.1675 15.6798L76.558 15.1383C77.0743 14.433 77.2129 13.7655 76.8099 13.1484C77.4396 13.2617 77.9685 12.9847 78.4597 12.292L78.636 12.0653C79.3791 11.0325 79.2783 10.1887 78.1952 9.3953ZM75.4749 13.0098C75.9408 13.3499 76.0038 13.6899 75.563 14.307L75.1348 14.8864C74.7822 15.3776 74.4673 15.4027 74.1147 15.1509L73.5228 14.7101L75.0089 12.6698L75.4749 13.0098ZM77.4773 10.3273C77.8426 10.6043 77.8552 10.9318 77.5151 11.3978L77.2381 11.7756C76.8602 12.3046 76.495 12.3046 76.1046 12.0149L75.689 11.7252L76.9736 9.96204L77.4773 10.3273ZM80.0088 16.6748L81.7846 15.5917L77.7796 19.7603L78.6108 20.5664L84.316 14.6471L83.2833 13.6647L80.1725 15.3776L78.573 16.3473L82.175 12.5942L81.3438 11.8008L75.6512 17.7201L76.6083 18.6395L80.0088 16.6748ZM83.2329 21.1835L82.3387 21.9391C81.8853 22.317 81.5579 22.2666 81.2934 21.9517C81.0289 21.6369 81.0163 21.2968 81.4697 20.919L84.8576 18.0475C85.2984 17.6697 85.6384 17.7201 85.9029 18.0349C86.1674 18.3498 86.1674 18.6898 85.7266 19.0803L85.0465 19.647L85.8399 20.579L86.457 20.0626C87.452 19.2062 87.6031 18.2239 86.7845 17.2541C85.9533 16.2843 84.9583 16.2592 83.9508 17.1156L80.6889 19.8737C79.6939 20.7301 79.5428 21.7125 80.3614 22.6822C81.1926 23.652 82.1876 23.6772 83.1951 22.8207L84.0263 22.1155L83.2329 21.1835Z" fill="white"/>
<path d="M12.6281 80.8172L13.4845 81.8248L15.7766 77.4923L19.7312 76.4848L18.9 75.5025L15.0714 76.5352L17.7917 74.2178L16.9479 73.2229L10.7012 78.5629L11.545 79.5452L13.4593 77.908L14.2905 77.7316L12.6281 80.8172ZM20.2854 78.7392L21.91 80.2757L22.7161 79.4319L20.1594 76.9886L14.492 82.9456L17.0487 85.3763L17.8673 84.5325L16.2426 82.9834L17.9051 81.2454L19.1897 82.4671L19.9957 81.6233L18.7111 80.389L20.2854 78.7392ZM18.3459 86.5098L19.9705 87.7566C21.0033 88.5501 21.9478 88.3738 22.7413 87.3284L25.2853 84.0287C26.0787 82.996 26.0158 82.0389 24.9956 81.2454L23.371 79.9986L18.3459 86.5098ZM24.2526 82.1648C24.58 82.4167 24.643 82.7315 24.2903 83.1975L21.6833 86.5854C21.3307 87.0514 21.0033 87.064 20.6758 86.8121L20.0965 86.3713L23.6732 81.7114L24.2526 82.1648ZM27.5271 84.5073L29.4666 85.6156L30.0459 84.5955L26.9729 82.8449L22.905 89.9858L25.978 91.7364L26.5573 90.7163L24.6178 89.608L25.8017 87.5174L27.3507 88.3989L27.9301 87.3788L26.3936 86.4972L27.5271 84.5073ZM29.9955 93.7263L31.2046 94.293L34.6806 86.8499L33.6353 86.3587L31.5572 90.817L32.4388 85.7919L30.9653 85.0993L27.4767 92.5424L28.5346 93.0336L31.0534 87.6433L29.9955 93.7263ZM34.7813 88.0967L36.066 88.5249L33.8746 95.2124L35.0962 95.6154L37.3002 88.9279L38.5848 89.3435L38.95 88.2352L35.1466 86.9758L34.7813 88.0967ZM41.7711 97.1897C41.7082 96.8623 41.7459 96.5726 41.8215 96.1822L42.0482 94.9354C42.2119 94.0915 42.1112 93.4492 41.5193 93.0588C42.1364 92.8951 42.5142 92.4039 42.6653 91.5727L42.7787 90.943C43.018 89.6962 42.5646 88.9783 41.2422 88.739L39.3153 88.3738L37.8165 96.4593L39.0886 96.6859L39.6931 93.3989L40.1339 93.487C40.7132 93.5878 40.9273 93.9152 40.7888 94.6709L40.5495 95.9303C40.4236 96.5978 40.4487 96.7237 40.4739 96.9504L41.7711 97.1897ZM40.9903 89.8851C41.4437 89.9606 41.5948 90.2503 41.4815 90.8296L41.3303 91.6231C41.217 92.278 40.8895 92.4291 40.411 92.3409L39.9198 92.2528L40.3732 89.7717L40.9903 89.8851ZM47.1615 89.545L45.2723 89.3309L43.0432 97.3408L44.227 97.4794L44.6174 96.0185L46.2043 96.1948L46.2547 97.7061L47.5519 97.8572L47.1615 89.545ZM45.9902 90.8674L46.1539 95.0739L44.9071 94.9354L45.9902 90.8674ZM51.8465 97.7187L53.1689 97.6683L52.8667 89.4569L51.7206 89.4946L51.8969 94.4064L50.3856 89.545L48.7609 89.608L49.0632 97.8194L50.2345 97.7691L50.0078 91.8246L51.8465 97.7187ZM53.9246 91.346C54.2646 93.6633 56.8212 93.6004 57.0731 95.2754C57.1613 95.8547 56.9346 96.1066 56.5316 96.1696C56.116 96.2326 55.8263 96.0562 55.7507 95.4769L55.6626 94.8976L54.4409 95.0739L54.5165 95.5777C54.718 96.8749 55.4863 97.5172 56.7331 97.3283C57.9925 97.1393 58.5341 96.3081 58.3451 94.9983C57.9925 92.681 55.4359 92.744 55.184 91.0689C55.1084 90.4896 55.2973 90.2377 55.7129 90.1747C56.116 90.1118 56.3804 90.3007 56.4686 90.88L56.519 91.2201L57.7406 91.0311L57.6902 90.7793C57.5013 89.482 56.7457 88.8271 55.4988 89.0161C54.252 89.205 53.7231 90.0488 53.9246 91.346ZM58.5844 90.5274C59.1512 92.8069 61.6826 92.5047 62.0982 94.1419C62.2368 94.7087 62.0353 94.9857 61.6322 95.0739C61.2292 95.1746 60.927 95.0361 60.7884 94.4694L60.6499 93.89L59.4534 94.1923L59.5794 94.6835C59.8942 95.9555 60.7129 96.5222 61.9471 96.22C63.1813 95.9177 63.6473 95.0361 63.3325 93.7515C62.7657 91.4719 60.2343 91.7742 59.8313 90.1369C59.6927 89.5576 59.869 89.2931 60.2595 89.1924C60.6625 89.0916 60.9521 89.2554 61.0907 89.8221L61.1662 90.1495L62.3627 89.8599L62.2997 89.608C61.9849 88.336 61.1788 87.7566 59.9446 88.0589C58.723 88.3612 58.2696 89.2428 58.5844 90.5274ZM63.8614 88.1471L65.9269 87.2907L65.4735 86.2076L62.2116 87.5677L65.3853 95.1495L68.6472 93.7767L68.1938 92.6936L66.1284 93.5626L65.1964 91.346L66.8337 90.6533L66.3803 89.5702L64.743 90.2629L63.8614 88.1471ZM73.7605 91.1823C73.496 90.9808 73.3449 90.7289 73.1434 90.3888L72.5262 89.2805C72.098 88.5375 71.6069 88.0967 70.9142 88.1848C71.2794 87.6685 71.2416 87.0514 70.826 86.3209L70.5112 85.7542C69.8815 84.6585 69.0754 84.394 67.9042 85.0615L66.2039 86.0186L70.2593 93.1722L71.3802 92.5299L69.7303 89.6206L70.1207 89.4065C70.6371 89.1168 71.0023 89.2302 71.3802 89.8977L72.0099 91.0185C72.3373 91.5979 72.4507 91.686 72.6144 91.8372L73.7605 91.1823ZM68.4583 86.0942C68.8487 85.8675 69.151 85.9934 69.4407 86.5098L69.8437 87.2151C70.1711 87.7818 70.02 88.1093 69.5918 88.3486L69.151 88.6005L67.9168 86.4091L68.4583 86.0942ZM71.2164 83.122L70.1459 83.8776L75.9141 89.8599L77.4884 88.739L73.7983 81.2958L72.8285 81.9759L75.8763 88.0337L71.2164 83.122ZM79.7427 87.1017L80.7251 86.2579L75.3725 80.0238L74.3902 80.8676L79.7427 87.1017ZM81.7074 81.1447L82.5638 81.9633C82.9921 82.3663 82.9669 82.6938 82.6772 82.996C82.3875 83.2983 82.0601 83.3361 81.6319 82.9331L78.4203 79.8727C77.9921 79.4696 78.0047 79.1296 78.2944 78.8273C78.5841 78.5251 78.9241 78.4999 79.3397 78.9029L79.982 79.5074L80.8258 78.6132L80.2465 78.0717C79.2893 77.1649 78.2944 77.1271 77.4128 78.0465C76.5438 78.9659 76.632 79.9608 77.5891 80.8676L80.6873 83.8146C81.6319 84.7214 82.6394 84.7592 83.5084 83.8398C84.39 82.9079 84.3018 81.9129 83.3447 81.0061L82.5513 80.2631L81.7074 81.1447ZM81.2289 75.7166L82.6268 73.966L81.7074 73.2355L79.5034 76.0062L85.9391 81.1195L88.1431 78.3613L87.2237 77.6309L85.8258 79.3815L83.9492 77.8828L85.0575 76.4848L84.1381 75.7543L83.0298 77.1523L81.2289 75.7166Z" fill="white"/>
<path fill-rule="evenodd" clip-rule="evenodd" d="M41.8457 36.964L40.813 35.9313L41.5183 35.2386L40.1203 33.8406L39.415 34.5333L37.9289 33.0472L38.6342 32.3545L37.2362 30.9566L36.531 31.6492L35.0448 30.1631L35.7501 29.4704L34.3522 28.0725C35.3471 27.342 36.3924 26.7123 37.4503 26.133C37.5511 26.0826 37.6267 26.0448 37.7022 25.9692C37.9037 25.7677 37.9037 25.4403 37.7022 25.2388C37.5133 25.0499 37.2362 25.075 36.9843 25.075H27.0475C26.6823 25.075 26.2667 24.9995 25.9896 25.2891C25.6999 25.5662 25.7755 25.9818 25.7755 26.3471V36.2839C25.7755 36.5358 25.7503 36.8129 25.9392 37.0018C26.1407 37.2033 26.4682 37.2033 26.6697 37.0018C26.7452 36.9262 26.783 36.8507 26.8334 36.7625C27.4127 35.692 28.0424 34.6467 28.7729 33.6517L30.1709 35.0497L30.8636 34.3444L32.3497 35.8431L31.657 36.5358L33.0549 37.9338L33.7476 37.2285L35.2338 38.7272L34.5411 39.4199L35.939 40.8178L36.6317 40.1126L37.6644 41.1453C37.9289 40.7297 38.2312 40.3267 38.546 39.9362L37.677 39.0672L39.7677 36.9766L40.6367 37.8456C41.0271 37.5307 41.4301 37.2411 41.8457 36.964ZM33.9995 31.2084L35.4856 32.6946L33.395 34.7978L31.9089 33.2991L33.9995 31.2084ZM36.8836 34.0925L38.3697 35.5786L36.2791 37.6819L34.793 36.1832L36.8836 34.0925Z" fill="white"/>
<path fill-rule="evenodd" clip-rule="evenodd" d="M35.7641 45.7423H33.9883V44.7474H32.0236V45.7423H29.9077V44.7474H27.943V45.7423H25.8398V44.7474H23.8625C24.0514 43.5258 24.3411 42.3419 24.6811 41.1832C24.7189 41.0825 24.7441 40.9943 24.7441 40.8936C24.7441 40.6039 24.5174 40.3772 24.2277 40.3772C23.9633 40.3772 23.7869 40.6039 23.598 40.7676L16.5704 47.7952C16.3186 48.0471 15.9785 48.299 15.9785 48.702C15.9785 49.0924 16.3186 49.3443 16.5704 49.5962L23.598 56.6238C23.7869 56.8001 23.9633 57.0142 24.2277 57.0142C24.5174 57.0142 24.7441 56.7875 24.7441 56.4978C24.7441 56.3971 24.7189 56.3089 24.6811 56.2081C24.3411 55.0495 24.0514 53.8656 23.8625 52.644H25.8398V51.649H27.943V52.644H29.9077V51.649H32.0236V52.644H33.9883V51.649H35.7641C35.6633 51.1705 35.5751 50.6793 35.5248 50.1755H33.9883V47.2159H35.5248C35.5751 46.7121 35.6633 46.2209 35.7641 45.7423ZM25.8398 47.2159H27.943V50.1755H25.8398V47.2159ZM29.9077 47.2159H32.0236V50.1755H29.9077V47.2159Z" fill="white"/>
<path fill-rule="evenodd" clip-rule="evenodd" d="M41.8488 60.4271L40.5894 61.6866L41.2821 62.3918L39.8967 63.7772L39.1914 63.0845L37.7053 64.5706L38.398 65.2633L37.0126 66.6613L36.3074 65.9686L34.8212 67.4547L35.5139 68.1474L34.1286 69.5454C35.1235 70.2758 36.1688 70.9055 37.2267 71.4975C37.3149 71.5352 37.4031 71.573 37.4786 71.6486C37.6801 71.8501 37.6801 72.1776 37.4786 72.3791C37.2897 72.568 37.0126 72.5428 36.7608 72.5554H26.8239C26.4587 72.5554 26.0431 72.6183 25.7534 72.3413C25.4763 72.0516 25.5519 71.636 25.5519 71.2708V61.3339C25.5519 61.0946 25.5267 60.805 25.7156 60.616C25.9171 60.4145 26.2446 60.4145 26.4461 60.616C26.5216 60.6916 26.5594 60.7798 26.5972 60.8679C27.1891 61.9258 27.8189 62.9712 28.5493 63.9661L29.9473 62.5807L30.64 63.2734L32.1261 61.7873L31.4334 61.082L32.8314 59.6967L33.524 60.3894L35.0102 58.9032L34.3175 58.198L35.7154 56.8126L36.4081 57.5053L37.6675 56.2458C37.932 56.6615 38.2343 57.0645 38.5491 57.4549L37.4534 58.5506L39.5441 60.6412L40.6398 59.5455C41.0302 59.8604 41.4332 60.1627 41.8488 60.4271ZM33.7759 66.4094L35.262 64.9233L33.1714 62.8326L31.6853 64.3188L33.7759 66.4094ZM36.66 63.5253L38.1461 62.0392L36.0555 59.9486L34.5694 61.4347L36.66 63.5253Z" fill="white"/>
<path fill-rule="evenodd" clip-rule="evenodd" d="M43.144 57.3667C40.4488 55.4272 38.6982 52.266 38.6982 48.7018C38.6982 45.1251 40.4488 41.9639 43.144 40.0244V57.3667Z" fill="white"/>
<path fill-rule="evenodd" clip-rule="evenodd" d="M45.4483 23.4631C44.2267 23.652 43.0428 23.9417 41.8842 24.2817C41.7834 24.3195 41.6952 24.3447 41.5945 24.3447C41.3048 24.3447 41.0781 24.118 41.0781 23.8283C41.0781 23.5638 41.3048 23.3875 41.4685 23.2112L48.4961 16.1836C48.748 15.9191 48.9999 15.5791 49.3903 15.5791C49.7933 15.5791 50.0452 15.9191 50.2971 16.1836L57.3247 23.2112C57.4884 23.3875 57.7151 23.5638 57.7151 23.8283C57.7151 24.118 57.4884 24.3447 57.1987 24.3447C57.098 24.3447 57.0098 24.3195 56.9091 24.2817C55.7504 23.9417 54.5665 23.652 53.3449 23.4631C53.3449 40.3897 53.3449 57.3038 53.3449 74.2304C54.5665 74.0415 55.7504 73.7518 56.9091 73.4118C57.0098 73.3866 57.098 73.3488 57.1987 73.3488C57.4884 73.3488 57.7151 73.5755 57.7151 73.8652C57.7151 74.1297 57.4884 74.306 57.3247 74.4949L50.2971 81.5225C50.0452 81.7744 49.7933 82.1144 49.3903 82.1144C48.9999 82.1144 48.748 81.7744 48.4961 81.5225L41.4685 74.4949C41.3048 74.306 41.0781 74.1297 41.0781 73.8652C41.0781 73.5755 41.3048 73.3488 41.5945 73.3488C41.6952 73.3488 41.7834 73.3866 41.8842 73.4118C43.0428 73.7518 44.2267 74.0415 45.4483 74.2304C45.4483 57.3038 45.4483 40.3897 45.4483 23.4631Z" fill="white"/>
<path fill-rule="evenodd" clip-rule="evenodd" d="M48.1831 44.3442L64.4423 28.0725C63.4473 27.342 62.402 26.7123 61.3315 26.133C61.2433 26.0826 61.1678 26.0448 61.0922 25.9692C60.8907 25.7677 60.8907 25.4403 61.0922 25.2388C61.2811 25.0499 61.5582 25.075 61.8101 25.075H71.7469C72.1121 25.075 72.5278 24.9995 72.8048 25.2891C73.0945 25.5662 73.0189 25.9818 73.0189 26.3471V36.2839C73.0189 36.5358 73.0441 36.8129 72.8552 37.0018C72.6537 37.2033 72.3262 37.2033 72.1247 37.0018C72.0492 36.9262 72.0114 36.8507 71.961 36.7625C71.3817 35.692 70.752 34.6467 70.0215 33.6517L53.7623 49.9109L48.1831 44.3442Z" fill="white"/>
<path fill-rule="evenodd" clip-rule="evenodd" d="M48.1831 53.0595L64.4423 69.3186C63.4473 70.0491 62.402 70.6788 61.3315 71.2707C61.2433 71.3085 61.1678 71.3463 61.0922 71.4219C60.8907 71.6234 60.8907 71.9508 61.0922 72.1523C61.2811 72.3412 61.5582 72.316 61.8101 72.316H71.7469C72.1121 72.316 72.5278 72.3916 72.8048 72.1145C73.0945 71.8249 73.0189 71.4093 73.0189 71.044V61.1072C73.0189 60.8553 73.0441 60.5782 72.8552 60.3893C72.6537 60.1878 72.3262 60.1878 72.1247 60.3893C72.0492 60.4649 72.0114 60.553 71.961 60.6412C71.3817 61.6991 70.752 62.7444 70.0215 63.7394L53.7623 47.4802L48.1831 53.0595Z" fill="white"/>
<path fill-rule="evenodd" clip-rule="evenodd" d="M63.0811 44.7474H74.9322C74.7433 43.5258 74.4536 42.3419 74.1136 41.1832C74.0758 41.0825 74.0506 40.9943 74.0506 40.8936C74.0506 40.6039 74.2773 40.3772 74.567 40.3772C74.8315 40.3772 75.0078 40.6039 75.1841 40.7676L82.2243 47.7952C82.4762 48.0471 82.8162 48.299 82.8162 48.702C82.8162 49.0924 82.4762 49.3443 82.2243 49.5962L75.1841 56.6238C75.0078 56.8001 74.8315 57.0142 74.567 57.0142C74.2773 57.0142 74.0506 56.7875 74.0506 56.4978C74.0506 56.3971 74.0758 56.3089 74.1136 56.2081C74.4536 55.0495 74.7433 53.8656 74.9322 52.644H63.0811C63.4463 51.3846 63.6352 50.0622 63.6352 48.702C63.6352 47.3292 63.4463 46.0068 63.0811 44.7474Z" fill="white"/>
<path fill-rule="evenodd" clip-rule="evenodd" d="M4.68191 33.9289C7.50301 31.2715 9.83295 28.463 11.8606 25.6293C12.7548 24.521 13.3341 25.2767 12.9689 26.2968C11.6969 29.4454 10.1352 32.3169 7.56598 34.3193C7.89343 35.2765 7.55339 36.1707 6.47029 36.3848C7.06221 38.4125 7.44004 40.1253 6.10505 41.5106C4.99676 42.6441 4.36705 41.5484 4.51818 40.7172C4.56856 40.4905 6.52066 37.619 4.71969 37.2538C2.33938 40.2386 1.89858 42.8708 3.27135 47.0647L4.2537 46.3846C5.09751 46.7246 5.75241 47.3544 6.24359 48.2611C5.75241 49.1679 5.09751 49.7976 4.24111 50.1125L3.27135 49.4198C1.87339 53.5885 2.31419 56.2333 4.66931 59.2559C6.48288 58.9159 4.53077 56.0192 4.49299 55.7925C4.34186 54.9487 4.98417 53.8782 6.07986 55.0242C7.41485 56.4222 7.02443 58.135 6.41991 60.1501C7.51561 60.3768 7.84306 61.271 7.50301 62.2281C10.0722 64.281 11.6339 67.1777 12.8807 70.3388C13.246 71.3716 12.6666 72.102 11.7725 70.9811C9.75738 68.1222 7.44004 65.2885 4.63153 62.5808C3.06984 62.2659 2.81796 61.7748 3.12022 60.5405C0.815476 56.6489 0.58878 54.6086 1.29406 50.2258C-0.431352 49.1805 -0.431352 47.2536 1.29406 46.2335C0.613969 41.8381 0.853259 39.8104 3.158 35.944C2.88093 34.7098 3.12022 34.2186 4.68191 33.9289Z" fill="white"/>
<path fill-rule="evenodd" clip-rule="evenodd" d="M94.2033 33.9289C91.3822 31.2715 89.0648 28.463 87.0246 25.6293C86.1304 24.521 85.5511 25.2767 85.9289 26.2968C87.1883 29.4454 88.75 32.3169 91.3318 34.3193C90.9918 35.2765 91.3318 36.1707 92.4149 36.3848C91.823 38.4125 91.4452 40.1253 92.7927 41.5106C93.8884 42.6441 94.5182 41.5484 94.367 40.7172C94.3292 40.4905 92.3645 37.619 94.1781 37.2538C96.5458 40.2386 96.9866 42.8708 95.6138 47.0647L94.6315 46.3846C93.7877 46.7246 93.1328 47.3544 92.6416 48.2611C93.1328 49.1679 93.8003 49.7976 94.6441 50.1125L95.6138 49.4198C97.0118 53.5885 96.5836 56.2333 94.2159 59.2559C92.4149 58.9159 94.3544 56.0192 94.3922 55.7925C94.5559 54.9487 93.9136 53.8782 92.8179 55.0242C91.4829 56.4222 91.8608 58.135 92.4653 60.1501C91.3696 60.3768 91.0421 61.271 91.3822 62.2281C88.813 64.281 87.2639 67.1777 86.0045 70.3388C85.6392 71.3716 86.2186 72.102 87.1127 70.9811C89.1404 68.1222 91.4452 65.2885 94.2663 62.5808C95.828 62.2659 96.0672 61.7748 95.7776 60.5405C98.0697 56.6489 98.309 54.6086 97.5911 50.2258C99.3291 49.1805 99.3291 47.2536 97.5911 46.2335C98.2838 41.8381 98.0319 39.8104 95.7272 35.944C96.0169 34.7098 95.765 34.2186 94.2033 33.9289Z" fill="white"/>
</svg>
