<svg width="58" height="56" viewBox="0 0 58 56" fill="none" xmlns="http://www.w3.org/2000/svg">
<path d="M56.1875 49.75H51.6562V20.75C51.6562 20.5096 51.5608 20.2791 51.3908 20.1092C51.2209 19.9392 50.9904 19.8438 50.75 19.8438H37.1562V1.71875C37.1562 1.4784 37.0608 1.24789 36.8908 1.07793C36.7209 0.90798 36.4904 0.8125 36.25 0.8125H21.75C21.5096 0.8125 21.2791 0.90798 21.1092 1.07793C20.9392 1.24789 20.8438 1.4784 20.8438 1.71875V12.5938H7.25C7.00965 12.5938 6.77914 12.6892 6.60918 12.8592C6.43923 13.0291 6.34375 13.2596 6.34375 13.5V49.75H1.8125C1.57215 49.75 1.34164 49.8455 1.17168 50.0154C1.00173 50.1854 0.90625 50.4159 0.90625 50.6562V54.2812C0.90625 54.5216 1.00173 54.7521 1.17168 54.9221C1.34164 55.092 1.57215 55.1875 1.8125 55.1875H56.1875C56.4279 55.1875 56.6584 55.092 56.8283 54.9221C56.9983 54.7521 57.0938 54.5216 57.0938 54.2812V50.6562C57.0938 50.4159 56.9983 50.1854 56.8283 50.0154C56.6584 49.8455 56.4279 49.75 56.1875 49.75ZM37.1562 21.6562H49.8438V49.75H37.1562V21.6562ZM22.6562 2.625H35.3438V49.75H22.6562V2.625ZM8.15625 14.4062H20.8438V49.75H8.15625V14.4062ZM55.2812 53.375H2.71875V51.5625H55.2812V53.375Z" fill="white"/>
<path d="M28.0938 6.25V12.5938C28.0938 12.8341 28.1892 13.0646 28.3592 13.2346C28.5291 13.4045 28.7596 13.5 29 13.5C29.2404 13.5 29.4709 13.4045 29.6408 13.2346C29.8108 13.0646 29.9062 12.8341 29.9062 12.5938V5.34375C29.9062 5.1034 29.8108 4.87289 29.6408 4.70293C29.4709 4.53298 29.2404 4.4375 29 4.4375H28.0938C27.8534 4.4375 27.6229 4.53298 27.4529 4.70293C27.283 4.87289 27.1875 5.1034 27.1875 5.34375C27.1875 5.5841 27.283 5.81461 27.4529 5.98457C27.6229 6.15452 27.8534 6.25 28.0938 6.25Z" fill="white"/>
<path d="M41.6875 30.7188C41.4471 30.7188 41.2166 30.8142 41.0467 30.9842C40.8767 31.1541 40.7812 31.3846 40.7812 31.625C40.7812 31.8654 40.8767 32.0959 41.0467 32.2658C41.2166 32.4358 41.4471 32.5312 41.6875 32.5312H45.3125C45.5529 32.5312 45.7834 32.4358 45.9533 32.2658C46.1233 32.0959 46.2188 31.8654 46.2188 31.625V24.375C46.2188 24.1346 46.1233 23.9041 45.9533 23.7342C45.7834 23.5642 45.5529 23.4688 45.3125 23.4688H41.6875C41.4471 23.4688 41.2166 23.5642 41.0467 23.7342C40.8767 23.9041 40.7812 24.1346 40.7812 24.375C40.7812 24.6154 40.8767 24.8459 41.0467 25.0158C41.2166 25.1858 41.4471 25.2812 41.6875 25.2812H44.4062V27.0938H42.5938C42.3534 27.0938 42.1229 27.1892 41.9529 27.3592C41.783 27.5291 41.6875 27.7596 41.6875 28C41.6875 28.2404 41.783 28.4709 41.9529 28.6408C42.1229 28.8108 42.3534 28.9062 42.5938 28.9062H44.4062V30.7188H41.6875Z" fill="white"/>
<path d="M16.3125 16.2188H12.6875C12.4471 16.2188 12.2166 16.3142 12.0467 16.4842C11.8767 16.6541 11.7813 16.8846 11.7813 17.125C11.7813 17.3654 11.8767 17.5959 12.0467 17.7658C12.2166 17.9358 12.4471 18.0312 12.6875 18.0312H15.4062V18.5622L12.0467 21.9217C11.9625 22.0058 11.8958 22.1057 11.8502 22.2157C11.8047 22.3256 11.7812 22.4435 11.7813 22.5625V24.375C11.7813 24.6154 11.8767 24.8459 12.0467 25.0158C12.2166 25.1858 12.4471 25.2812 12.6875 25.2812H16.3125C16.5529 25.2812 16.7834 25.1858 16.9533 25.0158C17.1233 24.8459 17.2188 24.6154 17.2188 24.375C17.2188 24.1346 17.1233 23.9041 16.9533 23.7342C16.7834 23.5642 16.5529 23.4688 16.3125 23.4688H13.5938V22.9378L16.9533 19.5783C17.0375 19.4942 17.1042 19.3943 17.1498 19.2843C17.1953 19.1744 17.2188 19.0565 17.2188 18.9375V17.125C17.2188 16.8846 17.1233 16.6541 16.9533 16.4842C16.7834 16.3142 16.5529 16.2188 16.3125 16.2188Z" fill="white"/>
</svg>
