<svg width="466" height="8" viewBox="0 0 466 8" fill="none" xmlns="http://www.w3.org/2000/svg">
<path d="M465.354 4.35355C465.549 4.15829 465.549 3.84171 465.354 3.64645L462.172 0.464466C461.976 0.269204 461.66 0.269204 461.464 0.464466C461.269 0.659728 461.269 0.976311 461.464 1.17157L464.293 4L461.464 6.82843C461.269 7.02369 461.269 7.34027 461.464 7.53553C461.66 7.7308 461.976 7.7308 462.172 7.53553L465.354 4.35355ZM0.646454 3.64645C0.451172 3.84171 0.451172 4.15829 0.646454 4.35355L3.82843 7.53553C4.02368 7.7308 4.34027 7.7308 4.53552 7.53553C4.7308 7.34027 4.7308 7.02369 4.53552 6.82843L1.70709 4L4.53552 1.17157C4.7308 0.976311 4.7308 0.659728 4.53552 0.464466C4.34027 0.269204 4.02368 0.269204 3.82843 0.464466L0.646454 3.64645ZM465 3.5L233.928 3.5V4.5L465 4.5V3.5ZM233.928 3.5L1 3.5V4.5L233.928 4.5V3.5Z" fill="white"/>
</svg>
