<svg width="25" height="25" viewBox="0 0 25 25" fill="none" xmlns="http://www.w3.org/2000/svg">
<path d="M12.5 25C19.4036 25 25 19.4036 25 12.5C25 5.59644 19.4036 0 12.5 0C5.59644 0 0 5.59644 0 12.5C0 19.4036 5.59644 25 12.5 25Z" fill="#107BC3"/>
<path fill-rule="evenodd" clip-rule="evenodd" d="M19.4645 18.931L5.56012 18.9638L8.91097 16.2782C9.32161 15.9497 12.2454 13.6254 12.5 13.6254C12.7957 13.6254 16.9842 16.9927 17.748 17.584C18.0191 17.7976 19.2756 18.8406 19.4645 18.9392V18.931ZM7.44086 10.5128C7.7201 10.3896 7.78581 10.792 7.76117 9.37938C7.74474 8.45953 7.67083 5.97103 7.85151 5.34685C8.47569 5.21545 16.5243 5.21545 17.1485 5.34685C17.3292 5.99567 17.247 8.55809 17.2388 9.51078C17.2224 10.7345 17.3292 10.4142 17.5673 10.521C17.9862 10.0775 17.7727 8.91124 17.7727 8.33634C18.2162 8.55809 18.4215 8.76341 18.7746 9.04265C18.9471 9.18227 19.0867 9.2644 19.1935 9.35474C19.6288 9.69968 19.3249 9.2644 19.5795 9.80645C19.0457 10.061 16.8282 11.8432 16.0644 12.451C15.6866 12.7549 15.202 12.9848 15.1445 13.4119C15.588 13.6993 15.9494 13.1984 16.3765 12.8863C17.1649 12.2949 19.3824 10.447 19.8752 10.2499V18.4957C19.251 18.1507 18.635 17.6087 18.0683 17.157L14.4547 14.3482C12.2536 12.5824 12.8942 12.4592 8.76314 15.7526L5.13305 18.4957V10.2417C6.02004 10.6359 9.07523 13.5187 9.69941 13.5187C9.74047 13.4447 9.83081 13.4283 9.73226 13.1491C9.65834 12.9273 7.85151 11.6133 7.68725 11.4819C7.27661 11.1534 6.93167 10.907 6.5046 10.562L5.66688 9.91321C5.37943 9.63398 5.60118 9.9707 5.4205 9.57648C6.1268 9.23154 6.47175 8.71413 7.23554 8.32813C7.23554 8.76341 7.22733 9.19869 7.22733 9.63398C7.22733 10.2171 7.15341 10.2171 7.44086 10.5128ZM12.5 4.24633C12.9024 4.40237 12.8532 4.4188 13.0995 4.73089L12.6232 4.75553L12.3768 4.76374L11.9005 4.73089C12.1468 4.4188 12.0976 4.40237 12.5 4.25454V4.24633ZM7.23554 7.40007C7.02201 7.93391 5.09198 9.23154 4.62385 9.60112L4.60742 18.5121C4.68134 19.8426 5.79829 19.4894 8.06504 19.4894H16.9514C17.6905 19.4894 18.4461 19.5059 19.1771 19.4976C20.0148 19.4894 20.3515 19.3991 20.409 18.5121L20.3926 9.60112C20.0476 9.3301 17.8548 7.81893 17.7727 7.40007C17.7727 6.93194 17.8302 5.65894 17.6987 5.28936C17.2963 4.1642 14.8817 5.16617 13.929 4.61591C13.4938 4.36131 13.1077 3.7207 12.5 3.7207C11.9333 3.7207 11.5637 4.27918 11.1449 4.56663C10.2579 5.16617 7.80223 4.21348 7.3341 5.20723C7.1452 5.60966 7.22733 6.87445 7.22733 7.40829L7.23554 7.40007ZM12.7464 12.0157C12.615 11.408 12.5903 11.6626 11.8594 11.4983C11.0135 11.3012 10.1758 10.5949 9.95401 9.5847C9.19842 6.16814 14.1179 5.09225 15.0296 8.21315C15.1856 8.7552 15.3663 10.2417 14.7996 10.4717C13.8469 10.8495 14.1344 9.27261 14.0276 8.74698C13.4198 8.82911 13.7484 8.59915 13.4773 9.23154C12.7464 10.9727 10.8164 9.42865 11.6951 8.31991C12.2536 7.61361 12.615 8.31991 12.7464 7.49863C11.7608 7.12905 10.7014 8.27885 11.0053 9.40401C11.2927 10.4635 12.4836 10.8823 13.5266 10.176C13.7648 10.5292 13.7401 10.8331 14.2658 10.9891C15.8509 11.4737 15.8673 9.3301 15.5305 8.08174C14.5861 4.51735 8.74671 5.42077 9.40374 9.49436C9.60906 10.7591 11.2024 12.6235 12.7464 12.0157Z" fill="white"/>
</svg>
