<svg width="25" height="25" viewBox="0 0 25 25" fill="none" xmlns="http://www.w3.org/2000/svg">
<path d="M12.5 25C19.4036 25 25 19.4036 25 12.5C25 5.59644 19.4036 0 12.5 0C5.59644 0 0 5.59644 0 12.5C0 19.4036 5.59644 25 12.5 25Z" fill="#107BC3"/>
<path fill-rule="evenodd" clip-rule="evenodd" d="M19.8018 17.2637C19.8593 17.929 19.465 18.3807 19.1529 18.8735C18.1346 20.4832 15.8021 19.8097 14.447 19.1938C11.2275 17.7154 7.28534 13.7733 5.80702 10.5538C5.33889 9.53542 4.96931 8.27885 5.23212 7.05513C5.47851 5.89711 7.07181 5.14153 7.73705 5.19902C8.10663 5.80677 9.83955 8.18029 9.94631 8.78805C9.69993 10.0036 5.93022 9.34652 10.7758 14.2168C15.5968 19.0624 15.0383 15.2844 16.2045 15.0463C16.8205 15.1612 19.1694 16.8859 19.7936 17.2637H19.8018ZM8.83758 10.5127C9.37963 9.92142 10.9565 9.37116 10.3159 8.14744C9.88061 7.31794 9.07575 6.29954 8.54191 5.47004C7.74526 4.23811 7.53173 4.36952 5.89737 5.37149C4.84612 6.02031 4.46832 6.7841 4.66543 8.47596C5.24034 13.5762 14.4141 22.2407 18.7423 20.0643C19.2597 19.8015 19.3911 19.4894 19.7196 18.9474C19.9414 18.586 20.4259 17.9454 20.3849 17.4362C20.3274 16.7463 18.9066 16.04 17.9703 15.4158C17.0176 14.7834 16.221 13.9539 15.3011 15.1448C14.9972 15.5308 14.7098 16.2207 14.1595 16.1386C13.2315 15.999 8.88685 12.1225 8.82936 10.5045L8.83758 10.5127ZM18.3152 11.9336C19.1529 11.334 17.7485 8.87017 17.264 8.34455C16.7712 7.8025 14.8166 6.38167 13.6093 6.72661C12.1227 7.14547 15.0958 7.0387 16.5823 8.41847C17.0012 8.80447 17.3954 9.29724 17.6664 9.92142C18.2331 11.2519 17.7403 11.6215 18.3152 11.9336ZM13.33 8.53345C13.6175 8.9523 14.0281 8.79626 14.6194 9.01801C16.7876 9.83929 16.0403 11.6708 16.8041 11.9336C17.4118 11.178 16.4098 9.72431 15.9664 9.28082C15.4818 8.79626 14.8001 8.41025 14.0938 8.3117C13.3054 8.20493 13.5928 8.32812 13.3382 8.53345H13.33ZM13.3547 10.0118C13.5271 10.677 14.0692 10.2664 14.5455 10.8166C14.8494 11.178 14.7508 11.9418 15.2108 11.8925C15.3997 11.6461 15.3422 12.2375 15.375 11.4901C15.4161 10.6113 14.1924 9.48614 13.3464 10.0118H13.3547Z" fill="white"/>
</svg>
