<svg width="116" height="125" viewBox="0 0 116 125" fill="none" xmlns="http://www.w3.org/2000/svg">
<path d="M58 124.515L48.1846 114.699H67.8153L58 124.515Z" fill="#D39C00"/>
<path d="M116 58.4844C116 90.5169 90.0325 114 58 114C25.9675 114 0 90.5169 0 58.4844C0 26.4519 25.9675 0.484375 58 0.484375C90.0325 0.484375 116 26.4519 116 58.4844Z" fill="#EBEBEB"/>
<circle cx="58.0002" cy="58.4846" r="50.8615" fill="white"/>
<path d="M45.104 59.304H42.848C42.016 59.304 41.376 59.64 40.928 60.312C40.512 60.984 40.064 61.32 39.584 61.32H35.6C34.928 61.32 34.592 61 34.592 60.36V45.144C34.592 44.472 34.928 44.136 35.6 44.136H52.304C52.976 44.136 53.312 44.472 53.312 45.144V48.792C53.312 49.464 52.976 49.8 52.304 49.8H40.688V56.856C41.232 55.256 42.576 54.456 44.72 54.456H46.736C51.696 54.456 54.176 56.936 54.176 61.896V67.176C54.176 69.672 53.488 71.608 52.112 72.984C50.736 74.328 48.8 75 46.304 75H42.08C39.552 75 37.6 74.328 36.224 72.984C34.848 71.64 34.16 69.704 34.16 67.176V66.216C34.16 65.512 34.496 65.16 35.168 65.16H39.248C39.92 65.16 40.256 65.512 40.256 66.216V67.128C40.256 68.12 40.464 68.84 40.88 69.288C41.328 69.704 42.048 69.912 43.04 69.912H45.296C46.32 69.912 47.072 69.704 47.552 69.288C48.032 68.84 48.272 68.12 48.272 67.128V62.808C48.272 61.464 48.048 60.552 47.6 60.072C47.152 59.56 46.32 59.304 45.104 59.304ZM58.5373 73.992V69.432C58.5373 67.608 59.3213 66.056 60.8893 64.776L69.7213 57.288C71.1613 56.104 71.8813 54.824 71.8813 53.448V52.008C71.8813 51.016 71.6413 50.312 71.1613 49.896C70.7133 49.448 69.9613 49.224 68.9053 49.224H67.2253C66.2013 49.224 65.4813 49.448 65.0653 49.896C64.6493 50.312 64.4413 51.016 64.4413 52.008V53.544C64.4413 54.248 64.1053 54.6 63.4333 54.6H59.3533C58.6813 54.6 58.3453 54.248 58.3453 53.544V51.912C58.3453 49.416 59.0333 47.496 60.4093 46.152C61.7853 44.808 63.7373 44.136 66.2653 44.136H69.9133C72.4413 44.136 74.3933 44.808 75.7693 46.152C77.1453 47.496 77.8333 49.416 77.8333 51.912V53.832C77.8333 56.328 76.8733 58.392 74.9533 60.024L65.9293 67.704C65.5453 68.056 65.3533 68.44 65.3533 68.856V69.624H76.8253C77.4973 69.624 77.8333 69.96 77.8333 70.632V73.992C77.8333 74.664 77.4973 75 76.8253 75H59.5453C58.8733 75 58.5373 74.664 58.5373 73.992Z" fill="#D39C00"/>
<path fill-rule="evenodd" clip-rule="evenodd" d="M58.0002 109.345C86.0903 109.345 108.862 86.5734 108.862 58.4833L116 58.4833C116 66.1948 114.462 73.8289 111.477 80.939C108.491 88.049 104.117 94.4923 98.6119 99.892C93.1064 105.292 86.5793 109.539 79.4126 112.386C75.3047 114.018 71.0339 115.171 66.6847 115.829L67.8154 114.699H48.1846L49.3154 115.829C44.2212 115.058 39.2412 113.609 34.5098 111.514C27.4591 108.39 21.102 103.893 15.8103 98.2832C10.5187 92.6738 6.39873 86.0655 3.69153 78.8448C0.984339 71.6242 -0.255763 63.9361 0.0437728 56.2305L7.17634 56.5077C7.1513 57.1632 7.13867 57.8218 7.13867 58.4833C7.13867 86.5734 29.9102 109.345 58.0002 109.345Z" fill="#D39C00"/>
</svg>
