<svg width="153" height="110" viewBox="0 0 153 110" fill="none" xmlns="http://www.w3.org/2000/svg">
<path fill-rule="evenodd" clip-rule="evenodd" d="M38.2114 25.2436L2.01469 49.2235C1.4213 49.6074 0.618484 49.4678 0.234526 48.8744C-0.149431 48.281 -0.00981047 47.4782 0.583579 47.0943L36.7803 23.1143C37.3737 22.7304 38.1765 22.87 38.5605 23.4634C38.9445 24.0568 38.8048 24.8596 38.2114 25.2436Z" fill="#4A4A4A"/>
<path fill-rule="evenodd" clip-rule="evenodd" d="M66.3442 107.725V4.23046C66.3442 3.53235 66.9376 2.93896 67.6357 2.93896C68.3338 2.93896 68.9272 3.53235 68.9272 4.23046V107.725C68.9272 108.423 68.3338 109.016 67.6357 109.016C66.9376 109.016 66.3442 108.423 66.3442 107.725Z" fill="#4A4A4A"/>
<path fill-rule="evenodd" clip-rule="evenodd" d="M1.56107 93.1691L36.9899 100.255C37.688 100.394 38.1418 101.093 38.0022 101.791C37.8625 102.489 37.1644 102.943 36.4663 102.803L1.03749 95.7172C0.339386 95.5776 -0.114382 94.8795 0.0252391 94.1814C0.16486 93.4832 0.862965 93.0295 1.56107 93.1691Z" fill="#4A4A4A"/>
<path fill-rule="evenodd" clip-rule="evenodd" d="M2.60765 48.1415V94.4258C2.60765 95.1239 2.01426 95.7173 1.31615 95.7173C0.618048 95.7173 0.0246582 95.1239 0.0246582 94.4258V48.1415C0.0246582 47.4434 0.618048 46.85 1.31615 46.85C2.01426 46.85 2.60765 47.4434 2.60765 48.1415Z" fill="#4A4A4A"/>
<path fill-rule="evenodd" clip-rule="evenodd" d="M136.679 24.7548V101.372C136.679 102.07 136.086 102.663 135.388 102.663C134.69 102.663 134.096 102.07 134.096 101.372V24.7548C134.096 24.0566 134.69 23.4633 135.388 23.4633C136.086 23.4633 136.679 24.0566 136.679 24.7548Z" fill="#4A4A4A"/>
<path fill-rule="evenodd" clip-rule="evenodd" d="M135.038 26.0113L67.2525 5.48701C66.5544 5.27758 66.1704 4.54457 66.3798 3.88137C66.5893 3.18326 67.3223 2.79931 67.9855 3.00874L135.771 23.533C136.47 23.7425 136.854 24.4755 136.644 25.1387C136.435 25.8368 135.702 26.2207 135.038 26.0113Z" fill="#4A4A4A"/>
<path fill-rule="evenodd" clip-rule="evenodd" d="M135.528 102.663L67.7418 108.981C67.0437 109.051 66.4154 108.527 66.3456 107.829C66.2758 107.131 66.7994 106.503 67.4975 106.433L135.283 100.115C135.982 100.045 136.61 100.569 136.68 101.267C136.75 101.965 136.226 102.594 135.528 102.663Z" fill="#4A4A4A"/>
<path fill-rule="evenodd" clip-rule="evenodd" d="M135.283 102.663L71.7553 96.8342C71.0572 96.7644 70.5336 96.1361 70.6034 95.438C70.6732 94.7399 71.3015 94.2163 71.9996 94.2861L135.527 100.115C136.225 100.185 136.749 100.813 136.679 101.511C136.609 102.21 135.981 102.733 135.283 102.663Z" fill="#4A4A4A"/>
<path fill-rule="evenodd" clip-rule="evenodd" d="M135.807 25.9764L72.8728 44.9998C72.1747 45.2092 71.4766 44.8602 71.2322 44.1621C71.0228 43.4989 71.3719 42.731 72.07 42.5215L135.004 23.4982C135.702 23.2887 136.4 23.6378 136.645 24.3359C136.854 24.9991 136.505 25.7321 135.807 25.9764Z" fill="#4A4A4A"/>
<path fill-rule="evenodd" clip-rule="evenodd" d="M67.4272 5.5221L40.9341 2.55515C40.236 2.48534 39.7473 1.78723 39.852 1.08913C39.9567 0.391024 40.6199 -0.0627444 41.318 0.00706608L67.8111 2.97401C68.5092 3.04382 68.9979 3.74193 68.8932 4.44003C68.7885 5.13814 68.1253 5.62681 67.4272 5.5221Z" fill="#4A4A4A"/>
<path fill-rule="evenodd" clip-rule="evenodd" d="M67.4974 109.016L40.725 106.503C40.0269 106.433 39.5033 105.805 39.5731 105.107C39.643 104.409 40.2712 103.885 40.9694 103.955L67.7417 106.468C68.4398 106.538 68.9634 107.166 68.8936 107.864C68.8237 108.562 68.1955 109.086 67.4974 109.016Z" fill="#4A4A4A"/>
<path fill-rule="evenodd" clip-rule="evenodd" d="M42.1557 1.54284V105.177C42.1557 105.875 41.5624 106.468 40.8642 106.468C40.1661 106.468 39.5728 105.875 39.5728 105.177V1.54284C39.5728 0.844732 40.1661 0.251343 40.8642 0.251343C41.5624 0.251343 42.1557 0.844732 42.1557 1.54284Z" fill="#4A4A4A"/>
<path fill-rule="evenodd" clip-rule="evenodd" d="M136.016 23.6381L152.317 32.3295C152.945 32.6785 153.189 33.4464 152.84 34.0747C152.491 34.703 151.723 34.9474 151.095 34.5983L134.794 25.9069C134.166 25.5578 133.922 24.7899 134.271 24.1616C134.62 23.5333 135.388 23.289 136.016 23.6381Z" fill="#4A4A4A"/>
<path fill-rule="evenodd" clip-rule="evenodd" d="M134.794 100.255L150.92 91.6683C151.549 91.3192 152.317 91.5636 152.666 92.1918C153.015 92.8201 152.77 93.5881 152.142 93.9371L136.016 102.524C135.388 102.873 134.62 102.629 134.271 102C133.922 101.372 134.166 100.604 134.794 100.255Z" fill="#4A4A4A"/>
<path fill-rule="evenodd" clip-rule="evenodd" d="M152.84 33.3765V92.7852C152.84 93.4833 152.246 94.0767 151.548 94.0767C150.85 94.0767 150.257 93.4833 150.257 92.7852V33.3765C150.257 32.6784 150.85 32.085 151.548 32.085C152.246 32.085 152.84 32.6784 152.84 33.3765Z" fill="#4A4A4A"/>
<path fill-rule="evenodd" clip-rule="evenodd" d="M7.32029 50.5848V92.0173C7.32029 92.7154 6.7269 93.3088 6.0288 93.3088C5.33069 93.3088 4.7373 92.7154 4.7373 92.0173V50.5848C4.7373 49.8867 5.33069 49.2933 6.0288 49.2933C6.7269 49.2933 7.32029 49.8867 7.32029 50.5848Z" fill="#4A4A4A"/>
<path fill-rule="evenodd" clip-rule="evenodd" d="M14.4414 45.7329C14.4414 61.5101 14.4414 77.3222 14.4414 93.0993C14.4414 93.7974 13.848 94.3908 13.1499 94.3908C12.4518 94.3908 11.8584 93.7974 11.8584 93.0993C11.8584 77.3222 11.8584 61.5101 11.8584 45.7329C11.8584 45.0348 12.4518 44.4414 13.1499 44.4414C13.848 44.4414 14.4414 45.0348 14.4414 45.7329Z" fill="#4A4A4A"/>
<path fill-rule="evenodd" clip-rule="evenodd" d="M21.5971 40.881C21.5971 58.6478 21.5971 76.4145 21.5971 94.1813C21.5971 94.8794 21.0038 95.4728 20.3057 95.4728C19.6075 95.4728 19.0142 94.8794 19.0142 94.1813C19.0142 76.4145 19.0142 58.6478 19.0142 40.881C19.0142 40.1829 19.6075 39.5895 20.3057 39.5895C21.0038 39.5895 21.5971 40.1829 21.5971 40.881Z" fill="#4A4A4A"/>
<path fill-rule="evenodd" clip-rule="evenodd" d="M28.7527 36.0293C28.7527 55.7857 28.7527 75.5421 28.7527 95.2985C28.7527 95.9966 28.1593 96.59 27.4612 96.59C26.7631 96.59 26.1697 95.9966 26.1697 95.2985C26.1697 75.5421 26.1697 55.7857 26.1697 36.0293C26.1697 35.3312 26.7631 34.7379 27.4612 34.7379C28.1593 34.7379 28.7527 35.3312 28.7527 36.0293Z" fill="#4A4A4A"/>
<path fill-rule="evenodd" clip-rule="evenodd" d="M35.9075 31.2124V96.4154C35.9075 97.1135 35.3141 97.7069 34.616 97.7069C33.9179 97.7069 33.3245 97.1135 33.3245 96.4154V31.2124C33.3245 30.5143 33.9179 29.9209 34.616 29.9209C35.3141 29.9209 35.9075 30.5143 35.9075 31.2124Z" fill="#4A4A4A"/>
<path fill-rule="evenodd" clip-rule="evenodd" d="M75.001 50.8288V92.2614C75.001 92.9595 74.4076 93.5529 73.7095 93.5529C73.0114 93.5529 72.418 92.9595 72.418 92.2614V50.8288C72.418 50.1307 73.0114 49.5374 73.7095 49.5374C74.4076 49.5374 75.001 50.1307 75.001 50.8288Z" fill="#4A4A4A"/>
<path fill-rule="evenodd" clip-rule="evenodd" d="M81.9472 48.3511C81.9472 63.1509 81.9472 77.9507 81.9472 92.7506C81.9472 93.4487 81.3539 94.042 80.6558 94.042C79.9576 94.042 79.3643 93.4487 79.3643 92.7506C79.3643 77.9507 79.3643 63.1509 79.3643 48.3511C79.3643 47.653 79.9576 47.0596 80.6558 47.0596C81.3539 47.0596 81.9472 47.653 81.9472 48.3511Z" fill="#4A4A4A"/>
<path fill-rule="evenodd" clip-rule="evenodd" d="M88.9282 45.9078C88.9282 61.6849 88.9282 77.497 88.9282 93.2742C88.9282 93.9723 88.3348 94.5657 87.6367 94.5657C86.9386 94.5657 86.3452 93.9723 86.3452 93.2742C86.3452 77.497 86.3452 61.6849 86.3452 45.9078C86.3452 45.2097 86.9386 44.6163 87.6367 44.6163C88.3348 44.6163 88.9282 45.2097 88.9282 45.9078Z" fill="#4A4A4A"/>
<path fill-rule="evenodd" clip-rule="evenodd" d="M95.875 43.4645C95.875 60.2539 95.875 77.0084 95.875 93.7979C95.875 94.496 95.2816 95.0894 94.5835 95.0894C93.8854 95.0894 93.292 94.496 93.292 93.7979C93.292 77.0084 93.292 60.2539 93.292 43.4645C93.292 42.7664 93.8854 42.173 94.5835 42.173C95.2816 42.173 95.875 42.7664 95.875 43.4645Z" fill="#4A4A4A"/>
<path fill-rule="evenodd" clip-rule="evenodd" d="M102.82 41.0207C102.82 58.7875 102.82 76.5543 102.82 94.3211C102.82 95.0192 102.227 95.6126 101.529 95.6126C100.831 95.6126 100.237 95.0192 100.237 94.3211C100.237 76.5543 100.237 58.7875 100.237 41.0207C100.237 40.3226 100.831 39.7292 101.529 39.7292C102.227 39.7292 102.82 40.3226 102.82 41.0207Z" fill="#4A4A4A"/>
<path fill-rule="evenodd" clip-rule="evenodd" d="M109.767 38.5428C109.767 57.3219 109.767 76.066 109.767 94.845C109.767 95.5431 109.173 96.1365 108.475 96.1365C107.777 96.1365 107.184 95.5431 107.184 94.845C107.184 76.066 107.184 57.3219 107.184 38.5428C107.184 37.8447 107.777 37.2513 108.475 37.2513C109.173 37.2513 109.767 37.8447 109.767 38.5428Z" fill="#4A4A4A"/>
<path fill-rule="evenodd" clip-rule="evenodd" d="M116.748 36.0994C116.748 55.8557 116.748 75.6121 116.748 95.3685C116.748 96.0666 116.155 96.66 115.457 96.66C114.758 96.66 114.165 96.0666 114.165 95.3685C114.165 75.6121 114.165 55.8557 114.165 36.0994C114.165 35.4013 114.758 34.8079 115.457 34.8079C116.155 34.8079 116.748 35.4013 116.748 36.0994Z" fill="#4A4A4A"/>
<path fill-rule="evenodd" clip-rule="evenodd" d="M123.694 33.6559C123.694 54.3897 123.694 75.1583 123.694 95.892C123.694 96.5901 123.1 97.1835 122.402 97.1835C121.704 97.1835 121.111 96.5901 121.111 95.892C121.111 75.1583 121.111 54.3897 121.111 33.6559C121.111 32.9578 121.704 32.3644 122.402 32.3644C123.1 32.3644 123.694 32.9578 123.694 33.6559Z" fill="#4A4A4A"/>
<path fill-rule="evenodd" clip-rule="evenodd" d="M130.641 31.2124V96.4154C130.641 97.1135 130.047 97.7069 129.349 97.7069C128.651 97.7069 128.058 97.1135 128.058 96.4154V31.2124C128.058 30.5143 128.651 29.9209 129.349 29.9209C130.047 29.9209 130.641 30.5143 130.641 31.2124Z" fill="#4A4A4A"/>
</svg>
