<svg width="147" height="147" viewBox="0 0 147 147" fill="none" xmlns="http://www.w3.org/2000/svg">
<path d="M101.266 122.082C87.8866 129.861 72.6625 131.447 58.856 127.713C45.03 123.978 32.6216 114.922 24.9124 101.416C17.1839 87.909 15.611 72.5448 19.3199 58.5932C23.0288 44.6416 32.0002 32.1219 45.3601 24.3237H45.3795C58.7395 16.5255 73.9636 14.9388 87.7896 18.6927C101.596 22.4274 114.005 31.4833 121.733 44.9705V44.9899C129.442 58.4771 131.015 73.8606 127.326 87.8122C123.617 101.764 114.645 114.284 101.266 122.082ZM60.0988 123.03C72.7208 126.436 86.6439 125.004 98.8581 117.883C111.092 110.762 119.286 99.3064 122.665 86.5545C126.063 73.8026 124.626 59.7349 117.578 47.4087C110.509 35.0631 99.1688 26.7812 86.5468 23.3755C73.9053 19.9505 59.9822 21.4018 47.768 28.5227C35.5538 35.6437 27.3397 47.0991 23.9609 59.851C20.5821 72.6029 21.9997 86.6512 29.068 98.9968C36.1169 111.323 47.4573 119.605 60.0988 123.03Z" fill="#B59028"/>
<path d="M28.5066 32.4506L29.8077 30.9606L22.9724 28.4837L20.6422 22.8141L19.3799 24.2847L21.7102 29.7415L17.71 26.181L16.4478 27.6517L25.5939 35.7788L26.8755 34.3276L24.0598 31.8314L23.6132 30.6316L28.5066 32.4506ZM24.72 21.2661L27.1474 18.9827L25.9628 17.6862L22.118 21.3048L30.4291 30.322L34.2739 26.7229L33.0894 25.4264L30.6427 27.7097L28.2154 25.0781L30.1572 23.2591L28.9727 21.9627L27.0308 23.7816L24.72 21.2661ZM42.1967 22.9302L40.2937 20.1631L39.614 20.6275L33.6331 11.9392L29.2057 15.0352L33.905 22.6786C34.2934 23.2785 34.4681 23.7236 34.4293 24.2654L33.8079 24.6911L35.7109 27.4582L37.245 26.3939L36.3129 25.0394L39.6917 22.6593L40.6238 24.0332L42.1967 22.9302ZM31.6719 15.4416L33.0117 14.5128L38.0023 21.7692L35.9245 23.2204C36.0216 22.7754 35.9245 22.3497 35.4391 21.5563L31.6719 15.4416ZM38.7985 10.8556L41.7112 9.23013L40.8568 7.6821L36.274 10.2557L42.1773 21.0145L46.7795 18.4603L45.925 16.9122L43.0317 18.5377L41.3034 15.3835L43.6142 14.0871L42.7598 12.5584L40.449 13.8549L38.7985 10.8556ZM47.6145 12.3455L49.634 11.4941L51.6535 16.3511L53.4594 15.5964L48.7602 4.23773L46.9348 5.01175L48.9738 9.86869L46.9542 10.7201L44.9347 5.86316L43.1482 6.61783L47.8669 17.9571L49.634 17.2218L47.6145 12.3455ZM51.2846 5.28265L53.207 4.70214L56.2169 14.803L58.0616 14.2612L55.0517 4.14098L56.9936 3.56047L56.4887 1.87699L50.7797 3.59917L51.2846 5.28265ZM61.8288 0.909467L59.0131 1.33518L60.819 13.5259L62.7221 13.2357L62.0424 8.64961L62.9551 8.51416C64.8581 8.22391 65.6348 7.02418 65.3436 5.08915L65.1105 3.50242C64.8193 1.54803 63.7318 0.619212 61.8288 0.909467ZM62.0812 2.651C62.6832 2.5736 63.0522 2.78645 63.1881 3.65722L63.46 5.4955C63.5765 6.36627 63.3046 6.69523 62.6832 6.77263L61.79 6.90808L61.188 2.78645L62.0812 2.651ZM70.9555 0.0193504L68.1592 0.174153L66.8388 12.5777L68.6059 12.481L68.8195 10.2363L71.1885 10.1009L71.6352 12.3068L73.577 12.2101L70.9555 0.0193504ZM69.5768 2.28334L70.839 8.43676L68.9748 8.55286L69.5768 2.28334ZM76.6451 7.12094L78.8394 7.23704L78.5676 12.5003L80.5288 12.5971L81.1502 0.309606L79.189 0.212854L78.9171 5.47615L76.7422 5.36005L76.9947 0.0967518L75.0722 0L74.4703 12.2875L76.3927 12.3842L76.6451 7.12094ZM86.4515 9.07532L86.1214 10.8169C85.966 11.6683 85.5388 11.9198 84.9368 11.8037C84.3349 11.6876 84.0047 11.3006 84.1795 10.4298L85.4029 3.90877C85.5582 3.03801 86.0049 2.78645 86.6068 2.90256C87.2088 3.01866 87.5195 3.40566 87.3641 4.27643L87.1117 5.57291L88.8982 5.92121L89.1312 4.74084C89.4808 2.8058 88.7234 1.50933 86.8787 1.16102C85.0145 0.812715 83.8494 1.72218 83.4804 3.65722L82.2959 9.94609C81.9464 11.8811 82.7037 13.1776 84.5485 13.5259C86.4126 13.8936 87.5778 12.9647 87.9467 11.0297L88.238 9.42363L86.4515 9.07532ZM93.4033 10.9136L92.9178 12.5971C92.6654 13.4485 92.2188 13.642 91.6362 13.4679C91.0342 13.2937 90.7624 12.8873 90.9954 12.0359L92.8207 5.65031C93.0732 4.79889 93.5392 4.58604 94.1218 4.76019C94.7043 4.93434 94.9762 5.36005 94.7432 6.21147L94.3742 7.46924L96.1219 7.9917L96.452 6.83068C96.9957 4.93434 96.3743 3.57982 94.549 3.05736C92.7431 2.5349 91.4809 3.32826 90.9371 5.2246L89.1895 11.378C88.6458 13.2744 89.2672 14.6289 91.0925 15.1513C92.8984 15.6931 94.1606 14.8804 94.7043 12.9841L95.151 11.4167L93.4033 10.9136ZM101.132 7.48859L104.142 8.90117L104.88 7.29509L100.122 5.0698L94.9956 16.2543L99.7532 18.4796L100.491 16.8735L97.4812 15.4609L98.9764 12.1907L101.365 13.3131L102.103 11.7263L99.6949 10.604L101.132 7.48859ZM109.404 9.71389L106.938 8.28196L100.86 18.944L102.53 19.9115L104.802 15.906L105.598 16.3704C107.268 17.3379 108.608 16.8929 109.579 15.1707L110.375 13.7968C111.346 12.0746 111.055 10.6814 109.404 9.71389ZM108.53 11.2232C109.055 11.5328 109.21 11.9585 108.763 12.7132L107.851 14.3193C107.423 15.0739 106.996 15.1513 106.472 14.8417L105.676 14.3773L107.734 10.7782L108.53 11.2232ZM116.065 14.0871L113.715 12.3649L106.55 22.3303L108.996 24.1299C110.55 25.2716 111.948 25.0394 113.055 23.4913L113.637 22.6786C114.395 21.6337 114.608 20.6275 114.006 19.6987C114.938 19.8728 115.715 19.4471 116.453 18.4216L116.725 18.0732C117.832 16.5446 117.676 15.2674 116.065 14.0871ZM112.026 19.4858C112.725 20.0083 112.822 20.5114 112.142 21.4402L111.521 22.311C110.996 23.0463 110.53 23.085 110.006 22.698L109.113 22.0401L111.327 18.9827L112.026 19.4858ZM114.997 15.4803C115.54 15.8867 115.56 16.3704 115.055 17.0864L114.647 17.6475C114.084 18.4409 113.54 18.4409 112.958 18.0152L112.356 17.5701L114.239 14.9385L114.997 15.4803ZM118.744 25.0007L121.385 23.3752L115.443 29.6254L116.686 30.8251L125.133 21.9627L123.618 20.4727L118.997 23.0269L116.628 24.4976L121.968 18.886L120.745 17.6862L112.278 26.5487L113.715 27.9419L118.744 25.0007ZM123.541 31.754L122.22 32.8763C121.541 33.4568 121.055 33.36 120.667 32.8956C120.259 32.4119 120.259 31.9088 120.919 31.3476L125.949 27.0518C126.609 26.4713 127.114 26.5681 127.502 27.0325C127.91 27.4969 127.891 28.0193 127.23 28.5805L126.24 29.4319L127.425 30.8445L128.318 30.0705C129.813 28.7933 130.027 27.3034 128.803 25.8521C127.58 24.4008 126.104 24.3621 124.609 25.6392L119.774 29.7802C118.278 31.0573 118.065 32.5473 119.288 33.9986C120.512 35.4499 121.987 35.4692 123.483 34.2115L124.725 33.1472L123.541 31.754Z" fill="#2C529E"/>
<path d="M18.7398 121.097L20.0214 122.606L23.4196 116.124L29.3034 114.615L28.0412 113.144L22.371 114.692L26.4101 111.209L25.1673 109.738L15.8853 117.73L17.128 119.201L19.9826 116.743L21.2253 116.472L18.7398 121.097ZM30.119 117.982L32.5269 120.304L33.7309 119.026L29.9248 115.369L21.5166 124.29L25.3226 127.947L26.5072 126.67L24.0993 124.367L26.5654 121.755L28.4879 123.593L29.6918 122.316L27.7694 120.478L30.119 117.982ZM27.2451 129.63L29.653 131.507C31.1676 132.688 32.5657 132.417 33.7697 130.869L37.5369 125.935C38.7214 124.367 38.6243 122.935 37.0903 121.755L34.6824 119.878L27.2451 129.63ZM36.0028 123.129C36.4883 123.496 36.5854 123.98 36.0611 124.677L32.1774 129.747C31.6531 130.443 31.1676 130.463 30.6822 130.095L29.8277 129.418L35.1484 122.451L36.0028 123.129ZM40.8574 126.631L43.7314 128.295L44.6052 126.767L40.0419 124.135L34.0027 134.836L38.5661 137.467L39.4205 135.939L36.5271 134.275L38.3136 131.14L40.605 132.456L41.4594 130.927L39.168 129.611L40.8574 126.631ZM44.5275 140.447L46.314 141.299L51.4794 130.153L49.9259 129.418L46.8383 136.074L48.1394 128.566L45.9645 127.521L40.7798 138.667L42.3527 139.422L46.1004 131.353L44.5275 140.447ZM51.6153 132.011L53.5377 132.649L50.2754 142.673L52.1008 143.272L55.3631 133.249L57.2661 133.888L57.8098 132.223L52.159 130.346L51.6153 132.011ZM62.0042 145.633C61.9071 145.149 61.9654 144.724 62.0819 144.124L62.412 142.266C62.645 141.008 62.5091 140.022 61.6352 139.46C62.5479 139.209 63.0916 138.474 63.3247 137.235L63.4994 136.287C63.849 134.41 63.1693 133.326 61.208 132.959L58.3535 132.436L56.1204 144.53L58.0234 144.898L58.9361 139.964L59.5769 140.08C60.4313 140.254 60.742 140.738 60.5284 141.86L60.1789 143.756C60.0041 144.743 60.0429 144.956 60.0818 145.285L62.0042 145.633ZM60.8391 134.681C61.5187 134.816 61.7323 135.242 61.577 136.113L61.3634 137.313C61.1692 138.28 60.6837 138.512 59.9847 138.377L59.2468 138.241L59.9264 134.507L60.8391 134.681ZM70.0046 134.178L67.2084 133.868L63.8878 145.865L65.6549 146.078L66.2374 143.892L68.5676 144.163L68.6647 146.407L70.5872 146.639L70.0046 134.178ZM68.2764 136.171L68.5094 142.46L66.6646 142.266L68.2764 136.171ZM76.9564 146.427L78.9371 146.349L78.4711 134.042L76.7623 134.12L77.0341 141.473L74.7816 134.178L72.3737 134.275L72.8203 146.581L74.5485 146.523L74.2379 137.603L76.9564 146.427ZM80.044 136.887C80.5489 140.37 84.3355 140.273 84.7238 142.769C84.8404 143.64 84.5102 144.008 83.9083 144.105C83.3063 144.201 82.8791 143.95 82.7432 143.079L82.6072 142.208L80.8207 142.479L80.9178 143.234C81.2091 145.169 82.3548 146.136 84.219 145.846C86.0831 145.575 86.8987 144.317 86.6074 142.363C86.0831 138.88 82.2965 138.977 81.9276 136.48C81.7916 135.61 82.0829 135.223 82.6849 135.126C83.3063 135.029 83.6947 135.319 83.8306 136.19L83.8888 136.693L85.6948 136.422L85.6365 136.035C85.3452 134.081 84.2384 133.114 82.3742 133.404C80.5294 133.675 79.7527 134.932 80.044 136.887ZM86.957 135.648C87.792 139.054 91.5592 138.609 92.1611 141.067C92.3747 141.937 92.0835 142.324 91.4815 142.479C90.8795 142.634 90.4329 142.402 90.2193 141.55L90.0251 140.699L88.258 141.144L88.4328 141.879C88.8988 143.795 90.1222 144.646 91.9475 144.182C93.7923 143.737 94.4719 142.402 94.0059 140.486C93.1709 137.08 89.4037 137.525 88.8017 135.068C88.5881 134.216 88.86 133.81 89.462 133.655C90.0445 133.501 90.4717 133.752 90.6659 134.603L90.8018 135.087L92.5689 134.662L92.4718 134.275C92.0058 132.359 90.8018 131.507 88.9765 131.952C87.1706 132.417 86.4909 133.733 86.957 135.648ZM94.7826 132.088L97.8508 130.791L97.1711 129.166L92.3359 131.217L97.0546 142.576L101.89 140.525L101.21 138.919L98.142 140.215L96.7633 136.887L99.21 135.842L98.5304 134.236L96.1031 135.261L94.7826 132.088ZM109.482 136.635C109.094 136.345 108.861 135.958 108.57 135.455L107.638 133.791C107.016 132.668 106.298 132.03 105.249 132.146C105.812 131.372 105.754 130.443 105.133 129.36L104.667 128.508C103.735 126.863 102.531 126.476 100.802 127.463L98.2585 128.914L104.278 139.615L105.948 138.667L103.502 134.294L104.084 133.965C104.841 133.539 105.385 133.713 105.948 134.7L106.9 136.384C107.385 137.254 107.541 137.39 107.774 137.622L109.482 136.635ZM101.599 129.011C102.2 128.682 102.647 128.876 103.074 129.63L103.676 130.695C104.162 131.546 103.929 132.049 103.307 132.398L102.647 132.765L100.802 129.476L101.599 129.011ZM105.696 124.561L104.104 125.683L112.686 134.662L115.017 132.978L109.541 121.813L108.104 122.858L112.628 131.914L105.696 124.561ZM118.357 130.521L119.813 129.263L111.89 119.917L110.415 121.174L118.357 130.521ZM121.289 121.6L122.551 122.819C123.172 123.419 123.134 123.922 122.726 124.367C122.299 124.812 121.813 124.89 121.172 124.27L116.395 119.704C115.774 119.085 115.793 118.581 116.221 118.136C116.628 117.672 117.133 117.633 117.774 118.233L118.726 119.143L119.968 117.807L119.114 116.995C117.696 115.64 116.221 115.582 114.92 116.956C113.619 118.33 113.755 119.839 115.153 121.194L119.755 125.606C121.172 126.96 122.648 127.018 123.949 125.625C125.25 124.251 125.134 122.761 123.716 121.407L122.532 120.265L121.289 121.6ZM120.57 113.473L122.648 110.841L121.289 109.758L118.007 113.899L127.561 121.561L130.823 117.42L129.464 116.317L127.386 118.949L124.59 116.704L126.241 114.615L124.881 113.512L123.231 115.601L120.57 113.473Z" fill="#2C529E"/>
<path fill-rule="evenodd" clip-rule="evenodd" d="M62.1195 55.4006L60.5855 53.8526L61.6147 52.8077L59.5563 50.7178L58.5077 51.7627L56.294 49.5181L57.3426 48.4732L55.2648 46.3833L54.2356 47.4283L52.0219 45.203L53.0511 44.158L50.9928 42.0682C52.4686 40.9846 54.022 40.0364 55.5949 39.1656C55.7309 39.0882 55.8474 39.0302 55.9639 38.9141C56.2552 38.6238 56.2552 38.1207 55.9639 37.8111C55.6726 37.5402 55.2648 37.5789 54.8959 37.5789H40.1378C39.6135 37.5789 38.9921 37.4628 38.5649 37.8885C38.1572 38.3142 38.2542 38.9334 38.2542 39.4753V54.375C38.2737 54.7427 38.2154 55.1684 38.5067 55.4587C38.798 55.7489 39.2834 55.7489 39.5941 55.4587C39.6912 55.3426 39.7495 55.2071 39.8271 55.091C40.6816 53.4849 41.6331 51.9175 42.7011 50.4276L44.7788 52.5174L45.808 51.4725L48.0217 53.6978L46.9926 54.7427L49.0509 56.8325L50.0995 55.7876L52.3132 58.0323L51.2646 59.0772L53.3424 61.167L54.3716 60.1221L55.9056 61.6701C56.3134 61.0316 56.7406 60.4317 57.2067 59.8512L55.925 58.5547L59.032 55.42L60.3136 56.7164C60.8962 56.2327 61.4981 55.807 62.1195 55.4006ZM50.4685 46.7703L52.6822 48.9956L49.5752 52.1304L47.3615 49.9051L50.4685 46.7703ZM54.7599 51.0855L56.9542 53.3301L53.8473 56.4649L51.653 54.2202L54.7599 51.0855Z" fill="#B59028"/>
<path fill-rule="evenodd" clip-rule="evenodd" d="M53.0921 68.5402H50.4512V67.0695H47.5384V68.5402H44.4121V67.0695H41.4799V68.5402H38.3535V67.0695H35.4213C35.7126 65.2313 36.1398 63.451 36.6446 61.7095C36.6835 61.574 36.7417 61.4386 36.7417 61.2838C36.7417 60.8581 36.3922 60.5098 35.965 60.5098C35.5572 60.5098 35.3048 60.8387 35.0329 61.0903L24.6052 71.6169C24.2168 72.0039 23.7119 72.3715 23.7119 72.9714C23.7119 73.5713 24.2168 73.9389 24.6052 74.3259L35.0329 84.8525C35.3048 85.1041 35.5572 85.433 35.965 85.433C36.3922 85.433 36.7417 85.0847 36.7417 84.659C36.7417 84.5042 36.6835 84.3881 36.6446 84.2333C36.1398 82.4918 35.7126 80.7115 35.4213 78.8926H38.3535V77.4026H41.4799V78.8926H44.4121V77.4026H47.5384V78.8926H50.4512V77.4026H53.0921C52.9368 76.6867 52.8203 75.932 52.7426 75.1967H50.4512V70.7655H52.7426C52.8203 70.0108 52.9368 69.2755 53.0921 68.5402ZM38.3535 70.7655H41.4799V75.1967H38.3535V70.7655ZM44.4121 70.7655H47.5384V75.1967H44.4121V70.7655Z" fill="#B59028"/>
<path fill-rule="evenodd" clip-rule="evenodd" d="M62.1172 90.5596L60.2336 92.4365L61.2822 93.4815L59.2044 95.5713L58.1752 94.5264L55.9615 96.7517L56.9907 97.7966L54.9323 99.8864L53.8837 98.8415L51.6894 101.086L52.7186 102.131L50.6408 104.221C52.1361 105.305 53.6896 106.253 55.2624 107.123C55.3984 107.201 55.5149 107.259 55.6314 107.356C55.9227 107.665 55.9227 108.168 55.6314 108.459C55.3401 108.749 54.9323 108.71 54.5634 108.71H39.8053C39.2616 108.71 38.6402 108.807 38.2324 108.401C37.8052 107.975 37.9217 107.356 37.9217 106.814V91.9141C37.9217 91.5464 37.8829 91.1207 38.1548 90.8305C38.4655 90.5402 38.9509 90.5402 39.2422 90.8305C39.3587 90.9466 39.417 91.0627 39.4752 91.1981C40.3491 92.7849 41.2811 94.3716 42.3686 95.8616L44.4464 93.7717L45.4755 94.8166L47.6892 92.5913L46.6406 91.5464L48.7184 89.4566L49.7476 90.5015L51.9613 88.2569L50.9321 87.2119L52.9905 85.1221L54.0391 86.167L55.9033 84.29C56.311 84.9093 56.7383 85.5285 57.2043 86.109L55.5926 87.7344L58.6995 90.8692L60.3113 89.2437C60.8938 89.7081 61.4958 90.1532 62.1172 90.5596ZM50.136 99.5188L52.3497 97.2741L49.2427 94.1587L47.029 96.384L50.136 99.5188ZM54.408 95.1843L56.6217 92.959L53.5148 89.8242L51.3011 92.0689L54.408 95.1843Z" fill="#B59028"/>
<path fill-rule="evenodd" clip-rule="evenodd" d="M64.0407 85.9749C60.0405 83.0529 57.4385 78.3315 57.4385 72.9714C57.4385 67.6307 60.0405 62.8899 64.0407 59.9873V85.9749Z" fill="#B59028"/>
<path fill-rule="evenodd" clip-rule="evenodd" d="M67.4623 35.159C65.6564 35.4493 63.8893 35.8943 62.1611 36.3974C62.0252 36.4361 61.8892 36.4942 61.7533 36.4942C61.3261 36.4942 60.9766 36.1459 60.9766 35.7008C60.9766 35.3138 61.3067 35.0429 61.5591 34.772L71.9869 24.2454C72.3558 23.8584 72.7248 23.3359 73.3267 23.3359C73.9093 23.3359 74.2782 23.8584 74.6666 24.2454L85.0944 34.772C85.3468 35.0429 85.6769 35.3138 85.6769 35.7008C85.6769 36.1459 85.3274 36.4942 84.9002 36.4942C84.7448 36.4942 84.6283 36.4361 84.473 36.3974C82.7447 35.8943 80.9971 35.4493 79.1717 35.159C79.1717 60.5273 79.1717 85.8763 79.1717 111.225C80.9971 110.954 82.7447 110.509 84.473 110.006C84.6283 109.968 84.7448 109.909 84.9002 109.909C85.3274 109.909 85.6769 110.258 85.6769 110.683C85.6769 111.09 85.3468 111.361 85.0944 111.632L74.6666 122.158C74.2782 122.545 73.9093 123.048 73.3267 123.048C72.7248 123.048 72.3558 122.545 71.9869 122.158L61.5591 111.632C61.3067 111.361 60.9766 111.09 60.9766 110.683C60.9766 110.258 61.3261 109.909 61.7533 109.909C61.8892 109.909 62.0252 109.968 62.1611 110.006C63.8893 110.509 65.6564 110.954 67.4623 111.225C67.4623 85.8763 67.4623 60.5273 67.4623 35.159Z" fill="#124F82"/>
<path fill-rule="evenodd" clip-rule="evenodd" d="M71.52 66.4497L95.6572 42.0682C94.162 40.9846 92.6085 40.0364 91.0356 39.1656C90.9191 39.0882 90.7832 39.0302 90.6861 38.9141C90.3754 38.6238 90.3754 38.1207 90.6861 37.8111C90.9579 37.5402 91.3851 37.5789 91.7347 37.5789H106.493C107.036 37.5789 107.658 37.4628 108.066 37.8885C108.493 38.3142 108.396 38.9334 108.396 39.4753V54.375C108.376 54.7427 108.415 55.1684 108.143 55.4587C107.833 55.7489 107.347 55.7489 107.056 55.4587C106.939 55.3426 106.881 55.2071 106.823 55.091C105.949 53.4849 105.017 51.9175 103.929 50.4276L79.7923 74.809L71.52 66.4497Z" fill="#124F82"/>
<path fill-rule="evenodd" clip-rule="evenodd" d="M71.52 79.5078L95.6572 103.87C94.162 104.973 92.6085 105.921 91.0356 106.792C90.9191 106.85 90.7832 106.908 90.6861 107.024C90.3754 107.334 90.3754 107.817 90.6861 108.127C90.9579 108.417 91.3851 108.359 91.7347 108.379H106.493C107.036 108.379 107.658 108.475 108.066 108.05C108.493 107.624 108.396 107.005 108.396 106.463V91.5631C108.376 91.1954 108.415 90.7697 108.143 90.4988C107.833 90.1892 107.347 90.1892 107.056 90.4988C106.939 90.5956 106.881 90.731 106.823 90.8665C105.949 92.4532 105.017 94.0206 103.929 95.5106L79.7923 71.1484L71.52 79.5078Z" fill="#124F82"/>
<path fill-rule="evenodd" clip-rule="evenodd" d="M93.6372 67.0695H111.211C110.939 65.2313 110.512 63.451 110.007 61.7095C109.949 61.574 109.91 61.4386 109.91 61.2838C109.91 60.8581 110.259 60.5098 110.687 60.5098C111.075 60.5098 111.327 60.8387 111.599 61.0903L122.027 71.6169C122.415 72.0039 122.92 72.3715 122.92 72.9714C122.92 73.5713 122.415 73.9389 122.027 74.3259L111.599 84.8525C111.327 85.1041 111.075 85.433 110.687 85.433C110.259 85.433 109.91 85.0847 109.91 84.659C109.91 84.5042 109.949 84.3881 110.007 84.2333C110.512 82.4918 110.939 80.7115 111.211 78.8926H93.6372C94.1809 77.0156 94.4528 75.0225 94.4528 72.9714C94.4528 70.9203 94.1809 68.9465 93.6372 67.0695Z" fill="#B59028"/>
<path fill-rule="evenodd" clip-rule="evenodd" d="M6.95182 50.8315C11.1462 46.8453 14.5833 42.6656 17.6126 38.4085C18.933 36.7444 19.7874 37.8667 19.2437 39.4147C17.3795 44.1169 15.0493 48.4127 11.2239 51.4313C11.7288 52.8632 11.2239 54.1984 9.59273 54.5274C10.486 57.5654 11.0491 60.1196 9.04901 62.1901C7.41786 63.893 6.48577 62.2675 6.71879 61.0098C6.77705 60.6614 9.6704 56.3657 6.99065 55.8239C3.47591 60.2938 2.81568 64.2413 4.85462 70.5301L6.31101 69.5046C7.57321 70.0077 8.54413 70.9558 9.26262 72.3297C8.54413 73.6842 7.55379 74.6131 6.29159 75.0968L4.85462 74.0519C2.77684 80.3021 3.43707 84.2689 6.9324 88.7969C9.61215 88.2938 6.73821 83.9399 6.66054 83.5916C6.44694 82.3339 7.39844 80.7278 9.01018 82.45C11.0103 84.5591 10.4277 87.1134 9.53447 90.132C11.1462 90.4804 11.6511 91.8155 11.1462 93.2475C14.9522 96.3242 17.263 100.659 19.1272 105.399C19.6709 106.948 18.7971 108.05 17.4766 106.367C14.4668 102.071 11.0491 97.8335 6.87414 93.7699C4.54392 93.3055 4.19439 92.5702 4.6216 90.7319C1.22336 84.8881 0.873832 81.8307 1.92243 75.2516C-0.64081 73.6842 -0.64081 70.801 1.92243 69.2917C0.912669 62.6932 1.2622 59.6552 4.69927 53.8501C4.27207 52.0118 4.6216 51.2765 6.95182 50.8315Z" fill="#B59028"/>
<path fill-rule="evenodd" clip-rule="evenodd" d="M139.832 50.8315C135.637 46.8453 132.181 42.6656 129.171 38.4085C127.831 36.7444 126.977 37.8667 127.521 39.4147C129.404 44.1169 131.734 48.4127 135.56 51.4313C135.055 52.8632 135.56 54.1984 137.172 54.5274C136.298 57.5654 135.735 60.1196 137.715 62.1901C139.346 63.893 140.298 62.2675 140.065 61.0098C140.007 60.6614 137.094 56.3657 139.774 55.8239C143.308 60.2938 143.968 64.2413 141.91 70.5301L140.473 69.5046C139.21 70.0077 138.24 70.9558 137.502 72.3297C138.24 73.6842 139.21 74.6131 140.473 75.0968L141.929 74.0519C143.987 80.3021 143.347 84.2689 139.832 88.7969C137.152 88.2938 140.045 83.9399 140.104 83.5916C140.337 82.3339 139.385 80.7278 137.754 82.45C135.773 84.5591 136.337 87.1134 137.249 90.132C135.618 90.4804 135.133 91.8155 135.637 93.2475C131.831 96.3242 129.521 100.659 127.656 105.399C127.113 106.948 127.967 108.05 129.288 106.367C132.297 102.071 135.735 97.8335 139.91 93.7699C142.22 93.3055 142.589 92.5702 142.143 90.7319C145.56 84.8881 145.91 81.8307 144.861 75.2516C147.424 73.6842 147.424 70.801 144.842 69.2917C145.871 62.6932 145.502 59.6552 142.084 53.8501C142.512 52.0118 142.143 51.2765 139.832 50.8315Z" fill="#B59028"/>
</svg>
