<svg width="61" height="66" viewBox="0 0 61 66" fill="none" xmlns="http://www.w3.org/2000/svg">
<rect x="14" y="18" width="47" height="48" rx="10" fill="white" fill-opacity="0.2"/>
<path d="M56.1875 50.75H51.6562V21.75C51.6562 21.5096 51.5608 21.2791 51.3908 21.1092C51.2209 20.9392 50.9904 20.8438 50.75 20.8438H37.1562V2.71875C37.1562 2.4784 37.0608 2.24789 36.8908 2.07793C36.7209 1.90798 36.4904 1.8125 36.25 1.8125H21.75C21.5096 1.8125 21.2791 1.90798 21.1092 2.07793C20.9392 2.24789 20.8438 2.4784 20.8438 2.71875V13.5938H7.25C7.00965 13.5938 6.77914 13.6892 6.60918 13.8592C6.43923 14.0291 6.34375 14.2596 6.34375 14.5V50.75H1.8125C1.57215 50.75 1.34164 50.8455 1.17168 51.0154C1.00173 51.1854 0.90625 51.4159 0.90625 51.6562V55.2812C0.90625 55.5216 1.00173 55.7521 1.17168 55.9221C1.34164 56.092 1.57215 56.1875 1.8125 56.1875H56.1875C56.4279 56.1875 56.6584 56.092 56.8283 55.9221C56.9983 55.7521 57.0938 55.5216 57.0938 55.2812V51.6562C57.0938 51.4159 56.9983 51.1854 56.8283 51.0154C56.6584 50.8455 56.4279 50.75 56.1875 50.75ZM37.1562 22.6562H49.8438V50.75H37.1562V22.6562ZM22.6562 3.625H35.3438V50.75H22.6562V3.625ZM8.15625 15.4062H20.8438V50.75H8.15625V15.4062ZM55.2812 54.375H2.71875V52.5625H55.2812V54.375Z" fill="white"/>
<path d="M28.0938 7.25V13.5938C28.0938 13.8341 28.1892 14.0646 28.3592 14.2346C28.5291 14.4045 28.7596 14.5 29 14.5C29.2404 14.5 29.4709 14.4045 29.6408 14.2346C29.8108 14.0646 29.9062 13.8341 29.9062 13.5938V6.34375C29.9062 6.1034 29.8108 5.87289 29.6408 5.70293C29.4709 5.53298 29.2404 5.4375 29 5.4375H28.0938C27.8534 5.4375 27.6229 5.53298 27.4529 5.70293C27.283 5.87289 27.1875 6.1034 27.1875 6.34375C27.1875 6.5841 27.283 6.81461 27.4529 6.98457C27.6229 7.15452 27.8534 7.25 28.0938 7.25Z" fill="white"/>
<path d="M41.6875 31.7188C41.4471 31.7188 41.2166 31.8142 41.0467 31.9842C40.8767 32.1541 40.7812 32.3846 40.7812 32.625C40.7812 32.8654 40.8767 33.0959 41.0467 33.2658C41.2166 33.4358 41.4471 33.5312 41.6875 33.5312H45.3125C45.5529 33.5312 45.7834 33.4358 45.9533 33.2658C46.1233 33.0959 46.2188 32.8654 46.2188 32.625V25.375C46.2188 25.1346 46.1233 24.9041 45.9533 24.7342C45.7834 24.5642 45.5529 24.4688 45.3125 24.4688H41.6875C41.4471 24.4688 41.2166 24.5642 41.0467 24.7342C40.8767 24.9041 40.7812 25.1346 40.7812 25.375C40.7812 25.6154 40.8767 25.8459 41.0467 26.0158C41.2166 26.1858 41.4471 26.2812 41.6875 26.2812H44.4062V28.0938H42.5938C42.3534 28.0938 42.1229 28.1892 41.9529 28.3592C41.783 28.5291 41.6875 28.7596 41.6875 29C41.6875 29.2404 41.783 29.4709 41.9529 29.6408C42.1229 29.8108 42.3534 29.9062 42.5938 29.9062H44.4062V31.7188H41.6875Z" fill="white"/>
<path d="M16.3125 17.2188H12.6875C12.4471 17.2188 12.2166 17.3142 12.0467 17.4842C11.8767 17.6541 11.7813 17.8846 11.7813 18.125C11.7813 18.3654 11.8767 18.5959 12.0467 18.7658C12.2166 18.9358 12.4471 19.0312 12.6875 19.0312H15.4062V19.5622L12.0467 22.9217C11.9625 23.0058 11.8958 23.1057 11.8502 23.2157C11.8047 23.3256 11.7812 23.4435 11.7813 23.5625V25.375C11.7813 25.6154 11.8767 25.8459 12.0467 26.0158C12.2166 26.1858 12.4471 26.2812 12.6875 26.2812H16.3125C16.5529 26.2812 16.7834 26.1858 16.9533 26.0158C17.1233 25.8459 17.2188 25.6154 17.2188 25.375C17.2188 25.1346 17.1233 24.9041 16.9533 24.7342C16.7834 24.5642 16.5529 24.4688 16.3125 24.4688H13.5938V23.9378L16.9533 20.5783C17.0375 20.4942 17.1042 20.3943 17.1498 20.2843C17.1953 20.1744 17.2188 20.0565 17.2188 19.9375V18.125C17.2188 17.8846 17.1233 17.6541 16.9533 17.4842C16.7834 17.3142 16.5529 17.2188 16.3125 17.2188Z" fill="white"/>
</svg>
