<svg width="116" height="125" viewBox="0 0 116 125" fill="none" xmlns="http://www.w3.org/2000/svg">
<path d="M58 124.515L48.1846 114.699H67.8153L58 124.515Z" fill="#EBEBEB"/>
<circle cx="58" cy="58.4844" r="58" fill="#EBEBEB"/>
<circle cx="58.0002" cy="58.4846" r="50.8615" fill="white"/>
<path d="M36.256 74.992V70.432C36.256 68.608 37.04 67.056 38.608 65.776L47.44 58.288C48.88 57.104 49.6 55.824 49.6 54.448V53.008C49.6 52.016 49.36 51.312 48.88 50.896C48.432 50.448 47.68 50.224 46.624 50.224H44.944C43.92 50.224 43.2 50.448 42.784 50.896C42.368 51.312 42.16 52.016 42.16 53.008V54.544C42.16 55.248 41.824 55.6 41.152 55.6H37.072C36.4 55.6 36.064 55.248 36.064 54.544V52.912C36.064 50.416 36.752 48.496 38.128 47.152C39.504 45.808 41.456 45.136 43.984 45.136H47.632C50.16 45.136 52.112 45.808 53.488 47.152C54.864 48.496 55.552 50.416 55.552 52.912V54.832C55.552 57.328 54.592 59.392 52.672 61.024L43.648 68.704C43.264 69.056 43.072 69.44 43.072 69.856V70.624H54.544C55.216 70.624 55.552 70.96 55.552 71.632V74.992C55.552 75.664 55.216 76 54.544 76H37.264C36.592 76 36.256 75.664 36.256 74.992ZM72.9359 65.104V50.272L65.1599 65.104H72.9359ZM77.6879 76H73.9439C73.2719 76 72.9359 75.664 72.9359 74.992V70.384H61.0319C60.4879 70.384 60.0559 70.224 59.7359 69.904C59.4159 69.584 59.2559 69.152 59.2559 68.608V66.736C59.2559 65.776 59.4159 64.992 59.7359 64.384L69.2879 46.624C69.6079 46.048 69.8959 45.664 70.1519 45.472C70.4399 45.248 70.8559 45.136 71.3999 45.136H76.8239C77.3679 45.136 77.7999 45.296 78.1199 45.616C78.4719 45.936 78.6479 46.368 78.6479 46.912V65.104H82.1039C82.7439 65.104 83.0639 65.424 83.0639 66.064V69.28C83.0639 70.016 82.7439 70.384 82.1039 70.384H78.6479V74.992C78.6479 75.376 78.5679 75.648 78.4079 75.808C78.2799 75.936 78.0399 76 77.6879 76Z" fill="#D39C00"/>
<path fill-rule="evenodd" clip-rule="evenodd" d="M93.9648 93.9646L99.0124 99.0122C104.398 93.6264 108.67 87.2325 111.585 80.1956C114.5 73.1588 116 65.6167 116 58H108.862C108.862 72.0451 103.169 84.7605 93.9648 93.9646Z" fill="#D39C00"/>
</svg>
