<svg width="149" height="98" viewBox="0 0 149 98" fill="none" xmlns="http://www.w3.org/2000/svg">
<path fill-rule="evenodd" clip-rule="evenodd" d="M53.3492 13.3816C53.3179 13.1001 53.3804 12.8185 53.5369 12.5683L57.3534 6.99986C57.3847 6.93729 57.416 6.87473 57.4472 6.81216C57.5724 6.62446 57.7601 6.46805 57.9478 6.40548C58.3232 6.24907 58.7299 6.24907 59.1053 6.49933C59.1991 6.5619 59.2617 6.62446 59.3242 6.71831L62.2023 8.68915C62.7341 9.06455 62.8592 9.78406 62.5151 10.3159C62.4838 10.3784 62.4213 10.4097 62.39 10.4723L60.3566 13.4129H53.3179L53.3492 13.3816ZM58.7299 9.09583L56.1646 12.8498H57.9165L59.9499 9.94047L58.7611 9.12711L58.7299 9.09583Z" fill="#4A4A4A"/>
<path fill-rule="evenodd" clip-rule="evenodd" d="M139.816 95.2185C141.818 95.2185 143.163 94.7179 144.54 93.3415C148.263 89.6501 145.854 82.8616 139.91 82.8616C137.908 82.8616 136.156 83.9878 135.03 85.5207C132.089 89.6501 135.343 95.2185 139.816 95.2185ZM80.8161 14.9147L63.016 2.80811L61.9211 4.21586L79.7212 16.3537L80.8161 14.9147ZM80.691 18.8251C80.4407 19.0441 79.9402 19.1066 79.7212 19.0441C79.5022 19.0128 79.5648 19.0128 79.471 18.9502V18.9815L59.7626 5.52975C59.2621 5.31076 59.0431 4.52869 59.1056 4.21586C59.1682 3.90302 59.1369 4.05944 59.1682 3.99687L59.2308 3.84046C59.2621 3.77789 59.3246 3.68404 59.3872 3.62148L61.7647 0.493163C62.015 0.117765 62.6406 -0.0699334 62.9535 0.023916C63.2663 0.0864823 63.2976 0.149049 63.4227 0.242898L82.9747 13.5695C83.4126 13.8198 83.6316 14.508 83.569 14.8208C83.5065 15.1337 83.5065 15.0085 83.4752 15.1024L83.4439 15.165C83.3813 15.2588 83.3188 15.3526 83.2249 15.4465C82.7244 16.0722 81.0977 18.4184 80.6284 18.7938L80.691 18.8251ZM81.2228 20.1077L85.0081 15.1337C85.2583 14.7583 85.884 14.5706 86.1968 14.6644C86.5097 14.727 86.5409 14.7896 86.6661 14.8834L148.325 56.8966C148.794 57.1156 149.076 57.6474 148.982 58.1793C148.951 58.3357 148.888 58.4608 148.826 58.5859C148.794 58.6172 148.794 58.6485 148.763 58.6798L146.573 61.7768C146.386 62.0896 146.041 62.3086 145.635 62.3399C145.572 62.3399 145.541 62.3399 145.478 62.3399L141.099 62.3086H141.067C141.005 62.3086 140.911 62.3086 140.848 62.2773C140.723 62.2461 140.598 62.2148 140.504 62.1522C140.442 62.1209 140.41 62.0896 140.348 62.0584L81.5044 21.8908C81.0977 21.6406 80.8787 21.0149 80.9413 20.6395C81.0038 20.2954 81.0664 20.2641 81.1915 20.1077H81.2228ZM86.2281 17.3861L83.788 20.5769L141.505 59.9624L144.978 59.9937L146.229 58.2418L86.2594 17.3861H86.2281ZM143.727 88.8054C143.727 92.8722 139.472 93.6543 137.47 91.6835C136.907 91.1204 136.406 90.1506 136.406 89.0557C136.406 87.9295 137.751 87.5228 138.44 88.2111C138.94 88.7116 138.659 89.0557 138.909 89.5875C139.441 90.7137 141.286 90.6199 141.286 88.8993C141.286 87.7105 139.722 87.9608 139.222 87.4915C138.502 86.8346 138.94 85.4269 139.816 85.4269C141.005 85.4269 141.756 85.5833 142.632 86.4592C143.101 86.9284 143.664 87.8982 143.664 88.7741L143.727 88.8054ZM86.0091 87.5228C86.0091 89.8691 85.0706 91.3394 83.1624 92.2779C81.0977 93.2789 78.5325 92.5281 77.1873 90.6824C76.8119 90.1819 76.4052 89.2747 76.3426 88.4926C76.2801 87.6167 76.2488 86.6469 77.6253 86.6469C78.0632 86.6469 78.5012 87.0536 78.6263 87.429C78.7514 87.8044 78.5637 88.1172 78.9704 88.9306C79.1894 89.3998 79.4084 89.6501 79.8464 89.9003C82.0049 91.183 83.6629 89.2434 83.6629 88.0859C83.6629 86.3341 82.8183 85.5207 81.1915 85.333C79.5961 85.1766 79.5022 82.9242 81.4105 82.9242C82.0049 82.9242 82.787 83.1432 83.2249 83.3622C83.8193 83.6437 84.1634 83.894 84.6014 84.3319C85.0706 84.8012 85.2896 85.0515 85.5712 85.6771C85.7902 86.1151 86.0404 86.8659 86.0404 87.5228H86.0091ZM132.214 70.6925L136.125 61.464C136.281 60.9947 136.719 60.6819 137.22 60.6819C137.877 60.6819 138.377 61.2137 138.377 61.8394C138.377 62.0271 138.346 62.2148 138.252 62.3712L134.717 70.7238C139.785 70.7864 144.54 70.9741 145.103 71.3494C147.637 73.0075 147.387 75.0096 147.387 77.8876L147.355 84.4258C147.355 84.7073 147.731 85.1453 148.012 85.8961C148.325 86.6782 148.513 87.5228 148.575 88.3675V89.6501C148.482 90.745 148.2 91.8399 147.762 92.841C147.48 93.4353 146.511 94.8118 146.041 95.2185C145.197 95.938 144.696 96.3134 143.633 96.8452C142.632 97.3144 141.568 97.5647 140.504 97.6273H139.722C137.877 97.5334 136.031 96.8765 134.623 95.719C133.497 94.8118 132.214 93.0912 131.839 91.4645H89.5441C88.981 92.6533 88.3241 93.9046 87.323 94.8431C87.104 95.0308 87.0102 95.0933 86.7912 95.281C85.1958 96.7826 82.8183 97.6273 80.1592 97.6273C75.06 97.6273 70.6178 93.2789 70.6178 87.6792C70.6178 84.9576 71.8066 83.3309 71.8066 82.9555V77.1994C77.2811 73.6644 82.9434 73.2577 88.4179 76.9178C88.6682 76.5424 91.6714 73.6331 92.2345 73.0387C92.5473 72.6946 92.9227 72.4444 93.2981 72.1628C93.7361 71.85 94.0489 71.6936 94.5181 71.4433C94.5807 71.412 94.612 71.3807 94.6746 71.3807L100.681 61.2763C100.931 60.8696 101.338 60.5881 101.807 60.5255L111.474 44.4772C111.63 44.1644 111.943 43.9767 112.318 43.9767C112.85 43.9767 113.257 44.4147 113.257 44.9152C113.257 45.1029 113.194 45.2906 113.1 45.447L103.465 61.4953C103.528 61.683 103.59 61.8707 103.59 62.0896C103.59 62.3712 103.496 62.6527 103.371 62.8717L98.7414 70.6612H126.521V59.6183C126.521 57.71 125.551 58.0854 123.705 58.0854V64.2169C123.705 64.999 123.549 65.7498 123.299 66.3129C122.517 68.096 121.453 69.2848 119.451 69.2848H112.068C108.251 69.5976 111.786 62.3712 112.506 59.7434C113.194 58.5234 113.444 57.9603 114.508 57.0843C115.228 56.49 116.604 55.7705 117.855 55.7705H125.645C127.178 55.7705 128.867 57.4285 128.867 58.9926V70.6612C129.555 70.6612 127.178 70.6299 132.214 70.6925ZM87.8861 87.8357C87.8861 85.9587 86.8851 83.5186 85.4773 82.3924C85.3522 82.2985 85.3522 82.2673 85.2271 82.1734C84.1009 81.1411 82.0675 80.3903 80.4407 80.3903C78.6263 80.3903 76.5929 81.2662 75.3103 82.4862C70.3363 87.3664 74.2154 95.2185 80.1905 95.2185C81.6608 95.2185 82.4429 95.0933 83.6942 94.4677C86.0404 93.2789 87.8861 90.8701 87.8861 87.8357ZM93.9863 87.8357L93.8925 89.1183H131.526C131.526 87.5541 131.714 86.553 132.371 85.2392C134.529 80.9221 139.66 79.0764 144.446 81.6416C144.665 81.7667 144.79 81.8606 145.009 81.9544C145.009 81.1723 145.072 75.2286 144.947 74.7906C144.602 73.6957 143.664 72.9449 142.35 72.9449H98.3973C97.3336 72.9449 96.3951 73.1952 95.6443 73.5705C94.3617 74.1962 93.0478 75.6978 92.0155 76.7614C91.5775 77.1994 90.6078 78.0753 90.2949 78.5133C90.4201 78.6697 91.2021 79.5769 91.7027 80.2964C92.5786 81.6103 93.2981 83.2683 93.6422 84.8638C93.7361 85.3643 93.7986 85.7084 93.8612 86.2402C93.9238 86.6156 94.0176 87.4915 93.9863 87.8044V87.8357ZM90.2011 88.7116V89.1183H91.4837C91.4837 88.5864 91.5775 88.43 91.5775 87.9295C91.5775 86.2089 91.1396 84.5509 90.6078 83.3622C89.9508 81.8919 89.1374 80.797 87.98 79.7333C85.9466 77.8876 83.5065 76.6989 80.5033 76.6989C78.2196 76.6989 76.0298 77.4497 74.2467 78.6384V80.2339C74.4344 80.1087 74.5595 79.9836 74.7785 79.8272C77.0309 78.3256 78.376 78.0753 81.129 78.0753C82.5367 78.0753 83.788 78.5759 85.0081 79.1702C87.8548 80.578 89.638 83.3622 90.1385 86.4592C90.2949 87.4915 90.1698 87.9921 90.1698 88.7429L90.2011 88.7116ZM118.387 62.1209V66.876C120.264 66.876 121.297 66.7508 121.297 64.2169V58.0854H118.763C117.042 58.0854 115.916 58.7111 115.134 59.9937L112.975 66.8447H116.01V61.8394C116.01 60.5255 117.574 60.3065 118.137 61.0886C118.325 61.3388 118.418 61.683 118.418 62.0896L118.387 62.1209Z" fill="#4A4A4A"/>
<path fill-rule="evenodd" clip-rule="evenodd" d="M23.911 18.5748L1.35586 22.016C0.730194 22.1098 0.135815 21.6719 0.0419652 21.0462C-0.0518841 20.4205 0.38608 19.8262 1.01174 19.7323L23.5669 16.2912C24.1925 16.1973 24.7869 16.6353 24.8808 17.2609C24.9746 17.8866 24.5367 18.481 23.911 18.5748Z" fill="#4A4A4A"/>
<path fill-rule="evenodd" clip-rule="evenodd" d="M23.9428 48.1999L98.1151 59.4618C98.7407 59.5556 99.1787 60.15 99.0848 60.7757C98.991 61.4013 98.3966 61.8393 97.771 61.7455L23.5987 50.4835C22.973 50.3897 22.535 49.7953 22.6289 49.1696C22.7227 48.544 23.3171 48.106 23.9428 48.1999Z" fill="#4A4A4A"/>
<path fill-rule="evenodd" clip-rule="evenodd" d="M24.8193 17.4173V49.3261C24.8193 49.9518 24.2875 50.4836 23.6619 50.4836C23.0362 50.4836 22.5044 49.9518 22.5044 49.3261V17.4173C22.5044 16.7916 23.0362 16.2598 23.6619 16.2598C24.2875 16.2598 24.8193 16.7916 24.8193 17.4173Z" fill="#4A4A4A"/>
<path fill-rule="evenodd" clip-rule="evenodd" d="M2.32667 20.8583V52.861C2.32667 53.4866 1.79486 54.0185 1.16919 54.0185C0.543532 54.0185 0.0117188 53.4866 0.0117188 52.861V20.8583C0.0117188 20.2327 0.543532 19.7009 1.16919 19.7009C1.79486 19.7009 2.32667 20.2327 2.32667 20.8583Z" fill="#4A4A4A"/>
<path fill-rule="evenodd" clip-rule="evenodd" d="M1.10647 51.7349L23.4739 48.1999C24.0996 48.106 24.694 48.544 24.7878 49.1696C24.8817 49.7953 24.4437 50.3897 23.818 50.4835L1.45058 54.0185C0.824921 54.1124 0.230541 53.6744 0.136692 53.0487C0.0428424 52.4231 0.480806 51.8287 1.10647 51.7349Z" fill="#4A4A4A"/>
<path fill-rule="evenodd" clip-rule="evenodd" d="M1.45084 51.7349L92.954 63.4348C93.5797 63.5287 94.0489 64.0918 93.955 64.7174C93.8612 65.3431 93.2981 65.8123 92.6724 65.7185L1.16929 54.0186C0.543625 53.9248 0.0743784 53.3617 0.168228 52.736C0.262077 52.1103 0.825174 51.6411 1.45084 51.7349Z" fill="#4A4A4A"/>
<path fill-rule="evenodd" clip-rule="evenodd" d="M97.6767 64.4671L93.0781 65.6872C92.4524 65.8436 91.8268 65.4995 91.6704 64.8738C91.5139 64.2482 91.8581 63.6225 92.4837 63.4661L97.0823 62.246C97.708 62.0896 98.3337 62.4337 98.4901 63.0594C98.6465 63.6851 98.3024 64.3107 97.6767 64.4671Z" fill="#4A4A4A"/>
<path fill-rule="evenodd" clip-rule="evenodd" d="M102.745 53.2365L102.776 39.2529C102.776 38.6273 103.308 38.0955 103.933 38.0955C104.559 38.0955 105.091 38.6273 105.091 39.2529L105.06 53.2365C105.06 53.8622 104.528 54.394 103.902 54.394C103.276 54.394 102.745 53.8622 102.745 53.2365Z" fill="#4A4A4A"/>
<path fill-rule="evenodd" clip-rule="evenodd" d="M95.2372 34.9358L23.3799 18.5435C22.7542 18.387 22.3788 17.7927 22.504 17.167C22.6604 16.5413 23.2548 16.1659 23.8804 16.2911L95.7378 32.6834C96.3634 32.8398 96.7388 33.4342 96.6137 34.0599C96.4573 34.6855 95.8629 35.0609 95.2372 34.9358Z" fill="#4A4A4A"/>
<path fill-rule="evenodd" clip-rule="evenodd" d="M20.3455 8.93957L84.476 25.0504C85.1016 25.2068 85.477 25.8325 85.3206 26.4581C85.1642 27.0838 84.5385 27.4592 83.9129 27.3028L19.7824 11.192C19.1568 11.0355 18.7814 10.4099 18.9378 9.78421C19.0942 9.15855 19.7199 8.78315 20.3455 8.93957Z" fill="#4A4A4A"/>
<path fill-rule="evenodd" clip-rule="evenodd" d="M16.748 1.58796L73.7146 16.8541C74.3403 17.0105 74.6844 17.6675 74.528 18.2619C74.3715 18.8875 73.7146 19.2316 73.1202 19.0752L16.1536 3.80906C15.528 3.65264 15.1839 2.9957 15.3403 2.40132C15.4967 1.77566 16.1536 1.43154 16.748 1.58796Z" fill="#4A4A4A"/>
<path fill-rule="evenodd" clip-rule="evenodd" d="M16.1847 4.81005L2.04474 21.6091C1.63806 22.1096 0.88726 22.1722 0.418013 21.7342C-0.082517 21.3275 -0.145083 20.5767 0.292881 20.1075L15.559 1.96328C15.8093 1.65045 16.1847 1.52532 16.5914 1.5566C16.9981 1.61917 17.3109 1.83815 17.4986 2.18227L24.725 16.8853C25.0066 17.4484 24.7563 18.1679 24.1932 18.4495C23.6301 18.731 22.9106 18.4808 22.629 17.9177L16.1847 4.81005Z" fill="#4A4A4A"/>
<path fill-rule="evenodd" clip-rule="evenodd" d="M29.919 22.7043V44.8527C29.919 45.4784 29.3871 46.0102 28.7615 46.0102C28.1358 46.0102 27.604 45.4784 27.604 44.8527V22.7043C27.604 22.0786 28.1358 21.5468 28.7615 21.5468C29.3871 21.5468 29.919 22.0786 29.919 22.7043Z" fill="#4A4A4A"/>
<path fill-rule="evenodd" clip-rule="evenodd" d="M34.9863 23.7992C34.9863 31.0882 34.9863 38.3771 34.9863 45.6661C34.9863 46.2918 34.4545 46.8236 33.8289 46.8236C33.2032 46.8236 32.6714 46.2918 32.6714 45.6661C32.6714 38.3771 32.6714 31.0882 32.6714 23.7992C32.6714 23.1735 33.2032 22.6417 33.8289 22.6417C34.4545 22.6417 34.9863 23.1735 34.9863 23.7992Z" fill="#4A4A4A"/>
<path fill-rule="evenodd" clip-rule="evenodd" d="M40.022 24.894C40.022 32.0891 40.022 39.2842 40.022 46.5106C40.022 47.1363 39.4902 47.6681 38.8645 47.6681C38.2388 47.6681 37.707 47.1363 37.707 46.5106C37.707 39.3155 37.707 32.1204 37.707 24.894C37.707 24.2683 38.2388 23.7365 38.8645 23.7365C39.4902 23.7365 40.022 24.2683 40.022 24.894Z" fill="#4A4A4A"/>
<path fill-rule="evenodd" clip-rule="evenodd" d="M45.0586 25.9888C45.0586 33.0901 45.0586 40.2227 45.0586 47.3239C45.0586 47.9496 44.5268 48.4814 43.9011 48.4814C43.2755 48.4814 42.7437 47.9496 42.7437 47.3239C42.7437 40.2227 42.7437 33.0901 42.7437 25.9888C42.7437 25.3632 43.2755 24.8314 43.9011 24.8314C44.5268 24.8314 45.0586 25.3632 45.0586 25.9888Z" fill="#4A4A4A"/>
<path fill-rule="evenodd" clip-rule="evenodd" d="M50.0952 27.0836C50.0952 34.1223 50.0952 41.1297 50.0952 48.1685C50.0952 48.7941 49.5634 49.3259 48.9377 49.3259C48.3121 49.3259 47.7803 48.7941 47.7803 48.1685C47.7803 41.1297 47.7803 34.1223 47.7803 27.0836C47.7803 26.458 48.3121 25.9261 48.9377 25.9261C49.5634 25.9261 50.0952 26.458 50.0952 27.0836Z" fill="#4A4A4A"/>
<path fill-rule="evenodd" clip-rule="evenodd" d="M55.1318 28.2101C55.1318 35.155 55.1318 42.0686 55.1318 49.0134C55.1318 49.6391 54.6 50.1709 53.9744 50.1709C53.3487 50.1709 52.8169 49.6391 52.8169 49.0134C52.8169 42.0686 52.8169 35.155 52.8169 28.2101C52.8169 27.5845 53.3487 27.0527 53.9744 27.0527C54.6 27.0527 55.1318 27.5845 55.1318 28.2101Z" fill="#4A4A4A"/>
<path fill-rule="evenodd" clip-rule="evenodd" d="M60.168 29.305C60.168 36.156 60.168 43.007 60.168 49.8267C60.168 50.4524 59.6362 50.9842 59.0105 50.9842C58.3848 50.9842 57.853 50.4524 57.853 49.8267C57.853 42.9757 57.853 36.1247 57.853 29.305C57.853 28.6793 58.3848 28.1475 59.0105 28.1475C59.6362 28.1475 60.168 28.6793 60.168 29.305Z" fill="#4A4A4A"/>
<path fill-rule="evenodd" clip-rule="evenodd" d="M65.2046 30.3998C65.2046 37.157 65.2046 43.9142 65.2046 50.6713C65.2046 51.297 64.6728 51.8288 64.0471 51.8288C63.4215 51.8288 62.8896 51.297 62.8896 50.6713C62.8896 43.9142 62.8896 37.157 62.8896 30.3998C62.8896 29.7742 63.4215 29.2424 64.0471 29.2424C64.6728 29.2424 65.2046 29.7742 65.2046 30.3998Z" fill="#4A4A4A"/>
<path fill-rule="evenodd" clip-rule="evenodd" d="M70.273 31.4947C70.273 38.158 70.273 44.8213 70.273 51.4846C70.273 52.1103 69.7411 52.6421 69.1155 52.6421C68.4898 52.6421 67.958 52.1103 67.958 51.4846C67.958 44.8213 67.958 38.158 67.958 31.4947C67.958 30.869 68.4898 30.3372 69.1155 30.3372C69.7411 30.3372 70.273 30.869 70.273 31.4947Z" fill="#4A4A4A"/>
<path fill-rule="evenodd" clip-rule="evenodd" d="M75.3091 32.5895C75.3091 39.1589 75.3091 45.7597 75.3091 52.3291C75.3091 52.9548 74.7773 53.4866 74.1516 53.4866C73.526 53.4866 72.9941 52.9548 72.9941 52.3291C72.9941 45.7597 72.9941 39.1589 72.9941 32.5895C72.9941 31.9638 73.526 31.432 74.1516 31.432C74.7773 31.432 75.3091 31.9638 75.3091 32.5895Z" fill="#4A4A4A"/>
<path fill-rule="evenodd" clip-rule="evenodd" d="M80.3462 33.6847C80.3462 40.1603 80.3462 46.6672 80.3462 53.1428C80.3462 53.7685 79.8144 54.3003 79.1887 54.3003C78.5631 54.3003 78.0312 53.7685 78.0312 53.1428C78.0312 46.6672 78.0312 40.1603 78.0312 33.6847C78.0312 33.059 78.5631 32.5272 79.1887 32.5272C79.8144 32.5272 80.3462 33.059 80.3462 33.6847Z" fill="#4A4A4A"/>
<path fill-rule="evenodd" clip-rule="evenodd" d="M85.3828 34.7795C85.3828 41.1925 85.3828 47.5743 85.3828 53.9873C85.3828 54.613 84.851 55.1448 84.2253 55.1448C83.5997 55.1448 83.0679 54.613 83.0679 53.9873C83.0679 47.5743 83.0679 41.1925 83.0679 34.7795C83.0679 34.1538 83.5997 33.622 84.2253 33.622C84.851 33.622 85.3828 34.1538 85.3828 34.7795Z" fill="#4A4A4A"/>
<path fill-rule="evenodd" clip-rule="evenodd" d="M90.4194 35.9057C90.4194 42.2249 90.4194 48.5441 90.4194 54.832C90.4194 55.4577 89.8876 55.9895 89.262 55.9895C88.6363 55.9895 88.1045 55.4577 88.1045 54.832C88.1045 48.5128 88.1045 42.1936 88.1045 35.9057C88.1045 35.28 88.6363 34.7482 89.262 34.7482C89.8876 34.7482 90.4194 35.28 90.4194 35.9057Z" fill="#4A4A4A"/>
<path fill-rule="evenodd" clip-rule="evenodd" d="M95.4551 37.0005C95.4551 43.2258 95.4551 49.4512 95.4551 55.6765C95.4551 56.3022 94.9233 56.834 94.2976 56.834C93.6719 56.834 93.1401 56.3022 93.1401 55.6765C93.1401 49.4512 93.1401 43.2258 93.1401 37.0005C93.1401 36.3748 93.6719 35.843 94.2976 35.843C94.9233 35.843 95.4551 36.3748 95.4551 37.0005Z" fill="#4A4A4A"/>
<path fill-rule="evenodd" clip-rule="evenodd" d="M100.492 38.0953V56.4898C100.492 57.1155 99.9604 57.6473 99.3347 57.6473C98.7091 57.6473 98.1772 57.1155 98.1772 56.4898V38.0953C98.1772 37.4697 98.7091 36.9379 99.3347 36.9379C99.9604 36.9379 100.492 37.4697 100.492 38.0953Z" fill="#4A4A4A"/>
</svg>
